<?xml version="1.0" encoding="UTF-8" standalone="no"?>
<!-- Created with Inkscape (http://www.inkscape.org/) -->

<svg
   width="150mm"
   height="120mm"
   viewBox="0 0 566.92907 453.54272"
   version="1.1"
   id="svg1"
   inkscape:version="1.2.2 (b0a8486541, 2022-12-01)"
   sodipodi:docname="m07bweb.svg"
   xml:space="preserve"
   xmlns:inkscape="http://www.inkscape.org/namespaces/inkscape"
   xmlns:sodipodi="http://sodipodi.sourceforge.net/DTD/sodipodi-0.dtd"
   xmlns:xlink="http://www.w3.org/1999/xlink"
   xmlns="http://www.w3.org/2000/svg"
   xmlns:svg="http://www.w3.org/2000/svg"
   xmlns:rdf="http://www.w3.org/1999/02/22-rdf-syntax-ns#"
   xmlns:cc="http://creativecommons.org/ns#"><sodipodi:namedview
     id="namedview1"
     pagecolor="#ffffff"
     bordercolor="#eeeeee"
     borderopacity="1"
     inkscape:showpageshadow="0"
     inkscape:pageopacity="0"
     inkscape:pagecheckerboard="false"
     inkscape:deskcolor="#505050"
     inkscape:document-units="mm"
     inkscape:zoom="2.5821713"
     inkscape:cx="368.68196"
     inkscape:cy="37.952555"
     inkscape:window-width="1920"
     inkscape:window-height="1008"
     inkscape:window-x="0"
     inkscape:window-y="0"
     inkscape:window-maximized="1"
     inkscape:current-layer="layer4"
     showgrid="false"
     showguides="false" /><defs
     id="defs1"><inkscape:path-effect
       effect="spiro"
       id="path-effect5329"
       is_visible="true"
       lpeversion="1" /><linearGradient
       id="swatch158"
       inkscape:swatch="solid"><stop
         style="stop-color:#000000;stop-opacity:1;"
         offset="0"
         id="stop158" /></linearGradient><rect
       x="83.932243"
       y="108.46537"
       width="318.79349"
       height="87.755157"
       id="rect2" /><rect
       id="SVGID_1_"
       width="283.5"
       height="283.5"
       x="0"
       y="0" /><rect
       id="SVGID_1_-1"
       width="283.5"
       height="283.5"
       x="0"
       y="0" /><rect
       id="SVGID_1_-9"
       width="283.5"
       height="283.5"
       x="0"
       y="0" /><rect
       id="SVGID_1_-15"
       width="283.5"
       height="283.5"
       x="0"
       y="0" /><rect
       id="SVGID_1_-5"
       width="283.5"
       height="283.5"
       x="0"
       y="0" /><rect
       id="SVGID_1_-4"
       width="283.5"
       height="283.5"
       x="0"
       y="0" /><rect
       id="SVGID_1_-49"
       width="283.5"
       height="283.5"
       x="0"
       y="0" /><rect
       id="SVGID_1_-51"
       width="283.5"
       height="283.5"
       x="0"
       y="0" /><rect
       id="SVGID_1_-6"
       width="283.5"
       height="283.5"
       x="0"
       y="0" /><rect
       id="SVGID_1_-8"
       width="283.5"
       height="283.5"
       x="0"
       y="0" /><rect
       id="SVGID_1_-7"
       width="283.5"
       height="283.5"
       x="0"
       y="0" /><rect
       id="SVGID_1_-0"
       width="283.5"
       height="283.5"
       x="0"
       y="0" /><rect
       id="SVGID_1_-3"
       width="283.5"
       height="283.5"
       x="0"
       y="0" /><rect
       id="SVGID_1_-490"
       width="283.5"
       height="283.5"
       x="0"
       y="0" /><rect
       id="SVGID_1_-62"
       width="283.5"
       height="283.5"
       x="0"
       y="0" /><rect
       id="SVGID_1_-80"
       width="283.5"
       height="283.5"
       x="0"
       y="0" /><clipPath
       id="SVGID_00000088825643609802426310000009268447189076183692_-8">
		<use
   xlink:href="#SVGID_1_-53"
   style="overflow:visible"
   id="use1-59" />
	</clipPath><clipPath
       id="clipPath2">
		<use
   xlink:href="#SVGID_1_-53"
   style="overflow:visible"
   id="use2" />
	</clipPath><rect
       id="SVGID_1_-53"
       width="283.5"
       height="283.5"
       x="0"
       y="0" /><clipPath
       id="SVGID_00000008107930259922024670000008725292157661145523_">
		<use
   xlink:href="#SVGID_1_-33"
   style="overflow:visible"
   id="use1-1" />
	</clipPath><clipPath
       id="clipPath2-8">
		<use
   xlink:href="#SVGID_1_-33"
   style="overflow:visible"
   id="use2-9" />
	</clipPath><rect
       id="SVGID_1_-33"
       width="283.5"
       height="283.5"
       x="0"
       y="0" /><clipPath
       id="SVGID_00000124840597065488903460000005481875429875956626_">
		<use
   xlink:href="#SVGID_1_-85"
   style="overflow:visible"
   id="use1-680" />
	</clipPath><clipPath
       id="clipPath2-2">
		<use
   xlink:href="#SVGID_1_-85"
   style="overflow:visible"
   id="use2-1" />
	</clipPath><rect
       id="SVGID_1_-85"
       x="0"
       y="0"
       width="283.5"
       height="283.5" /><clipPath
       id="SVGID_00000131350927939289745970000003203673322947402127_">
		<use
   xlink:href="#SVGID_1_"
   style="overflow:visible"
   id="use49095" />
	</clipPath><clipPath
       id="clipPath52336">
		<use
   xlink:href="#SVGID_1_"
   style="overflow:visible"
   id="use52334" />
	</clipPath><clipPath
       id="SVGID_00000135691296135118220300000007282337375253646227_">
		<use
   xlink:href="#SVGID_1_-86"
   style="overflow:visible"
   id="use1" />
	</clipPath><clipPath
       id="clipPath2-25">
		<use
   xlink:href="#SVGID_1_-86"
   style="overflow:visible"
   id="use2-4" />
	</clipPath><rect
       id="SVGID_1_-86"
       width="283.5"
       height="283.5"
       x="0"
       y="0" /><clipPath
       id="SVGID_00000107573272734804361250000013699652756899299742_">
		<use
   xlink:href="#SVGID_1_-159"
   style="overflow:visible"
   id="use1-17" />
	</clipPath><clipPath
       id="clipPath2-27">
		<use
   xlink:href="#SVGID_1_-159"
   style="overflow:visible"
   id="use2-2" />
	</clipPath><rect
       id="SVGID_1_-159"
       width="283.5"
       height="283.5"
       x="0"
       y="0" /><clipPath
       id="SVGID_00000107573272734804361250000013699652756899299742_-3">
		<use
   xlink:href="#SVGID_1_-75"
   style="overflow:visible"
   id="use6251" />
	</clipPath><clipPath
       id="clipPath26292">
		<use
   xlink:href="#SVGID_1_-75"
   style="overflow:visible"
   id="use26290" />
	</clipPath><rect
       id="rect6455"
       width="283.5"
       height="283.5"
       x="0"
       y="0" /><clipPath
       id="SVGID_00000107573272734804361250000013699652756899299742_-6">
		<use
   xlink:href="#SVGID_1_-75"
   style="overflow:visible"
   id="use26444" />
	</clipPath><clipPath
       id="clipPath26585">
		<use
   xlink:href="#SVGID_1_-75"
   style="overflow:visible"
   id="use26583" />
	</clipPath><rect
       id="SVGID_1_-75"
       width="283.5"
       height="283.5"
       x="0"
       y="0" /><clipPath
       id="SVGID_00000107573272734804361250000013699652756899299742_-6-3">
		<use
   xlink:href="#SVGID_1_-75"
   style="overflow:visible"
   id="use26444-6" />
	</clipPath><clipPath
       id="clipPath15640">
		<use
   xlink:href="#SVGID_1_-75"
   style="overflow:visible"
   id="use15638" />
	</clipPath><rect
       id="rect29646"
       width="283.5"
       height="283.5"
       x="0"
       y="0" /><rect
       id="rect28159"
       width="283.5"
       height="283.5"
       x="0"
       y="0" /><clipPath
       id="SVGID_00000085972433664928841230000013839026464737200560_"><use
         xlink:href="#SVGID_1_-4"
         style="overflow:visible"
         id="use19367" /></clipPath><clipPath
       id="clipPath25452"><use
         xlink:href="#SVGID_1_-4"
         style="overflow:visible"
         id="use25450" /></clipPath><rect
       id="rect23442"
       width="283.5"
       height="283.5"
       x="0"
       y="0" /></defs><g
     inkscape:label="Calque 1"
     inkscape:groupmode="layer"
     id="layer1"
     style="display:inline"><path
       style="fill:none;fill-opacity:1;stroke:#82dc73;stroke-width:9.44882;stroke-dasharray:none;stroke-opacity:1"
       d="M 283.46415,39.025526 V 243.47959"
       id="path5" /><rect
       style="fill:#25303b;fill-opacity:1;stroke-width:0.159554"
       id="rect221"
       width="126.20219"
       height="30.236217"
       x="305.59012"
       y="22.676687" /><a
       id="a60"
       xlink:href="/lines/m07"
       target="_parent"
       transform="translate(34.015991,-458.26815)"><g
         id="g59"
         transform="matrix(0.07332416,0,0,0.07335,204.09446,485.66923)">
	<defs
   id="defs56">
		<rect
   id="rect56"
   width="283.5"
   height="283.5"
   x="0"
   y="0" />
	</defs>
	<clipPath
   id="clipPath56">
		<use
   xlink:href="#SVGID_1_-6"
   style="overflow:visible"
   id="use56" />
	</clipPath>
	<path
   style="fill:#ff82b4"
   d="M 0,141.7 C 0,63.5 63.5,0 141.7,0 220,0 283.5,63.5 283.5,141.7 283.5,220 220.1,283.4 141.8,283.4 63.5,283.5 0,220 0,141.7"
   clip-path="url(#SVGID_00000068661809906068489540000009586368646322554296_)"
   id="path58" />
	<path
   d="M 196.2,91.2 V 66.8 H 91 v 25.1 h 73 L 127.4,160 c -13.2,24.5 -18.5,37.2 -18.5,57 h 34.3 c 0,-23.6 20,-68.5 53,-125.8"
   clip-path="url(#SVGID_00000068661809906068489540000009586368646322554296_)"
   id="path59" />
</g></a><g
       id="g61"
       transform="matrix(0.07333451,0,0,0.07333451,213.54353,27.401084)"><path
         d="M 141.73,0 C 63.45,0 0,63.46 0,141.73 0,220 63.45,283.46 141.73,283.46 220.01,283.46 283.46,220 283.46,141.73 283.46,63.46 220.01,0 141.73,0 m 0,265.04 c -68.1,0 -123.31,-55.21 -123.31,-123.31 0,-68.1 55.21,-123.3 123.31,-123.3 68.1,0 123.3,55.2 123.3,123.3 0,68.1 -55.2,123.31 -123.3,123.31 m 70.51,-59.89 c 0,6.74 -5.32,10.63 -11.69,10.63 -5.68,0 -12.05,-3.89 -12.05,-10.63 v -92.12 h -0.35 l -35.08,71.57 c -2.48,4.96 -5.66,7.79 -11.34,7.79 -5.68,0 -8.86,-2.84 -11.34,-7.79 L 95.31,113.03 h -0.35 v 92.13 c 0,6.74 -6.38,10.63 -12.05,10.63 -6.38,0 -11.69,-3.89 -11.69,-10.63 V 81.5 c 0,-7.09 3.9,-14.53 15.59,-14.53 8.86,0 12.4,3.9 16.3,11.69 l 38.62,79.72 h 0.35 l 38.27,-79.72 c 3.89,-7.79 7.44,-11.69 16.29,-11.69 11.69,0 15.59,7.44 15.59,14.53 v 123.66"
         id="path60" /><path
         d="M 141.73,0 C 63.45,0 0,63.46 0,141.73 0,220 63.45,283.46 141.73,283.46 220.01,283.46 283.46,220 283.46,141.73 283.46,63.46 220.01,0 141.73,0 m 0,265.04 c -68.1,0 -123.31,-55.21 -123.31,-123.31 0,-68.1 55.21,-123.3 123.31,-123.3 68.1,0 123.3,55.2 123.3,123.3 0,68.1 -55.2,123.31 -123.3,123.31 m 70.51,-59.89 c 0,6.74 -5.32,10.63 -11.69,10.63 -5.68,0 -12.05,-3.89 -12.05,-10.63 v -92.12 h -0.35 l -35.08,71.57 c -2.48,4.96 -5.66,7.79 -11.34,7.79 -5.68,0 -8.86,-2.84 -11.34,-7.79 L 95.31,113.03 h -0.35 v 92.13 c 0,6.74 -6.38,10.63 -12.05,10.63 -6.38,0 -11.69,-3.89 -11.69,-10.63 V 81.5 c 0,-7.09 3.9,-14.53 15.59,-14.53 8.86,0 12.4,3.9 16.3,11.69 l 38.62,79.72 h 0.35 l 38.27,-79.72 c 3.89,-7.79 7.44,-11.69 16.29,-11.69 11.69,0 15.59,7.44 15.59,14.53 v 123.66"
         id="path61" /></g><a
       id="a66"
       xlink:href="/lines/m02"
       target="_parent"
       transform="translate(34.015985,-183.30707)"><g
         id="g66"
         transform="matrix(0.07332416,0,0,0.07332416,179.52754,258.8976)">
	<path
   class="st0"
   d="M 0,141.7 C 0,63.5 63.5,0 141.7,0 220,0 283.5,63.5 283.5,141.7 283.5,219.9 220,283.5 141.7,283.5 63.5,283.5 0,220 0,141.7"
   id="path65"
   clip-path="url(#SVGID_00000145737393370230384210000000292656057530498699_)"
   style="fill:#0055c8;fill-opacity:1" />
	<path
   class="st1"
   d="M 193.9,216.8 V 191.7 H 132 c 1.9,-8.7 17,-21.9 24.7,-28.9 18.1,-16.4 34.5,-28.5 34.5,-54.3 0,-30.6 -24.9,-46 -51.3,-46 -20.2,0 -33.6,6 -48.1,18.5 l 15.7,20.8 c 3.6,-4 12.8,-13.6 26,-13.6 16.4,0 24.9,10.9 24.9,23.8 0,14.5 -10.8,25.3 -20.8,34.1 -20,17.4 -37.2,33.4 -41.1,50.8 v 19.8 h 97.4 z"
   id="path66"
   clip-path="url(#SVGID_00000145737393370230384210000000292656057530498699_)"
   style="fill:#ffffff;fill-opacity:1" />
</g></a><g
       id="g68"
       transform="matrix(0.07333451,0,0,0.07333451,188.9766,75.590515)"><path
         d="M 141.73,0 C 63.45,0 0,63.46 0,141.73 0,220 63.45,283.46 141.73,283.46 220.01,283.46 283.46,220 283.46,141.73 283.46,63.46 220.01,0 141.73,0 m 0,265.04 c -68.1,0 -123.31,-55.21 -123.31,-123.31 0,-68.1 55.21,-123.3 123.31,-123.3 68.1,0 123.3,55.2 123.3,123.3 0,68.1 -55.2,123.31 -123.3,123.31 m 70.51,-59.89 c 0,6.74 -5.32,10.63 -11.69,10.63 -5.68,0 -12.05,-3.89 -12.05,-10.63 v -92.12 h -0.35 l -35.08,71.57 c -2.48,4.96 -5.66,7.79 -11.34,7.79 -5.68,0 -8.86,-2.84 -11.34,-7.79 L 95.31,113.03 h -0.35 v 92.13 c 0,6.74 -6.38,10.63 -12.05,10.63 -6.38,0 -11.69,-3.89 -11.69,-10.63 V 81.5 c 0,-7.09 3.9,-14.53 15.59,-14.53 8.86,0 12.4,3.9 16.3,11.69 l 38.62,79.72 h 0.35 l 38.27,-79.72 c 3.89,-7.79 7.44,-11.69 16.29,-11.69 11.69,0 15.59,7.44 15.59,14.53 v 123.66"
         id="path67" /><path
         d="M 141.73,0 C 63.45,0 0,63.46 0,141.73 0,220 63.45,283.46 141.73,283.46 220.01,283.46 283.46,220 283.46,141.73 283.46,63.46 220.01,0 141.73,0 m 0,265.04 c -68.1,0 -123.31,-55.21 -123.31,-123.31 0,-68.1 55.21,-123.3 123.31,-123.3 68.1,0 123.3,55.2 123.3,123.3 0,68.1 -55.2,123.31 -123.3,123.31 m 70.51,-59.89 c 0,6.74 -5.32,10.63 -11.69,10.63 -5.68,0 -12.05,-3.89 -12.05,-10.63 v -92.12 h -0.35 l -35.08,71.57 c -2.48,4.96 -5.66,7.79 -11.34,7.79 -5.68,0 -8.86,-2.84 -11.34,-7.79 L 95.31,113.03 h -0.35 v 92.13 c 0,6.74 -6.38,10.63 -12.05,10.63 -6.38,0 -11.69,-3.89 -11.69,-10.63 V 81.5 c 0,-7.09 3.9,-14.53 15.59,-14.53 8.86,0 12.4,3.9 16.3,11.69 l 38.62,79.72 h 0.35 l 38.27,-79.72 c 3.89,-7.79 7.44,-11.69 16.29,-11.69 11.69,0 15.59,7.44 15.59,14.53 v 123.66"
         id="path68" /></g><a
       id="a72"
       xlink:href="/lines/m05"
       target="_parent"
       transform="translate(58.582911,-599.05502)"><g
         id="g72"
         transform="matrix(0.07332416,0,0,0.07332416,179.52754,674.64554)">
	<defs
   id="defs68">
		<rect
   id="rect68"
   width="283.5"
   height="283.5"
   x="0"
   y="0" />
	</defs>
	<clipPath
   id="clipPath68">
		<use
   xlink:href="#SVGID_1_-49"
   style="overflow:visible"
   id="use68" />
	</clipPath>
	<path
   style="fill:#ff5a00"
   d="M 0,141.7 C 0,63.5 63.5,0 141.7,0 220,0 283.5,63.5 283.5,141.7 283.5,219.9 220,283.5 141.7,283.5 63.5,283.5 0,220 0,141.7"
   clip-path="url(#SVGID_00000090272025682513365470000006533262832655656088_)"
   id="path71" />
	<path
   d="m 192.7,168.3 c 0,-22.6 -16.6,-45.7 -57.7,-47.7 -1.5,0 -3.4,-0.2 -4.3,-0.2 l 2.1,-28.5 h 54.1 V 66.8 H 108 l -6,78.1 c 4.9,0 14.9,0.2 23.4,0.2 27.7,0.4 34.9,15.3 34.9,26.2 0,17.7 -14.7,24.7 -26.4,24.7 -11.7,0 -20.2,-3.8 -28.5,-9.6 l -12.1,23.4 c 11.5,7 24.9,10.9 42.3,10.9 34.3,-0.1 57.1,-23.7 57.1,-52.4"
   clip-path="url(#SVGID_00000090272025682513365470000006533262832655656088_)"
   id="path72" />
</g></a><a
       id="a62"
       xlink:href="/stations.html?station=Jaures"
       target="_parent"
       transform="translate(-4.0536565e-7,-129.92127)"><g
         id="g62"
         transform="translate(7.1579308e-6,-37.795279)"><circle
           style="fill:#000000;fill-opacity:1;stroke:none;stroke-width:3.13973"
           id="circle61"
           cx="283.46414"
           cy="253.70078"
           r="10.3937" /><circle
           style="fill:#ffffff;fill-opacity:1;stroke:none;stroke-width:2.28344"
           id="circle62"
           cx="283.46414"
           cy="253.70078"
           r="7.5590544" /></g></a><a
       id="a76"
       xlink:href="/stations.html?station=Bolivar"
       target="_parent"
       transform="translate(33.46418,5.6692567)"
       style="fill:#82dc73;fill-opacity:1"><circle
         style="fill:#82dc73;fill-opacity:1;stroke:none;stroke-width:3.13973"
         id="circle75"
         cx="249.99997"
         cy="118.11024"
         r="10.3937" /></a><a
       id="a77"
       xlink:href="/stations.html?station=Buttes+Chaumont"
       target="_parent"
       transform="translate(33.46418,43.464528)"
       style="fill:#82dc73;fill-opacity:1"><circle
         style="fill:#82dc73;fill-opacity:1;stroke:none;stroke-width:3.13973"
         id="circle76"
         cx="249.99997"
         cy="118.11024"
         r="10.3937" /></a><a
       id="a78"
       xlink:href="/stations.html?station=Botzaris"
       target="_parent"
       transform="translate(33.46418,81.259795)"
       style="fill:#82dc73;fill-opacity:1"><circle
         style="fill:#82dc73;fill-opacity:1;stroke:none;stroke-width:3.13973"
         id="circle77"
         cx="249.99997"
         cy="118.11024"
         r="10.3937" /></a><a
       id="a26689"
       xlink:href="/stations.html?station=Louis+Blanc"
       target="_parent"
       transform="translate(0,-56.000475)"><g
         id="g26677"><g
           id="g222"
           transform="translate(33.46418,55.999994)"><circle
             style="fill:#000000;stroke-width:0.332857"
             id="circle222"
             cx="249.99997"
             cy="37.795273"
             r="15.118109" /></g><g
           id="g26451"
           transform="matrix(0.07332416,0,0,0.07332416,273.07045,83.401567)">
	<defs
   id="defs26442">
		<rect
   id="rect26648"
   width="283.5"
   height="283.5"
   x="0"
   y="0" />
	</defs>
	<clipPath
   id="clipPath26593">
		<use
   xlink:href="#SVGID_1_-75"
   style="overflow:visible"
   id="use26591" />
	</clipPath>
	<path
   style="fill:#82dc73"
   d="M 0,141.7 C 0,63.5 63.5,0 141.7,0 220,0 283.5,63.5 283.5,141.7 283.5,219.9 220,283.5 141.7,283.5 63.5,283.5 0,220 0,141.7"
   clip-path="url(#SVGID_00000107573272734804361250000013699652756899299742_-6)"
   id="path26447" />
	<path
   d="m 150.8,91.1 c -33,57.2 -53,102.1 -53,125.7 H 63.5 c 0,-19.8 5.3,-32.5 18.5,-57 l 36.6,-68.1 h -73 V 66.6 h 105.1 v 24.5 m 43.3,72.3 c 0,9.8 -5.1,23.6 -19,23.6 -3.3,0 -7.1,-1.3 -9.3,-3.3 v 2 h -11.1 v -60.2 h 11.5 V 148 c 2.9,-4.2 6.3,-7.1 11.8,-7.1 11.4,-0.1 16.1,12 16.1,22.5 m -11.9,1.7 c 0,-5.9 -1.4,-14.4 -8.6,-14.4 -2.3,0 -4.1,1 -5.3,2.2 -1.9,1.9 -2.2,3.1 -2.2,5.6 v 14.7 c 0,3 1.8,5.7 7,5.7 7.3,0 9.1,-7.9 9.1,-13.8 m 33.3,-34.5 c 0,3.5 -2.4,6 -6.4,6 -3.9,0 -6.4,-2.5 -6.4,-6 0,-3.5 2.5,-6 6.4,-6 4,0 6.4,2.5 6.4,6 m -0.7,55 h -11.4 v -43.4 h 11.4 z m 40.7,-13 c 0,-7.2 -4.4,-10.6 -10.6,-12.9 l -3.8,-1.4 c -2.1,-0.7 -5.1,-2 -5.1,-4.6 0,-2 1.4,-4.3 6,-4.3 2.8,0 6.3,1 8.8,2.6 l 3.5,-8.4 c -2.3,-1.1 -6.3,-2.8 -11.7,-2.8 -10.2,0 -17.1,6.5 -17.1,14.7 0,6.4 3.8,9.7 9.4,11.9 l 3.6,1.4 c 2.4,0.9 6.4,2 6.4,5.3 0,3.4 -3.7,4.5 -6.7,4.5 -3.4,0 -7.4,-1.3 -10.2,-3.3 l -3.5,8.4 c 2.4,1.5 7.3,3.3 12.8,3.3 11.3,0 18.2,-6 18.2,-14.4"
   clip-path="url(#SVGID_00000107573272734804361250000013699652756899299742_-6)"
   id="path26449" />
</g></g></a><path
       style="display:inline;fill:none;fill-opacity:1;stroke:#82dc73;stroke-width:9.44882;stroke-dasharray:none;stroke-dashoffset:0;stroke-opacity:1"
       d="m 283.06533,381.43323 c 90.58957,0 101.11282,4.8643 101.32791,-33.10005 l 0.12975,-22.90154"
       id="path11617"
       sodipodi:nodetypes="csc" /><path
       style="display:inline;fill:none;fill-opacity:1;stroke:#82dc73;stroke-width:9.44882;stroke-dasharray:none;stroke-dashoffset:0;stroke-opacity:1"
       d="m 283.86506,381.43323 c -90.58957,0 -101.11282,4.8643 -101.32791,-33.10005 l -0.12975,-22.90154"
       id="path133"
       sodipodi:nodetypes="csc" /><path
       style="display:inline;fill:none;fill-opacity:1;stroke:#82dc73;stroke-width:9.44882;stroke-dasharray:none;stroke-dashoffset:0;stroke-opacity:1"
       d="m 283.46557,213.90147 c 0,0 0.15065,24.79236 -5.8179,36.40203 -16.88116,32.83629 -94.79636,15.92376 -95.11052,57.0865 l -0.12975,16.98697"
       id="path5483"
       sodipodi:nodetypes="cssc" /><a
       id="a1615"
       xlink:href="/stations.html?station=Danube"
       target="_parent"><circle
         style="display:inline;fill:#82dc73;fill-opacity:1;stroke:none;stroke-width:3.13973"
         id="circle78"
         cx="384.56689"
         cy="326.26794"
         r="10.3937" /></a><a
       id="a16256"
       xlink:href="/lines/m11"
       target="_parent"><g
         id="g114"
         transform="matrix(0.07332416,0,0,0.07332416,231.49603,315.87423)"
         style="display:inline">
	<path
   class="st0"
   d="M 0,141.7 C 0,63.5 63.4,0 141.7,0 220,0 283.5,63.5 283.5,141.7 283.5,219.9 220,283.5 141.7,283.5 63.4,283.5 0,220 0,141.7"
   id="path86"
   clip-path="url(#SVGID_00000145737393370230384210000000292656057530498699_)"
   style="fill:#6e491e;fill-opacity:1" />
	<path
   class="st1"
   d="m 89.9,216.6 v -118 c -9.2,7.2 -23.6,13.8 -33.6,18.7 L 46.1,94.3 C 61.9,87.7 80.8,77.7 95.7,66.4 h 26.2 v 150.2 z m 125.5,0 V 66.4 h -26.2 c -14.9,11.3 -33.8,21.3 -49.6,27.9 l 10.2,23 c 10,-4.9 24.5,-11.5 33.6,-18.7 v 118.1 h 32 z"
   id="path113"
   clip-path="url(#SVGID_00000145737393370230384210000000292656057530498699_)"
   style="clip-rule:evenodd;fill:#ffffff;fill-opacity:1;fill-rule:evenodd" />
</g></a><path
       d="m 217.32281,315.87423 c -5.74063,0 -10.3937,4.65381 -10.3937,10.3937 0,5.73989 4.65307,10.3937 10.3937,10.3937 5.74063,0 10.3937,-4.65381 10.3937,-10.3937 0,-5.73989 -4.65307,-10.3937 -10.3937,-10.3937 m 0,19.43658 c -4.99408,0 -9.04288,-4.0488 -9.04288,-9.04288 0,-4.99408 4.0488,-9.04214 9.04288,-9.04214 4.99408,0 9.04215,4.04806 9.04215,9.04214 0,4.99408 -4.04807,9.04288 -9.04215,9.04288 m 5.17082,-4.39201 c 0,0.49428 -0.39014,0.77955 -0.85728,0.77955 -0.41654,0 -0.88368,-0.28527 -0.88368,-0.77955 v -6.75557 h -0.0257 l -2.57258,5.24855 c -0.18187,0.36374 -0.41507,0.57128 -0.83161,0.57128 -0.41654,0 -0.64974,-0.20827 -0.83161,-0.57128 l -2.57258,-5.24855 h -0.0257 v 6.75631 c 0,0.49427 -0.46788,0.77954 -0.88369,0.77954 -0.46787,0 -0.85728,-0.28527 -0.85728,-0.77954 v -9.06855 c 0,-0.51994 0.28601,-1.06555 1.14329,-1.06555 0.64974,0 0.90935,0.28601 1.19535,0.85728 l 2.83218,5.84623 h 0.0257 l 2.80651,-5.84623 c 0.28527,-0.57127 0.54561,-0.85728 1.19462,-0.85728 0.85728,0 1.14328,0.54561 1.14328,1.06555 v 9.06855"
       id="path114"
       style="display:inline;stroke-width:0.0733345" /><path
       d="m 217.32281,315.87423 c -5.74063,0 -10.3937,4.65381 -10.3937,10.3937 0,5.73989 4.65307,10.3937 10.3937,10.3937 5.74063,0 10.3937,-4.65381 10.3937,-10.3937 0,-5.73989 -4.65307,-10.3937 -10.3937,-10.3937 m 0,19.43658 c -4.99408,0 -9.04288,-4.0488 -9.04288,-9.04288 0,-4.99408 4.0488,-9.04214 9.04288,-9.04214 4.99408,0 9.04215,4.04806 9.04215,9.04214 0,4.99408 -4.04807,9.04288 -9.04215,9.04288 m 5.17082,-4.39201 c 0,0.49428 -0.39014,0.77955 -0.85728,0.77955 -0.41654,0 -0.88368,-0.28527 -0.88368,-0.77955 v -6.75557 h -0.0257 l -2.57258,5.24855 c -0.18187,0.36374 -0.41507,0.57128 -0.83161,0.57128 -0.41654,0 -0.64974,-0.20827 -0.83161,-0.57128 l -2.57258,-5.24855 h -0.0257 v 6.75631 c 0,0.49427 -0.46788,0.77954 -0.88369,0.77954 -0.46787,0 -0.85728,-0.28527 -0.85728,-0.77954 v -9.06855 c 0,-0.51994 0.28601,-1.06555 1.14329,-1.06555 0.64974,0 0.90935,0.28601 1.19535,0.85728 l 2.83218,5.84623 h 0.0257 l 2.80651,-5.84623 c 0.28527,-0.57127 0.54561,-0.85728 1.19462,-0.85728 0.85728,0 1.14328,0.54561 1.14328,1.06555 v 9.06855"
       id="path115"
       style="display:inline;stroke-width:0.0733345" /><path
       style="display:inline;fill:#25303b;stroke:#25303b;stroke-width:1.88976;stroke-linecap:round;stroke-dasharray:none;stroke-dashoffset:0;stroke-opacity:1"
       d="m 195.20078,326.26793 h 9.48359"
       id="path15695" /><a
       id="a1612"
       xlink:href="/stations.html?station=Place+des+Fetes"
       target="_parent"><g
         id="g86"
         transform="translate(-101.10196,72.567155)"
         style="display:inline"><circle
           style="fill:#000000;fill-opacity:1;stroke:none;stroke-width:3.13973"
           id="circle82"
           cx="283.46414"
           cy="253.70078"
           r="10.3937" /><circle
           style="fill:#ffffff;fill-opacity:1;stroke:none;stroke-width:2.28344"
           id="circle85"
           cx="283.46414"
           cy="253.70078"
           r="7.5590544" /></g></a><path
       sodipodi:type="star"
       style="display:inline;fill:#82dc73;fill-opacity:1;stroke-width:1.88976;stroke-linecap:butt;stroke-dasharray:none"
       id="path31633"
       inkscape:flatsided="true"
       sodipodi:sides="3"
       sodipodi:cx="167.8801"
       sodipodi:cy="306.39206"
       sodipodi:r1="15.369431"
       sodipodi:r2="7.6847157"
       sodipodi:arg1="-1.0764733"
       sodipodi:arg2="-0.029275726"
       inkscape:rounded="0"
       inkscape:randomized="0"
       d="m 175.1719,292.8625 0.77923,26.60923 -23.43388,-12.62978 z"
       transform="rotate(-132.30007,194.5499,274.24414)"
       inkscape:transform-center-x="2.1210873"
       inkscape:transform-center-y="-1.8562093" /><path
       sodipodi:type="star"
       style="display:inline;fill:#82dc73;fill-opacity:1;stroke-width:1.88976;stroke-linecap:butt;stroke-dasharray:none"
       id="path31635"
       inkscape:flatsided="true"
       sodipodi:sides="3"
       sodipodi:cx="167.8801"
       sodipodi:cy="306.39206"
       sodipodi:r1="15.369431"
       sodipodi:r2="7.6847157"
       sodipodi:arg1="-1.0764733"
       sodipodi:arg2="-0.029275726"
       inkscape:rounded="0"
       inkscape:randomized="0"
       d="m 175.1719,292.8625 0.77923,26.60923 -23.43388,-12.62978 z"
       transform="rotate(-58.859173,318.67568,193.02931)"
       inkscape:transform-center-x="-3.7799143"
       inkscape:transform-center-y="0.07196482" /><path
       d="m 293.18244,332.20045 h -19.43658 c -0.37327,0 -0.67541,-0.30214 -0.67541,-0.67541 0,-0.37327 0.30214,-0.67541 0.67541,-0.67541 h 19.43658 c 0.37327,0 0.67541,0.30214 0.67541,0.67541 0,0.37327 -0.30214,0.67541 -0.67541,0.67541 m 0.67541,18.76117 v 0 c 0,-0.37327 -0.30214,-0.67614 -0.67541,-0.67614 h -19.43658 c -0.37327,0 -0.67541,0.30287 -0.67541,0.67614 0,0.37327 0.30214,0.67541 0.67541,0.67541 h 19.43658 c 0.37327,0 0.67541,-0.30214 0.67541,-0.67541 m -2.37017,-2.81678 c 0.1606,0 0.29114,-0.13053 0.29114,-0.29114 v -0.29114 c 0,-0.1606 -0.13054,-0.2904 -0.29114,-0.2904 h -16.3382 v 0.87341 h 16.3382 m -16.3382,-4.77187 h 3.02505 c 0.0799,0 0.1452,-0.0653 0.1452,-0.1452 v -4.0224 c 0,-0.0799 -0.0653,-0.1452 -0.1452,-0.1452 h -3.02505 v -0.93575 h 4.72055 l 1.85023,-1.52096 -2.32764,-1.91257 c -0.10047,-0.0821 -0.11514,-0.231 -0.0323,-0.33147 l 0.1496,-0.1826 c 0.0829,-0.10047 0.23101,-0.1144 0.33148,-0.0323 l 2.6503,2.1773 c 0.17674,0.14521 0.17747,0.41654 0,0.56175 l -1.50922,1.24008 h 7.18898 c 0.57054,0 1.11322,0.24127 1.49823,0.66221 1.13301,1.23862 1.85316,2.76985 2.08343,4.42868 0.0733,0.52727 -0.007,1.04941 -0.23174,1.50775 -0.51994,1.05895 -1.57449,1.71676 -2.75371,1.71676 h -13.61822 z m 13.82209,-3.96447 c -0.20533,-0.22367 -0.49647,-0.34833 -0.80008,-0.34833 h -2.53517 c -0.0799,0 -0.1452,0.0653 -0.1452,0.1452 v 4.0224 c 0,0.0799 0.0653,0.1452 0.1452,0.1452 h 4.3348 c 0.50894,0 0.81181,-0.40041 0.68275,-0.89248 -0.30068,-1.14109 -0.87342,-2.19051 -1.6823,-3.07199 m -4.5614,6.09557 c 0.0799,0 0.1452,-0.0653 0.1452,-0.1452 v -6.1535 c 0,-0.0799 -0.0653,-0.1452 -0.1452,-0.1452 h -1.8913 c -0.0807,0 -0.14594,0.0653 -0.14594,0.1452 v 6.1535 c 0,0.0799 0.0653,0.1452 0.14594,0.1452 h 1.8913 m -5.00949,-6.4439 c -0.0799,0 -0.1452,0.0653 -0.1452,0.1452 v 6.1535 c 0,0.0799 0.0653,0.1452 0.1452,0.1452 h 1.8913 c 0.0807,0 0.14594,-0.0653 0.14594,-0.1452 v -6.1535 c 0,-0.0799 -0.0653,-0.1452 -0.14594,-0.1452 h -1.8913"
       id="path29664"
       style="display:inline;stroke-width:0.0733345" /><rect
       style="fill:#25303b;fill-opacity:1;stroke-width:0.192317"
       id="rect28131"
       width="183.35242"
       height="30.236217"
       x="191.78795"
       y="402.67664" /><a
       id="a1627"
       xlink:href="/stations.html?stop=Pre-Saint-Gervais"
       target="_parent"><g
         id="g28173"
         transform="translate(2.2233709e-7,287.54292)"
         style="display:inline"><g
           id="g28157"
           transform="translate(33.46418,55.999994)"><circle
             style="fill:#000000;stroke-width:0.332857"
             id="circle28155"
             cx="249.99997"
             cy="37.795273"
             r="15.118109" /></g><g
           id="g28171"
           transform="matrix(0.07332416,0,0,0.07332416,273.07045,83.401567)">
	<defs
   id="defs28161">
		<rect
   id="rect16126"
   width="283.5"
   height="283.5"
   x="0"
   y="0" />
	</defs>
	<clipPath
   id="clipPath28165">
		<use
   xlink:href="#SVGID_1_-75"
   style="overflow:visible"
   id="use28163" />
	</clipPath>
	<path
   style="fill:#82dc73"
   d="M 0,141.7 C 0,63.5 63.5,0 141.7,0 220,0 283.5,63.5 283.5,141.7 283.5,219.9 220,283.5 141.7,283.5 63.5,283.5 0,220 0,141.7"
   clip-path="url(#SVGID_00000107573272734804361250000013699652756899299742_-6-3)"
   id="path28167" />
	<path
   d="m 150.8,91.1 c -33,57.2 -53,102.1 -53,125.7 H 63.5 c 0,-19.8 5.3,-32.5 18.5,-57 l 36.6,-68.1 h -73 V 66.6 h 105.1 v 24.5 m 43.3,72.3 c 0,9.8 -5.1,23.6 -19,23.6 -3.3,0 -7.1,-1.3 -9.3,-3.3 v 2 h -11.1 v -60.2 h 11.5 V 148 c 2.9,-4.2 6.3,-7.1 11.8,-7.1 11.4,-0.1 16.1,12 16.1,22.5 m -11.9,1.7 c 0,-5.9 -1.4,-14.4 -8.6,-14.4 -2.3,0 -4.1,1 -5.3,2.2 -1.9,1.9 -2.2,3.1 -2.2,5.6 v 14.7 c 0,3 1.8,5.7 7,5.7 7.3,0 9.1,-7.9 9.1,-13.8 m 33.3,-34.5 c 0,3.5 -2.4,6 -6.4,6 -3.9,0 -6.4,-2.5 -6.4,-6 0,-3.5 2.5,-6 6.4,-6 4,0 6.4,2.5 6.4,6 m -0.7,55 h -11.4 v -43.4 h 11.4 z m 40.7,-13 c 0,-7.2 -4.4,-10.6 -10.6,-12.9 l -3.8,-1.4 c -2.1,-0.7 -5.1,-2 -5.1,-4.6 0,-2 1.4,-4.3 6,-4.3 2.8,0 6.3,1 8.8,2.6 l 3.5,-8.4 c -2.3,-1.1 -6.3,-2.8 -11.7,-2.8 -10.2,0 -17.1,6.5 -17.1,14.7 0,6.4 3.8,9.7 9.4,11.9 l 3.6,1.4 c 2.4,0.9 6.4,2 6.4,5.3 0,3.4 -3.7,4.5 -6.7,4.5 -3.4,0 -7.4,-1.3 -10.2,-3.3 l -3.5,8.4 c 2.4,1.5 7.3,3.3 12.8,3.3 11.3,0 18.2,-6 18.2,-14.4"
   clip-path="url(#SVGID_00000107573272734804361250000013699652756899299742_-6-3)"
   id="path28169" />
</g></g></a><path
       style="display:inline;fill:#25303b;stroke:#25303b;stroke-width:1.88976;stroke-linecap:round;stroke-dasharray:none;stroke-dashoffset:0;stroke-opacity:1"
       d="m 283.46415,354.44404 v 9.48359"
       id="path12957" /><path
       style="display:inline;fill:none;fill-opacity:1;stroke:#82dc73;stroke-width:9.44882;stroke-dasharray:none;stroke-dashoffset:0;stroke-opacity:1"
       d="m 283.46485,213.90147 c 0,0 -0.15065,24.79236 5.8179,36.40203 16.88116,32.83629 94.79636,15.92376 95.11052,57.0865 l 0.12975,16.98697"
       id="path13955"
       sodipodi:nodetypes="cssc" /><g
       aria-label="Louis Blanc"
       id="text168052"
       style="font-weight:bold;font-size:21.3333px;font-family:'Parisine Std';-inkscape-font-specification:'Parisine Std Bold';letter-spacing:0px;display:inline;fill:#ffffff;stroke-width:9.44882"><path
         d="m 322.57925,45.592117 v -2.709329 h -6.10132 v -12.35198 h -3.328 v 15.061309 z"
         id="path2809" /><path
         d="m 334.63258,39.91746 c 0,-3.242662 -1.664,-6.122657 -5.39732,-6.122657 -3.69066,0 -5.504,2.858662 -5.504,6.07999 0,3.242662 1.664,6.122657 5.39733,6.122657 3.69066,0 5.50399,-2.858662 5.50399,-6.07999 z m -3.11466,0.02133 c 0,1.599997 -0.49067,3.711994 -2.38933,3.711994 -1.89866,0 -2.28266,-2.19733 -2.28266,-3.797327 0,-1.599998 0.49066,-3.711994 2.38933,-3.711994 1.89866,0 2.28266,2.197329 2.28266,3.797327 z"
         id="path2811" /><path
         d="M 346.21657,45.592117 V 34.200135 h -2.98666 v 7.018656 c 0,0.767999 -0.0427,1.066665 -0.55466,1.621331 -0.27734,0.298666 -0.74667,0.533332 -1.30134,0.533332 -1.13066,0 -1.57866,-0.810665 -1.57866,-1.962663 v -7.210656 h -2.98666 v 7.829321 c 0,2.218663 1.024,3.925327 3.47733,3.925327 1.42933,0 2.38933,-0.682665 3.15732,-1.770663 v 1.407997 z"
         id="path2813" /><path
         d="m 352.63788,31.170807 c 0,-0.917332 -0.64,-1.578664 -1.664,-1.578664 -1.02399,0 -1.68533,0.661332 -1.68533,1.578664 0,0.917332 0.66134,1.578664 1.68533,1.578664 1.024,0 1.664,-0.661332 1.664,-1.578664 z m -0.192,14.42131 V 34.200135 h -2.98666 v 11.391982 z"
         id="path2815" /><path
         d="m 363.11252,42.178789 c 0,-1.898663 -1.15199,-2.773329 -2.77333,-3.370661 l -1.00266,-0.362666 c -0.78933,-0.277333 -1.344,-0.618666 -1.344,-1.215998 0,-0.511999 0.36267,-1.130665 1.57867,-1.130665 0.72533,0 1.64266,0.256 2.30399,0.682666 l 0.91733,-2.19733 c -0.59733,-0.298666 -1.64266,-0.746666 -3.07199,-0.746666 -2.66666,0 -4.47999,1.706664 -4.47999,3.861327 0,1.663998 0.98133,2.538663 2.45333,3.114662 l 0.93866,0.362666 c 1.06667,0.405333 1.68533,0.639999 1.68533,1.386665 0,0.895998 -0.96,1.173331 -1.74933,1.173331 -0.896,0 -1.94133,-0.341333 -2.66666,-0.853332 l -0.91733,2.19733 c 0.64,0.384 1.91999,0.874665 3.34932,0.874665 2.98667,0 4.77866,-1.55733 4.77866,-3.775994 z"
         id="path2817" /><path
         d="m 383.31517,40.920125 c 0,-2.13333 -1.32267,-3.370662 -2.90133,-3.583995 v -0.04267 c 1.17333,-0.213333 2.41066,-1.386665 2.41066,-2.943996 0,-3.050661 -2.64533,-3.81866 -5.46132,-3.81866 h -5.71733 v 15.061309 h 5.48266 c 2.85866,0 6.18666,-0.874665 6.18666,-4.671992 z m -3.75466,-6.122657 c 0,1.429331 -1.152,1.706664 -2.90133,1.706664 h -1.68533 v -3.455995 h 1.64266 c 1.92,0 2.944,0.362666 2.944,1.749331 z m 0.32,6.037323 c 0,1.599998 -0.832,2.26133 -2.944,2.26133 h -1.96266 v -4.20266 h 1.792 c 1.51466,0 3.11466,0.277333 3.11466,1.94133 z"
         id="path2819" /><path
         d="M 388.69118,45.592117 V 29.805476 h -2.98666 v 15.786641 z"
         id="path2821" /><path
         d="m 401.25651,45.528117 -0.17067,-1.94133 c -0.128,0.04267 -0.36267,0.106667 -0.49067,0.106667 -0.36266,0 -0.40533,-0.341333 -0.40533,-0.746666 v -5.247992 c 0,-3.285328 -2.58133,-3.861327 -4.18133,-3.861327 -1.96266,0 -3.34932,0.362666 -4.60799,1.173332 l 1.04533,2.13333 c 0.49067,-0.426666 1.49333,-1.045332 2.816,-1.045332 1.57866,0 2.09066,0.767999 2.09066,1.578664 v 0.746666 c 0,0.383999 -0.27733,0.405332 -0.74666,0.405332 -2.51733,0 -5.75999,0.597333 -5.75999,3.690661 0,1.94133 1.36533,3.391995 3.37066,3.391995 1.55733,0 2.43199,-0.554666 3.37066,-1.663998 0.17066,0.895999 0.704,1.557331 1.77066,1.557331 0.704,0 1.45067,-0.170666 1.89867,-0.277333 z m -3.92533,-3.775994 c 0,0.554666 -0.14933,0.981332 -0.49067,1.343998 -0.384,0.405333 -0.93866,0.618666 -1.59999,0.618666 -0.832,0 -1.42934,-0.597332 -1.42934,-1.429331 0,-1.365331 1.57867,-1.621331 2.624,-1.621331 0.256,0 0.576,0 0.896,0.02133 z"
         id="path2823" /><path
         d="m 413.05382,45.592117 v -7.829321 c 0,-2.218663 -1.00267,-3.925327 -3.54133,-3.925327 -1.55733,0 -2.624,0.767999 -3.43466,1.983997 v -1.621331 h -2.77333 v 11.391982 h 2.98666 v -6.997322 c 0,-0.767999 0.0427,-1.045332 0.61867,-1.599997 0.32,-0.298667 0.85333,-0.554666 1.45066,-0.554666 1.30133,0 1.70666,0.789332 1.70666,1.94133 v 7.210655 z"
         id="path2825" /><path
         d="m 424.21113,45.016118 -0.85333,-2.218663 c -0.512,0.32 -1.38667,0.682666 -2.24,0.682666 -1.344,0 -2.752,-1.301332 -2.752,-3.498661 0,-2.005331 0.85334,-3.605328 2.58133,-3.605328 0.98134,0 1.83467,0.511999 2.21867,0.767999 l 1.06666,-2.495996 c -0.74666,-0.405333 -1.94133,-0.810666 -3.47733,-0.810666 -3.86132,0 -5.50399,3.093329 -5.50399,6.20799 0,3.327995 2.00533,5.909324 5.50399,5.909324 1.38667,0 2.85867,-0.490665 3.456,-0.938665 z"
         id="path2827" /></g><g
       aria-label="Jaurès"
       id="text4229"
       style="font-style:italic;font-weight:bold;font-size:16px;font-family:'Parisine Std';-inkscape-font-specification:'Parisine Std Bold Italic';display:inline;fill:#25303b;stroke-width:1.88976"><path
         d="m 310.5018,87.752211 v -7.28 h -2.496 v 7.072 c 0,1.728 -0.768,2.496 -2.096,2.496 -0.08,0 -0.176,-0.016 -0.256,-0.016 l -0.064,1.856 c 0.192,0.016 0.384,0.016 0.576,0.016 3.232,0 4.336,-2.08 4.336,-4.144 z"
         style="font-style:normal;-inkscape-font-specification:'Parisine Std Bold'"
         id="path2830" /><path
         d="m 319.94181,91.720211 -0.128,-1.456 c -0.096,0.032 -0.272,0.08 -0.368,0.08 -0.272,0 -0.304,-0.256 -0.304,-0.56 v -3.936 c 0,-2.464 -1.936,-2.896 -3.136,-2.896 -1.472,0 -2.512,0.272 -3.456,0.88 l 0.784,1.6 c 0.368,-0.32 1.12,-0.784 2.112,-0.784 1.184,0 1.568,0.576 1.568,1.184 v 0.56 c 0,0.288 -0.208,0.304 -0.56,0.304 -1.888,0 -4.32,0.448 -4.32,2.768 0,1.456 1.024,2.544 2.528,2.544 1.168,0 1.824,-0.416 2.528,-1.248 0.128,0.672 0.528,1.168 1.328,1.168 0.528,0 1.088,-0.128 1.424,-0.208 z m -2.944,-2.832 c 0,0.416 -0.112,0.736 -0.368,1.008 -0.288,0.304 -0.704,0.464 -1.2,0.464 -0.624,0 -1.072,-0.448 -1.072,-1.072 0,-1.024 1.184,-1.216 1.968,-1.216 0.192,0 0.432,0 0.672,0.016 z"
         style="font-style:normal;-inkscape-font-specification:'Parisine Std Bold'"
         id="path2832" /><path
         d="m 328.46981,91.768211 v -8.544 h -2.24 v 5.264 c 0,0.576 -0.032,0.8 -0.416,1.216 -0.208,0.224 -0.56,0.4 -0.976,0.4 -0.848,0 -1.184,-0.608 -1.184,-1.472 v -5.408 h -2.24 v 5.872 c 0,1.664 0.768,2.944 2.608,2.944 1.072,0 1.792,-0.512 2.368,-1.328 v 1.056 z"
         style="font-style:normal;-inkscape-font-specification:'Parisine Std Bold'"
         id="path2834" /><path
         d="m 335.7338,83.176211 c -0.176,-0.064 -0.496,-0.16 -0.816,-0.16 -1.056,0 -1.616,0.672 -2.128,1.488 v -1.28 h -2.016 c 0.016,0.4 0.08,1.424 0.08,2.16 v 6.384 h 2.24 v -5.152 c 0,-0.464 0.016,-0.816 0.32,-1.088 0.208,-0.192 0.464,-0.336 0.944,-0.336 0.304,0 0.624,0.144 0.784,0.224 z"
         style="font-style:normal;-inkscape-font-specification:'Parisine Std Bold'"
         id="path2836" /><path
         d="m 343.63779,86.952211 c 0,-1.968 -0.976,-4 -3.616,-4 -2.736,0 -3.952,2.352 -3.952,4.608 0,2.656 1.68,4.48 4.352,4.48 1.248,0 2.384,-0.368 3.04,-0.672 l -0.592,-1.664 c -0.448,0.24 -1.264,0.56 -2.032,0.56 -1.44,0 -2.544,-0.816 -2.544,-2.336 0,-0.016 0,-0.032 0,-0.048 h 5.296 c 0.032,-0.288 0.048,-0.656 0.048,-0.928 z m -2.112,-0.592 h -3.28 c 0,-0.752 0.4,-1.84 1.68,-1.84 1.136,0 1.68,0.944 1.6,1.84 z m -0.624,-3.952 -1.792,-2.48 h -2.56 l 2.624,2.48 z"
         style="font-style:normal;-inkscape-font-specification:'Parisine Std Bold'"
         id="path2838" /><path
         d="m 351.07779,89.208211 c 0,-1.424 -0.864,-2.08 -2.08,-2.528 l -0.752,-0.272 c -0.592,-0.208 -1.008,-0.464 -1.008,-0.912 0,-0.384 0.272,-0.848 1.184,-0.848 0.544,0 1.232,0.192 1.728,0.512 l 0.688,-1.648 c -0.448,-0.224 -1.232,-0.56 -2.304,-0.56 -2,0 -3.36,1.28 -3.36,2.896 0,1.248 0.736,1.904 1.84,2.336 l 0.704,0.272 c 0.8,0.304 1.264,0.48 1.264,1.04 0,0.672 -0.72,0.88 -1.312,0.88 -0.672,0 -1.456,-0.256 -2,-0.64 l -0.688,1.648 c 0.48,0.288 1.44,0.656 2.512,0.656 2.24,0 3.584,-1.168 3.584,-2.832 z"
         style="font-style:normal;-inkscape-font-specification:'Parisine Std Bold'"
         id="path2840" /></g><g
       id="text1856"
       style="font-weight:bold;font-size:16px;font-family:'Parisine Std';-inkscape-font-specification:'Parisine Std Bold';text-align:end;text-anchor:end;fill:#fffff9;stroke-width:9.44882" /><g
       aria-label="Bolivar"
       id="text1860"
       style="font-style:italic;font-weight:bold;font-size:16px;font-family:'Parisine Std';-inkscape-font-specification:'Parisine Std Bold Italic';display:inline;fill:#25303b;stroke-width:1.88976"><path
         d="m 314.34189,126.05949 c 0,-1.6 -0.992,-2.528 -2.176,-2.688 v -0.032 c 0.88,-0.16 1.808,-1.04 1.808,-2.208 0,-2.288 -1.984,-2.864 -4.096,-2.864 h -4.288 v 11.296 h 4.112 c 2.144,0 4.64,-0.656 4.64,-3.504 z m -2.816,-4.592 c 0,1.072 -0.864,1.28 -2.176,1.28 h -1.264 v -2.592 h 1.232 c 1.44,0 2.208,0.272 2.208,1.312 z m 0.24,4.528 c 0,1.2 -0.624,1.696 -2.208,1.696 h -1.472 v -3.152 h 1.344 c 1.136,0 2.336,0.208 2.336,1.456 z"
         style="font-style:normal;-inkscape-font-specification:'Parisine Std Bold'"
         id="path2844" /><path
         d="m 323.7019,125.30749 c 0,-2.432 -1.248,-4.592 -4.048,-4.592 -2.768,0 -4.128,2.144 -4.128,4.56 0,2.432 1.248,4.592 4.048,4.592 2.768,0 4.128,-2.144 4.128,-4.56 z m -2.336,0.016 c 0,1.2 -0.368,2.784 -1.792,2.784 -1.424,0 -1.712,-1.648 -1.712,-2.848 0,-1.2 0.368,-2.784 1.792,-2.784 1.424,0 1.712,1.648 1.712,2.848 z"
         style="font-style:normal;-inkscape-font-specification:'Parisine Std Bold'"
         id="path2846" /><path
         d="m 327.63791,129.56349 v -11.84 h -2.24 v 11.84 z"
         style="font-style:normal;-inkscape-font-specification:'Parisine Std Bold'"
         id="path2848" /><path
         d="m 332.43793,118.74749 c 0,-0.688 -0.48,-1.184 -1.248,-1.184 -0.768,0 -1.264,0.496 -1.264,1.184 0,0.688 0.496,1.184 1.264,1.184 0.768,0 1.248,-0.496 1.248,-1.184 z m -0.144,10.816 v -8.544 h -2.24 v 8.544 z"
         style="font-style:normal;-inkscape-font-specification:'Parisine Std Bold'"
         id="path2850" /><path
         d="m 341.60592,121.01949 h -2.112 l -1.184,4.528 c -0.176,0.672 -0.4,1.68 -0.464,2.048 h -0.032 c -0.08,-0.336 -0.272,-1.312 -0.448,-2.032 l -1.104,-4.544 h -2.48 l 2.752,8.544 h 2.32 z"
         style="font-style:normal;-inkscape-font-specification:'Parisine Std Bold'"
         id="path2852" /><path
         d="m 350.05393,129.51549 -0.128,-1.456 c -0.096,0.032 -0.272,0.08 -0.368,0.08 -0.272,0 -0.304,-0.256 -0.304,-0.56 v -3.936 c 0,-2.464 -1.936,-2.896 -3.136,-2.896 -1.472,0 -2.512,0.272 -3.456,0.88 l 0.784,1.6 c 0.368,-0.32 1.12,-0.784 2.112,-0.784 1.184,0 1.568,0.576 1.568,1.184 v 0.56 c 0,0.288 -0.208,0.304 -0.56,0.304 -1.888,0 -4.32,0.448 -4.32,2.768 0,1.456 1.024,2.544 2.528,2.544 1.168,0 1.824,-0.416 2.528,-1.248 0.128,0.672 0.528,1.168 1.328,1.168 0.528,0 1.088,-0.128 1.424,-0.208 z m -2.944,-2.832 c 0,0.416 -0.112,0.736 -0.368,1.008 -0.288,0.304 -0.704,0.464 -1.2,0.464 -0.624,0 -1.072,-0.448 -1.072,-1.072 0,-1.024 1.184,-1.216 1.968,-1.216 0.192,0 0.432,0 0.672,0.016 z"
         style="font-style:normal;-inkscape-font-specification:'Parisine Std Bold'"
         id="path2854" /><path
         d="m 356.54993,120.97149 c -0.176,-0.064 -0.496,-0.16 -0.816,-0.16 -1.056,0 -1.616,0.672 -2.128,1.488 v -1.28 h -2.016 c 0.016,0.4 0.08,1.424 0.08,2.16 v 6.384 h 2.24 v -5.152 c 0,-0.464 0.016,-0.816 0.32,-1.088 0.208,-0.192 0.464,-0.336 0.944,-0.336 0.304,0 0.624,0.144 0.784,0.224 z"
         style="font-style:normal;-inkscape-font-specification:'Parisine Std Bold'"
         id="path2856" /></g><g
       aria-label="Buttes Chaumont"
       id="text1864"
       style="font-weight:bold;font-size:16px;font-family:'Parisine Std';-inkscape-font-specification:'Parisine Std Bold';text-align:end;text-anchor:end;fill:#25303b;stroke-width:9.44882"><path
         d="m 314.34189,163.85476 c 0,-1.6 -0.992,-2.528 -2.176,-2.688 v -0.032 c 0.88,-0.16 1.808,-1.04 1.808,-2.208 0,-2.288 -1.984,-2.864 -4.096,-2.864 h -4.288 v 11.296 h 4.112 c 2.144,0 4.64,-0.656 4.64,-3.504 z m -2.816,-4.592 c 0,1.072 -0.864,1.28 -2.176,1.28 h -1.264 v -2.592 h 1.232 c 1.44,0 2.208,0.272 2.208,1.312 z m 0.24,4.528 c 0,1.2 -0.624,1.696 -2.208,1.696 h -1.472 v -3.152 h 1.344 c 1.136,0 2.336,0.208 2.336,1.456 z"
         style="text-align:start;text-anchor:start"
         id="path2859" /><path
         d="m 323.1259,167.35876 v -8.544 h -2.24 v 5.264 c 0,0.576 -0.032,0.8 -0.416,1.216 -0.208,0.224 -0.56,0.4 -0.976,0.4 -0.848,0 -1.184,-0.608 -1.184,-1.472 v -5.408 h -2.24 v 5.872 c 0,1.664 0.768,2.944 2.608,2.944 1.072,0 1.792,-0.512 2.368,-1.328 v 1.056 z"
         style="text-align:start;text-anchor:start"
         id="path2861" /><path
         d="m 330.27789,167.40676 -0.224,-1.648 c -0.192,0.064 -0.512,0.176 -0.976,0.176 -0.512,0 -0.976,-0.192 -0.976,-1.04 v -4.32 h 1.952 v -1.6 h -1.952 v -2.448 l -2.24,0.72 v 1.728 h -1.424 v 1.6 h 1.424 v 4.592 c 0,1.648 0.944,2.464 2.464,2.464 0.752,0 1.536,-0.112 1.952,-0.224 z"
         style="text-align:start;text-anchor:start"
         id="path2863" /><path
         d="m 336.5979,167.40676 -0.224,-1.648 c -0.192,0.064 -0.512,0.176 -0.976,0.176 -0.512,0 -0.976,-0.192 -0.976,-1.04 v -4.32 h 1.952 v -1.6 h -1.952 v -2.448 l -2.24,0.72 v 1.728 h -1.424 v 1.6 h 1.424 v 4.592 c 0,1.648 0.944,2.464 2.464,2.464 0.752,0 1.536,-0.112 1.952,-0.224 z"
         style="text-align:start;text-anchor:start"
         id="path2865" /><path
         d="m 345.02991,162.54276 c 0,-1.968 -0.976,-4 -3.616,-4 -2.736,0 -3.952,2.352 -3.952,4.608 0,2.656 1.68,4.48 4.352,4.48 1.248,0 2.384,-0.368 3.04,-0.672 l -0.592,-1.664 c -0.448,0.24 -1.264,0.56 -2.032,0.56 -1.44,0 -2.544,-0.816 -2.544,-2.336 0,-0.016 0,-0.032 0,-0.048 h 5.296 c 0.032,-0.288 0.048,-0.656 0.048,-0.928 z m -2.112,-0.592 h -3.28 c 0,-0.752 0.4,-1.84 1.68,-1.84 1.136,0 1.68,0.944 1.6,1.84 z"
         style="text-align:start;text-anchor:start"
         id="path2867" /><path
         d="m 352.46991,164.79876 c 0,-1.424 -0.864,-2.08 -2.08,-2.528 l -0.752,-0.272 c -0.592,-0.208 -1.008,-0.464 -1.008,-0.912 0,-0.384 0.272,-0.848 1.184,-0.848 0.544,0 1.232,0.192 1.728,0.512 l 0.688,-1.648 c -0.448,-0.224 -1.232,-0.56 -2.304,-0.56 -2,0 -3.36,1.28 -3.36,2.896 0,1.248 0.736,1.904 1.84,2.336 l 0.704,0.272 c 0.8,0.304 1.264,0.48 1.264,1.04 0,0.672 -0.72,0.88 -1.312,0.88 -0.672,0 -1.456,-0.256 -2,-0.64 l -0.688,1.648 c 0.48,0.288 1.44,0.656 2.512,0.656 2.24,0 3.584,-1.168 3.584,-2.832 z"
         style="text-align:start;text-anchor:start"
         id="path2869" /><path
         d="m 367.04592,166.84676 -0.672,-1.936 c -0.56,0.336 -1.36,0.608 -2.256,0.608 -1.632,0 -3.328,-1.2 -3.328,-3.792 0,-2.72 1.408,-3.856 3.136,-3.856 0.72,0 1.552,0.192 2.288,0.608 l 0.816,-2.064 c -0.816,-0.368 -1.84,-0.656 -3.232,-0.656 -3.632,0 -5.6,2.704 -5.6,6.08 0,3.904 2.736,5.792 5.6,5.792 1.152,0 2.384,-0.32 3.248,-0.784 z"
         style="text-align:start;text-anchor:start"
         id="path2871" /><path
         d="m 376.10191,167.35876 v -5.872 c 0,-1.664 -0.752,-2.944 -2.656,-2.944 -1.056,0 -1.824,0.496 -2.416,1.28 v -4.304 h -2.24 v 11.84 h 2.24 v -5.248 c 0,-0.576 0.032,-0.784 0.464,-1.2 0.24,-0.224 0.64,-0.416 1.088,-0.416 0.976,0 1.28,0.592 1.28,1.456 v 5.408 z"
         style="text-align:start;text-anchor:start"
         id="path2873" /><path
         d="m 385.4939,167.31076 -0.128,-1.456 c -0.096,0.032 -0.272,0.08 -0.368,0.08 -0.272,0 -0.304,-0.256 -0.304,-0.56 v -3.936 c 0,-2.464 -1.936,-2.896 -3.136,-2.896 -1.472,0 -2.512,0.272 -3.456,0.88 l 0.784,1.6 c 0.368,-0.32 1.12,-0.784 2.112,-0.784 1.184,0 1.568,0.576 1.568,1.184 v 0.56 c 0,0.288 -0.208,0.304 -0.56,0.304 -1.888,0 -4.32,0.448 -4.32,2.768 0,1.456 1.024,2.544 2.528,2.544 1.168,0 1.824,-0.416 2.528,-1.248 0.128,0.672 0.528,1.168 1.328,1.168 0.528,0 1.088,-0.128 1.424,-0.208 z m -2.944,-2.832 c 0,0.416 -0.112,0.736 -0.368,1.008 -0.288,0.304 -0.704,0.464 -1.2,0.464 -0.624,0 -1.072,-0.448 -1.072,-1.072 0,-1.024 1.184,-1.216 1.968,-1.216 0.192,0 0.432,0 0.672,0.016 z"
         style="text-align:start;text-anchor:start"
         id="path2875" /><path
         d="m 394.0219,167.35876 v -8.544 h -2.24 v 5.264 c 0,0.576 -0.032,0.8 -0.416,1.216 -0.208,0.224 -0.56,0.4 -0.976,0.4 -0.848,0 -1.184,-0.608 -1.184,-1.472 v -5.408 h -2.24 v 5.872 c 0,1.664 0.768,2.944 2.608,2.944 1.072,0 1.792,-0.512 2.368,-1.328 v 1.056 z"
         style="text-align:start;text-anchor:start"
         id="path2877" /><path
         d="m 408.13389,167.35876 v -5.872 c 0,-1.664 -0.736,-2.944 -2.576,-2.944 -1.152,0 -1.888,0.64 -2.48,1.536 -0.416,-1.008 -1.168,-1.536 -2.304,-1.536 -1.136,0 -1.792,0.544 -2.368,1.408 v -1.136 h -2.08 v 8.544 h 2.24 v -5.248 c 0,-0.576 0.032,-0.8 0.416,-1.216 0.208,-0.224 0.56,-0.4 0.976,-0.4 0.848,0 1.152,0.592 1.152,1.456 v 5.408 h 2.24 v -5.248 c 0,-0.544 0.048,-0.8 0.432,-1.216 0.208,-0.224 0.544,-0.4 0.96,-0.4 0.848,0 1.152,0.592 1.152,1.456 v 5.408 z"
         style="text-align:start;text-anchor:start"
         id="path2879" /><path
         d="m 417.95788,163.10276 c 0,-2.432 -1.248,-4.592 -4.048,-4.592 -2.768,0 -4.128,2.144 -4.128,4.56 0,2.432 1.248,4.592 4.048,4.592 2.768,0 4.128,-2.144 4.128,-4.56 z m -2.336,0.016 c 0,1.2 -0.368,2.784 -1.792,2.784 -1.424,0 -1.712,-1.648 -1.712,-2.848 0,-1.2 0.368,-2.784 1.792,-2.784 1.424,0 1.712,1.648 1.712,2.848 z"
         style="text-align:start;text-anchor:start"
         id="path2881" /><path
         d="m 426.96589,167.35876 v -5.872 c 0,-1.664 -0.752,-2.944 -2.656,-2.944 -1.168,0 -1.968,0.576 -2.576,1.488 v -1.216 h -2.08 v 8.544 h 2.24 v -5.248 c 0,-0.576 0.032,-0.784 0.464,-1.2 0.24,-0.224 0.64,-0.416 1.088,-0.416 0.976,0 1.28,0.592 1.28,1.456 v 5.408 z"
         style="text-align:start;text-anchor:start"
         id="path2883" /><path
         d="m 434.06989,167.40676 -0.224,-1.648 c -0.192,0.064 -0.512,0.176 -0.976,0.176 -0.512,0 -0.976,-0.192 -0.976,-1.04 v -4.32 h 1.952 v -1.6 h -1.952 v -2.448 l -2.24,0.72 v 1.728 h -1.424 v 1.6 h 1.424 v 4.592 c 0,1.648 0.944,2.464 2.464,2.464 0.752,0 1.536,-0.112 1.952,-0.224 z"
         style="text-align:start;text-anchor:start"
         id="path2885" /></g><g
       aria-label="Botzaris"
       id="text2946"
       style="font-weight:bold;font-size:16px;font-family:'Parisine Std';-inkscape-font-specification:'Parisine Std Bold';fill:#25303b;stroke-width:9.44882"><path
         d="m 314.34189,201.65004 c 0,-1.6 -0.992,-2.528 -2.176,-2.688 v -0.032 c 0.88,-0.16 1.808,-1.04 1.808,-2.208 0,-2.288 -1.984,-2.864 -4.096,-2.864 h -4.288 v 11.296 h 4.112 c 2.144,0 4.64,-0.656 4.64,-3.504 z m -2.816,-4.592 c 0,1.072 -0.864,1.28 -2.176,1.28 h -1.264 v -2.592 h 1.232 c 1.44,0 2.208,0.272 2.208,1.312 z m 0.24,4.528 c 0,1.2 -0.624,1.696 -2.208,1.696 h -1.472 v -3.152 h 1.344 c 1.136,0 2.336,0.208 2.336,1.456 z"
         id="path2888" /><path
         d="m 323.7019,200.89804 c 0,-2.432 -1.248,-4.592 -4.048,-4.592 -2.768,0 -4.128,2.144 -4.128,4.56 0,2.432 1.248,4.592 4.048,4.592 2.768,0 4.128,-2.144 4.128,-4.56 z m -2.336,0.016 c 0,1.2 -0.368,2.784 -1.792,2.784 -1.424,0 -1.712,-1.648 -1.712,-2.848 0,-1.2 0.368,-2.784 1.792,-2.784 1.424,0 1.712,1.648 1.712,2.848 z"
         id="path2890" /><path
         d="m 330.24591,205.20204 -0.224,-1.648 c -0.192,0.064 -0.512,0.176 -0.976,0.176 -0.512,0 -0.976,-0.192 -0.976,-1.04 v -4.32 h 1.952 v -1.6 h -1.952 v -2.448 l -2.24,0.72 v 1.728 h -1.424 v 1.6 h 1.424 v 4.592 c 0,1.648 0.944,2.464 2.464,2.464 0.752,0 1.536,-0.112 1.952,-0.224 z"
         id="path2892" /><path
         d="m 337.78192,205.15404 v -1.696 h -3.904 l 3.696,-4.96 v -1.888 h -6.16 v 1.696 h 3.616 l -3.824,5.072 v 1.776 z"
         id="path2894" /><path
         d="m 346.62992,205.10604 -0.128,-1.456 c -0.096,0.032 -0.272,0.08 -0.368,0.08 -0.272,0 -0.304,-0.256 -0.304,-0.56 v -3.936 c 0,-2.464 -1.936,-2.896 -3.136,-2.896 -1.472,0 -2.512,0.272 -3.456,0.88 l 0.784,1.6 c 0.368,-0.32 1.12,-0.784 2.112,-0.784 1.184,0 1.568,0.576 1.568,1.184 v 0.56 c 0,0.288 -0.208,0.304 -0.56,0.304 -1.888,0 -4.32,0.448 -4.32,2.768 0,1.456 1.024,2.544 2.528,2.544 1.168,0 1.824,-0.416 2.528,-1.248 0.128,0.672 0.528,1.168 1.328,1.168 0.528,0 1.088,-0.128 1.424,-0.208 z m -2.944,-2.832 c 0,0.416 -0.112,0.736 -0.368,1.008 -0.288,0.304 -0.704,0.464 -1.2,0.464 -0.624,0 -1.072,-0.448 -1.072,-1.072 0,-1.024 1.184,-1.216 1.968,-1.216 0.192,0 0.432,0 0.672,0.016 z"
         id="path2896" /><path
         d="m 353.12592,196.56204 c -0.176,-0.064 -0.496,-0.16 -0.816,-0.16 -1.056,0 -1.616,0.672 -2.128,1.488 v -1.28 h -2.016 c 0.016,0.4 0.08,1.424 0.08,2.16 v 6.384 h 2.24 v -5.152 c 0,-0.464 0.016,-0.816 0.32,-1.088 0.208,-0.192 0.464,-0.336 0.944,-0.336 0.304,0 0.624,0.144 0.784,0.224 z"
         id="path2898" /><path
         d="m 357.02991,194.33804 c 0,-0.688 -0.48,-1.184 -1.248,-1.184 -0.768,0 -1.264,0.496 -1.264,1.184 0,0.688 0.496,1.184 1.264,1.184 0.768,0 1.248,-0.496 1.248,-1.184 z m -0.144,10.816 v -8.544 h -2.24 v 8.544 z"
         id="path2900" /><path
         d="m 364.8859,202.59404 c 0,-1.424 -0.864,-2.08 -2.08,-2.528 l -0.752,-0.272 c -0.592,-0.208 -1.008,-0.464 -1.008,-0.912 0,-0.384 0.272,-0.848 1.184,-0.848 0.544,0 1.232,0.192 1.728,0.512 l 0.688,-1.648 c -0.448,-0.224 -1.232,-0.56 -2.304,-0.56 -2,0 -3.36,1.28 -3.36,2.896 0,1.248 0.736,1.904 1.84,2.336 l 0.704,0.272 c 0.8,0.304 1.264,0.48 1.264,1.04 0,0.672 -0.72,0.88 -1.312,0.88 -0.672,0 -1.456,-0.256 -2,-0.64 l -0.688,1.648 c 0.48,0.288 1.44,0.656 2.512,0.656 2.24,0 3.584,-1.168 3.584,-2.832 z"
         id="path2902" /></g><g
       aria-label="Danube"
       id="text2950"
       style="font-weight:bold;font-size:16px;font-family:'Parisine Std';-inkscape-font-specification:'Parisine Std Bold';fill:#25303b;stroke-width:9.44882"><path
         d="m 416.83665,326.14794 c 0,-4.656 -3.552,-5.392 -6.848,-5.392 h -3.296 v 11.296 h 3.184 c 3.456,0 6.96,-0.96 6.96,-5.904 z m -2.576,0.16 c 0,2.96 -1.664,3.792 -3.84,3.792 h -1.232 v -7.376 h 1.152 c 1.536,0 3.92,0.416 3.92,3.584 z"
         id="path2905" /><path
         d="m 425.76465,332.00394 -0.128,-1.456 c -0.096,0.032 -0.272,0.08 -0.368,0.08 -0.272,0 -0.304,-0.256 -0.304,-0.56 v -3.936 c 0,-2.464 -1.936,-2.896 -3.136,-2.896 -1.472,0 -2.512,0.272 -3.456,0.88 l 0.784,1.6 c 0.368,-0.32 1.12,-0.784 2.112,-0.784 1.184,0 1.568,0.576 1.568,1.184 v 0.56 c 0,0.288 -0.208,0.304 -0.56,0.304 -1.888,0 -4.32,0.448 -4.32,2.768 0,1.456 1.024,2.544 2.528,2.544 1.168,0 1.824,-0.416 2.528,-1.248 0.128,0.672 0.528,1.168 1.328,1.168 0.528,0 1.088,-0.128 1.424,-0.208 z m -2.944,-2.832 c 0,0.416 -0.112,0.736 -0.368,1.008 -0.288,0.304 -0.704,0.464 -1.2,0.464 -0.624,0 -1.072,-0.448 -1.072,-1.072 0,-1.024 1.184,-1.216 1.968,-1.216 0.192,0 0.432,0 0.672,0.016 z"
         id="path2907" /><path
         d="m 434.61265,332.05194 v -5.872 c 0,-1.664 -0.752,-2.944 -2.656,-2.944 -1.168,0 -1.968,0.576 -2.576,1.488 v -1.216 h -2.08 v 8.544 h 2.24 v -5.248 c 0,-0.576 0.032,-0.784 0.464,-1.2 0.24,-0.224 0.64,-0.416 1.088,-0.416 0.976,0 1.28,0.592 1.28,1.456 v 5.408 z"
         id="path2909" /><path
         d="m 443.86064,332.05194 v -8.544 h -2.24 v 5.264 c 0,0.576 -0.032,0.8 -0.416,1.216 -0.208,0.224 -0.56,0.4 -0.976,0.4 -0.848,0 -1.184,-0.608 -1.184,-1.472 v -5.408 h -2.24 v 5.872 c 0,1.664 0.768,2.944 2.608,2.944 1.072,0 1.792,-0.512 2.368,-1.328 v 1.056 z"
         id="path2911" /><path
         d="m 453.90863,327.68394 c 0,-2.064 -0.928,-4.448 -3.168,-4.448 -1.088,0 -1.744,0.56 -2.32,1.392 v -4.416 h -2.256 v 11.84 h 2.176 v -0.384 c 0.432,0.4 1.184,0.656 1.824,0.656 2.736,0 3.744,-2.72 3.744,-4.64 z m -2.336,0.336 c 0,1.168 -0.352,2.72 -1.792,2.72 -1.024,0 -1.376,-0.528 -1.376,-1.12 v -2.896 c 0,-0.496 0.048,-0.736 0.432,-1.104 0.24,-0.24 0.592,-0.432 1.04,-0.432 1.424,0 1.696,1.68 1.696,2.832 z"
         id="path2913" /><path
         d="m 462.85263,327.23594 c 0,-1.968 -0.976,-4 -3.616,-4 -2.736,0 -3.952,2.352 -3.952,4.608 0,2.656 1.68,4.48 4.352,4.48 1.248,0 2.384,-0.368 3.04,-0.672 l -0.592,-1.664 c -0.448,0.24 -1.264,0.56 -2.032,0.56 -1.44,0 -2.544,-0.816 -2.544,-2.336 0,-0.016 0,-0.032 0,-0.048 h 5.296 c 0.032,-0.288 0.048,-0.656 0.048,-0.928 z m -2.112,-0.592 h -3.28 c 0,-0.752 0.4,-1.84 1.68,-1.84 1.136,0 1.68,0.944 1.6,1.84 z"
         id="path2915" /></g><g
       aria-label="Place des Fêtes"
       id="text2954"
       style="font-weight:bold;font-size:16px;font-family:'Parisine Std';-inkscape-font-specification:'Parisine Std Bold';fill:#25303b;stroke-width:9.44882"><path
         d="m 56.359783,324.25994 c 0,-2.8 -2.24,-3.504 -4.848,-3.504 h -3.472 v 11.296 h 2.496 v -3.968 h 1.152 c 1.936,0 4.672,-0.544 4.672,-3.824 z m -2.528,0.16 c 0,1.456 -1.216,1.744 -2.144,1.744 h -1.152 v -3.472 h 1.12 c 0.832,0 2.176,0.192 2.176,1.728 z"
         id="path2918" /><path
         d="m 60.231783,332.05194 v -11.84 h -2.24 v 11.84 z"
         id="path2920" /><path
         d="m 69.655798,332.00394 -0.128,-1.456 c -0.096,0.032 -0.272,0.08 -0.368,0.08 -0.272,0 -0.304,-0.256 -0.304,-0.56 v -3.936 c 0,-2.464 -1.936,-2.896 -3.136,-2.896 -1.472,0 -2.512,0.272 -3.456,0.88 l 0.784,1.6 c 0.368,-0.32 1.12,-0.784 2.112,-0.784 1.184,0 1.568,0.576 1.568,1.184 v 0.56 c 0,0.288 -0.208,0.304 -0.56,0.304 -1.888,0 -4.32,0.448 -4.32,2.768 0,1.456 1.024,2.544 2.528,2.544 1.168,0 1.824,-0.416 2.528,-1.248 0.128,0.672 0.528,1.168 1.328,1.168 0.528,0 1.088,-0.128 1.424,-0.208 z m -2.944,-2.832 c 0,0.416 -0.112,0.736 -0.368,1.008 -0.288,0.304 -0.704,0.464 -1.2,0.464 -0.624,0 -1.072,-0.448 -1.072,-1.072 0,-1.024 1.184,-1.216 1.968,-1.216 0.192,0 0.432,0 0.672,0.016 z"
         id="path2922" /><path
         d="m 77.303795,331.61994 -0.64,-1.664 c -0.384,0.24 -1.04,0.512 -1.68,0.512 -1.008,0 -2.064,-0.976 -2.064,-2.624 0,-1.504 0.64,-2.704 1.936,-2.704 0.736,0 1.376,0.384 1.664,0.576 l 0.8,-1.872 c -0.56,-0.304 -1.456,-0.608 -2.608,-0.608 -2.896,0 -4.128,2.32 -4.128,4.656 0,2.496 1.504,4.432 4.128,4.432 1.04,0 2.144,-0.368 2.592,-0.704 z"
         id="path2924" /><path
         d="m 85.799805,327.23594 c 0,-1.968 -0.976,-4 -3.616,-4 -2.736,0 -3.952,2.352 -3.952,4.608 0,2.656 1.68,4.48 4.352,4.48 1.248,0 2.384,-0.368 3.04,-0.672 l -0.592,-1.664 c -0.448,0.24 -1.264,0.56 -2.032,0.56 -1.44,0 -2.544,-0.816 -2.544,-2.336 0,-0.016 0,-0.032 0,-0.048 h 5.296 c 0.032,-0.288 0.048,-0.656 0.048,-0.928 z m -2.112,-0.592 h -3.28 c 0,-0.752 0.4,-1.84 1.68,-1.84 1.136,0 1.68,0.944 1.6,1.84 z"
         id="path2926" /><path
         d="m 99.335821,332.05194 v -11.84 h -2.256 v 3.632 c -0.416,-0.4 -1.088,-0.608 -1.744,-0.608 -2.736,0 -3.744,2.448 -3.744,4.448 0,2 0.88,4.64 3.28,4.64 1.168,0 1.792,-0.624 2.384,-1.504 v 1.232 z m -2.24,-3.2 c 0,0.448 -0.048,0.752 -0.4,1.104 -0.224,0.208 -0.576,0.432 -1.024,0.432 -1.488,0 -1.744,-1.84 -1.744,-2.992 0,-1.216 0.336,-2.544 1.712,-2.544 1.088,0 1.456,0.464 1.456,1.104 z"
         id="path2928" /><path
         d="m 108.66382,327.23594 c 0,-1.968 -0.976,-4 -3.616,-4 -2.736,0 -3.952,2.352 -3.952,4.608 0,2.656 1.68,4.48 4.352,4.48 1.248,0 2.384,-0.368 3.04,-0.672 l -0.592,-1.664 c -0.448,0.24 -1.264,0.56 -2.032,0.56 -1.44,0 -2.544,-0.816 -2.544,-2.336 0,-0.016 0,-0.032 0,-0.048 h 5.296 c 0.032,-0.288 0.048,-0.656 0.048,-0.928 z m -2.112,-0.592 h -3.28 c 0,-0.752 0.4,-1.84 1.68,-1.84 1.136,0 1.68,0.944 1.6,1.84 z"
         id="path2930" /><path
         d="m 116.10382,329.49194 c 0,-1.424 -0.864,-2.08 -2.08,-2.528 l -0.752,-0.272 c -0.592,-0.208 -1.008,-0.464 -1.008,-0.912 0,-0.384 0.272,-0.848 1.184,-0.848 0.544,0 1.232,0.192 1.728,0.512 l 0.688,-1.648 c -0.448,-0.224 -1.232,-0.56 -2.304,-0.56 -2,0 -3.36,1.28 -3.36,2.896 0,1.248 0.736,1.904 1.84,2.336 l 0.704,0.272 c 0.8,0.304 1.264,0.48 1.264,1.04 0,0.672 -0.72,0.88 -1.312,0.88 -0.672,0 -1.456,-0.256 -2,-0.64 l -0.688,1.648 c 0.48,0.288 1.44,0.656 2.512,0.656 2.24,0 3.584,-1.168 3.584,-2.832 z"
         id="path2932" /><path
         d="m 129.57583,322.80394 v -2.048 h -7.072 v 11.296 h 2.496 v -4.688 h 4.416 v -2.016 h -4.416 v -2.544 z"
         id="path2934" /><path
         d="m 138.08783,327.23594 c 0,-1.968 -0.976,-4 -3.616,-4 -2.736,0 -3.952,2.352 -3.952,4.608 0,2.656 1.68,4.48 4.352,4.48 1.248,0 2.384,-0.368 3.04,-0.672 l -0.592,-1.664 c -0.448,0.24 -1.264,0.56 -2.032,0.56 -1.44,0 -2.544,-0.816 -2.544,-2.336 0,-0.016 0,-0.032 0,-0.048 h 5.296 c 0.032,-0.288 0.048,-0.656 0.048,-0.928 z m -2.112,-0.592 h -3.28 c 0,-0.752 0.4,-1.84 1.68,-1.84 1.136,0 1.68,0.944 1.6,1.84 z m 1.456,-3.952 -1.872,-2.48 h -2.208 l -1.872,2.48 h 1.728 l 1.232,-1.264 1.264,1.264 z"
         id="path2936" /><path
         d="m 144.85583,332.09994 -0.224,-1.648 c -0.192,0.064 -0.512,0.176 -0.976,0.176 -0.512,0 -0.976,-0.192 -0.976,-1.04 v -4.32 h 1.952 v -1.6 h -1.952 v -2.448 l -2.24,0.72 v 1.728 h -1.424 v 1.6 h 1.424 v 4.592 c 0,1.648 0.944,2.464 2.464,2.464 0.752,0 1.536,-0.112 1.952,-0.224 z"
         id="path2938" /><path
         d="m 153.28784,327.23594 c 0,-1.968 -0.976,-4 -3.616,-4 -2.736,0 -3.952,2.352 -3.952,4.608 0,2.656 1.68,4.48 4.352,4.48 1.248,0 2.384,-0.368 3.04,-0.672 l -0.592,-1.664 c -0.448,0.24 -1.264,0.56 -2.032,0.56 -1.44,0 -2.544,-0.816 -2.544,-2.336 0,-0.016 0,-0.032 0,-0.048 h 5.296 c 0.032,-0.288 0.048,-0.656 0.048,-0.928 z m -2.112,-0.592 h -3.28 c 0,-0.752 0.4,-1.84 1.68,-1.84 1.136,0 1.68,0.944 1.6,1.84 z"
         id="path2940" /><path
         d="m 160.72785,329.49194 c 0,-1.424 -0.864,-2.08 -2.08,-2.528 l -0.752,-0.272 c -0.592,-0.208 -1.008,-0.464 -1.008,-0.912 0,-0.384 0.272,-0.848 1.184,-0.848 0.544,0 1.232,0.192 1.728,0.512 l 0.688,-1.648 c -0.448,-0.224 -1.232,-0.56 -2.304,-0.56 -2,0 -3.36,1.28 -3.36,2.896 0,1.248 0.736,1.904 1.84,2.336 l 0.704,0.272 c 0.8,0.304 1.264,0.48 1.264,1.04 0,0.672 -0.72,0.88 -1.312,0.88 -0.672,0 -1.456,-0.256 -2,-0.64 l -0.688,1.648 c 0.48,0.288 1.44,0.656 2.512,0.656 2.24,0 3.584,-1.168 3.584,-2.832 z"
         id="path2942" /></g><g
       aria-label="Pré-Saint-Gervais"
       id="text2958"
       style="font-weight:bold;font-size:21.3333px;font-family:'Parisine Std';-inkscape-font-specification:'Parisine Std Bold';letter-spacing:0px;display:inline;fill:#ffffff;stroke-width:9.44882"><path
         d="m 210.44027,415.22409 c 0,-3.73333 -2.98666,-4.672 -6.46399,-4.672 h -4.62932 v 15.06131 h 3.32799 v -5.29065 h 1.536 c 2.58133,0 6.22932,-0.72534 6.22932,-5.09866 z m -3.37066,0.21333 c 0,1.94133 -1.62133,2.32533 -2.85866,2.32533 h -1.536 v -4.62933 h 1.49333 c 1.10933,0 2.90133,0.256 2.90133,2.304 z"
         id="path2945" /><path
         d="m 219.01625,414.15742 c -0.23466,-0.0853 -0.66133,-0.21333 -1.08799,-0.21333 -1.408,0 -2.15467,0.896 -2.83733,1.984 v -1.70667 h -2.688 c 0.0213,0.53333 0.10667,1.89866 0.10667,2.88 v 8.51198 h 2.98666 v -6.86932 c 0,-0.61866 0.0213,-1.088 0.42666,-1.45066 0.27734,-0.256 0.61867,-0.448 1.25867,-0.448 0.40533,0 0.832,0.192 1.04533,0.29866 z"
         id="path2947" /><path
         d="m 229.55489,419.19208 c 0,-2.624 -1.30133,-5.33332 -4.82132,-5.33332 -3.648,0 -5.26933,3.13599 -5.26933,6.14399 0,3.54132 2.24,5.97332 5.80266,5.97332 1.664,0 3.17866,-0.49067 4.05333,-0.896 l -0.78934,-2.21866 c -0.59733,0.32 -1.68533,0.74666 -2.70933,0.74666 -1.91999,0 -3.39199,-1.088 -3.39199,-3.11466 0,-0.0213 0,-0.0427 0,-0.064 h 7.06132 c 0.0427,-0.384 0.064,-0.87466 0.064,-1.23733 z m -2.81599,-0.78933 h -4.37333 c 0,-1.00267 0.53333,-2.45333 2.24,-2.45333 1.51466,0 2.23999,1.25866 2.13333,2.45333 z m 2.36799,-8.57599 h -3.41333 l -2.38933,3.30666 h 2.304 z"
         id="path2949" /><path
         d="m 237.14957,421.06941 v -2.816 h -5.58933 v 2.816 z"
         id="path2951" /><path
         d="m 248.11489,421.06941 c 0,-2.41066 -1.70667,-3.47733 -3.648,-4.33066 l -1.10933,-0.49067 c -0.85333,-0.38399 -1.89866,-0.83199 -1.89866,-1.87733 0,-0.66133 0.448,-1.66399 2.19733,-1.66399 1.17333,0 2.26133,0.32 3.13599,0.832 l 0.98134,-2.53867 c -1.23734,-0.61866 -2.77333,-0.85333 -4.11733,-0.85333 -3.30666,0 -5.43999,1.96266 -5.43999,4.56533 0,2.47466 1.57866,3.56266 3.58399,4.41599 l 1.10933,0.46933 c 0.87467,0.36267 1.94133,0.832 1.94133,1.94133 0,1.25867 -1.06666,1.81333 -2.47466,1.81333 -1.25866,0 -2.64533,-0.46933 -3.47733,-0.98133 l -0.91733,2.60266 c 0.98133,0.49067 2.432,1.00267 4.22399,1.00267 3.09333,0 5.90933,-1.32267 5.90933,-4.90666 z"
         id="path2953" /><path
         d="m 260.12553,425.5494 -0.17067,-1.94133 c -0.128,0.0427 -0.36266,0.10667 -0.49066,0.10667 -0.36267,0 -0.40534,-0.34133 -0.40534,-0.74667 v -5.24799 c 0,-3.28533 -2.58133,-3.86132 -4.18132,-3.86132 -1.96267,0 -3.34933,0.36266 -4.608,1.17333 l 1.04534,2.13333 c 0.49066,-0.42667 1.49333,-1.04534 2.81599,-1.04534 1.57866,0 2.09066,0.768 2.09066,1.57867 v 0.74666 c 0,0.384 -0.27733,0.40534 -0.74666,0.40534 -2.51733,0 -5.75999,0.59733 -5.75999,3.69066 0,1.94133 1.36533,3.39199 3.37066,3.39199 1.55733,0 2.432,-0.55466 3.37066,-1.66399 0.17067,0.89599 0.704,1.55733 1.77066,1.55733 0.704,0 1.45067,-0.17067 1.89867,-0.27734 z m -3.92533,-3.77599 c 0,0.55467 -0.14933,0.98133 -0.49067,1.344 -0.38399,0.40533 -0.93866,0.61866 -1.59999,0.61866 -0.832,0 -1.42933,-0.59733 -1.42933,-1.42933 0,-1.36533 1.57866,-1.62133 2.62399,-1.62133 0.256,0 0.576,0 0.896,0.0213 z"
         id="path2955" /><path
         d="m 265.52285,411.19209 c 0,-0.91733 -0.64,-1.57866 -1.664,-1.57866 -1.024,0 -1.68533,0.66133 -1.68533,1.57866 0,0.91733 0.66133,1.57867 1.68533,1.57867 1.024,0 1.664,-0.66134 1.664,-1.57867 z m -0.192,14.42131 v -11.39198 h -2.98666 v 11.39198 z"
         id="path2957" /><path
         d="m 278.38682,425.6134 v -7.82932 c 0,-2.21866 -1.00267,-3.92532 -3.54133,-3.92532 -1.55733,0 -2.624,0.76799 -3.43466,1.98399 v -1.62133 h -2.77333 v 11.39198 h 2.98666 v -6.99732 c 0,-0.768 0.0427,-1.04533 0.61867,-1.6 0.32,-0.29866 0.85333,-0.55466 1.45066,-0.55466 1.30133,0 1.70667,0.78933 1.70667,1.94133 v 7.21065 z"
         id="path2959" /><path
         d="m 287.8588,425.6774 -0.29867,-2.19733 c -0.256,0.0853 -0.68266,0.23467 -1.30133,0.23467 -0.68267,0 -1.30133,-0.256 -1.30133,-1.38666 v -5.76 h 2.60266 v -2.13333 h -2.60266 v -3.26399 l -2.98666,0.96 v 2.30399 h -1.89867 v 2.13333 h 1.89867 v 6.12266 c 0,2.19733 1.25866,3.28533 3.28533,3.28533 1.00266,0 2.04799,-0.14933 2.60266,-0.29867 z"
         id="path2961" /><path
         d="m 293.46947,421.06941 v -2.816 h -5.58933 v 2.816 z"
         id="path2963" /><path
         d="m 308.16814,425.0374 v -7.21065 h -5.88799 v 2.70933 h 2.70933 v 2.60266 c -0.384,0.128 -1.216,0.23467 -1.94133,0.23467 -2.38933,0 -4.24533,-1.94133 -4.24533,-5.20533 0,-2.98666 1.42934,-5.33332 4.58666,-5.33332 1.23734,0 2.47467,0.32 3.60533,0.93866 l 1.04533,-2.64533 c -1.30133,-0.55466 -2.68799,-0.98133 -4.90666,-0.98133 -5.39732,0 -7.76532,3.90399 -7.76532,8.10665 0,4.43733 2.45333,7.72266 7.46666,7.72266 2.06933,0 4.22399,-0.512 5.33332,-0.93867 z"
         id="path2965" /><path
         d="m 320.30678,419.19208 c 0,-2.624 -1.30133,-5.33332 -4.82132,-5.33332 -3.648,0 -5.26933,3.13599 -5.26933,6.14399 0,3.54132 2.24,5.97332 5.80266,5.97332 1.664,0 3.17866,-0.49067 4.05333,-0.896 l -0.78934,-2.21866 c -0.59733,0.32 -1.68533,0.74666 -2.70933,0.74666 -1.91999,0 -3.39199,-1.088 -3.39199,-3.11466 0,-0.0213 0,-0.0427 0,-0.064 h 7.06132 c 0.0427,-0.384 0.064,-0.87466 0.064,-1.23733 z m -2.81599,-0.78933 h -4.37333 c 0,-1.00267 0.53333,-2.45333 2.24,-2.45333 1.51466,0 2.23999,1.25866 2.13333,2.45333 z"
         id="path2967" /><path
         d="m 329.48011,414.15742 c -0.23467,-0.0853 -0.66133,-0.21333 -1.088,-0.21333 -1.408,0 -2.15466,0.896 -2.83733,1.984 v -1.70667 h -2.68799 c 0.0213,0.53333 0.10666,1.89866 0.10666,2.88 v 8.51198 h 2.98666 v -6.86932 c 0,-0.61866 0.0213,-1.088 0.42667,-1.45066 0.27733,-0.256 0.61867,-0.448 1.25866,-0.448 0.40534,0 0.832,0.192 1.04534,0.29866 z"
         id="path2969" /><path
         d="m 340.44541,414.22142 h -2.81599 l -1.57867,6.03733 c -0.23466,0.89599 -0.53333,2.23999 -0.61866,2.73066 h -0.0427 c -0.10667,-0.448 -0.36267,-1.74933 -0.59733,-2.70933 l -1.472,-6.05866 h -3.30666 l 3.66933,11.39198 h 3.09332 z"
         id="path2971" /><path
         d="m 351.70942,425.5494 -0.17067,-1.94133 c -0.128,0.0427 -0.36267,0.10667 -0.49067,0.10667 -0.36266,0 -0.40533,-0.34133 -0.40533,-0.74667 v -5.24799 c 0,-3.28533 -2.58133,-3.86132 -4.18132,-3.86132 -1.96267,0 -3.34933,0.36266 -4.608,1.17333 l 1.04533,2.13333 c 0.49067,-0.42667 1.49334,-1.04534 2.816,-1.04534 1.57866,0 2.09066,0.768 2.09066,1.57867 v 0.74666 c 0,0.384 -0.27733,0.40534 -0.74666,0.40534 -2.51733,0 -5.75999,0.59733 -5.75999,3.69066 0,1.94133 1.36533,3.39199 3.37066,3.39199 1.55733,0 2.43199,-0.55466 3.37066,-1.66399 0.17067,0.89599 0.704,1.55733 1.77066,1.55733 0.704,0 1.45067,-0.17067 1.89867,-0.27734 z m -3.92533,-3.77599 c 0,0.55467 -0.14933,0.98133 -0.49067,1.344 -0.384,0.40533 -0.93866,0.61866 -1.59999,0.61866 -0.832,0 -1.42933,-0.59733 -1.42933,-1.42933 0,-1.36533 1.57866,-1.62133 2.62399,-1.62133 0.256,0 0.576,0 0.896,0.0213 z"
         id="path2973" /><path
         d="m 357.10673,411.19209 c 0,-0.91733 -0.64,-1.57866 -1.664,-1.57866 -1.024,0 -1.68533,0.66133 -1.68533,1.57866 0,0.91733 0.66133,1.57867 1.68533,1.57867 1.024,0 1.664,-0.66134 1.664,-1.57867 z m -0.192,14.42131 v -11.39198 h -2.98666 v 11.39198 z"
         id="path2975" /><path
         d="m 367.58136,422.20008 c 0,-1.89867 -1.15199,-2.77333 -2.77332,-3.37067 l -1.00267,-0.36266 c -0.78933,-0.27733 -1.344,-0.61867 -1.344,-1.216 0,-0.512 0.36267,-1.13067 1.57867,-1.13067 0.72533,0 1.64266,0.256 2.30399,0.68267 l 0.91734,-2.19733 c -0.59734,-0.29867 -1.64267,-0.74666 -3.072,-0.74666 -2.66666,0 -4.47999,1.70666 -4.47999,3.86132 0,1.664 0.98133,2.53867 2.45333,3.11466 l 0.93866,0.36267 c 1.06667,0.40533 1.68533,0.64 1.68533,1.38666 0,0.896 -0.96,1.17334 -1.74933,1.17334 -0.896,0 -1.94133,-0.34134 -2.66666,-0.85334 l -0.91733,2.19733 c 0.64,0.384 1.91999,0.87467 3.34933,0.87467 2.98666,0 4.77865,-1.55733 4.77865,-3.77599 z"
         id="path2977" /></g><g
       aria-label="Hôpital
Robert Debré"
       id="text19938"
       style="font-style:italic;font-weight:bold;font-size:8px;font-family:'Parisine Std';-inkscape-font-specification:'Parisine Std Bold Italic';text-align:end;text-anchor:end;display:inline;fill:#25303b;stroke-width:9.44882"><path
         d="m 287.25981,316.78656 v -5.648 h -1.248 v 2.152 h -2.336 v -2.152 h -1.248 v 5.648 h 1.248 v -2.488 h 2.336 v 2.488 z"
         style="font-style:normal;-inkscape-font-specification:'Parisine Std Bold';text-align:center;text-anchor:middle"
         id="path2980" /><path
         d="m 292.27581,314.65856 c 0,-1.216 -0.624,-2.296 -2.024,-2.296 -1.384,0 -2.064,1.072 -2.064,2.28 0,1.216 0.624,2.296 2.024,2.296 1.384,0 2.064,-1.072 2.064,-2.28 z m -1.168,0.008 c 0,0.6 -0.184,1.392 -0.896,1.392 -0.712,0 -0.856,-0.824 -0.856,-1.424 0,-0.6 0.184,-1.392 0.896,-1.392 0.712,0 0.856,0.824 0.856,1.424 z m 0.624,-2.56 -0.936,-1.24 h -1.104 l -0.936,1.24 h 0.864 l 0.616,-0.632 0.632,0.632 z"
         style="font-style:normal;-inkscape-font-specification:'Parisine Std Bold';text-align:center;text-anchor:middle"
         id="path2982" /><path
         d="m 296.99581,314.60256 c 0,-1.032 -0.464,-2.224 -1.584,-2.224 -0.592,0 -0.952,0.304 -1.248,0.768 v -0.632 h -1.04 v 5.872 h 1.12 v -1.768 c 0.216,0.208 0.576,0.304 0.88,0.304 1.368,0 1.872,-1.36 1.872,-2.32 z m -1.168,0.16 c 0,0.584 -0.176,1.352 -0.896,1.352 -0.512,0 -0.688,-0.256 -0.688,-0.552 v -1.456 c 0,-0.248 0.024,-0.36 0.216,-0.544 0.128,-0.12 0.288,-0.216 0.512,-0.216 0.712,0 0.856,0.84 0.856,1.416 z"
         style="font-style:normal;-inkscape-font-specification:'Parisine Std Bold';text-align:center;text-anchor:middle"
         id="path2984" /><path
         d="m 299.09981,311.37856 c 0,-0.344 -0.24,-0.592 -0.624,-0.592 -0.384,0 -0.632,0.248 -0.632,0.592 0,0.344 0.248,0.592 0.632,0.592 0.384,0 0.624,-0.248 0.624,-0.592 z m -0.072,5.408 v -4.272 h -1.12 v 4.272 z"
         style="font-style:normal;-inkscape-font-specification:'Parisine Std Bold';text-align:center;text-anchor:middle"
         id="path2986" /><path
         d="m 302.69181,316.81056 -0.112,-0.824 c -0.096,0.032 -0.256,0.088 -0.488,0.088 -0.256,0 -0.488,-0.096 -0.488,-0.52 v -2.16 h 0.976 v -0.8 h -0.976 v -1.224 l -1.12,0.36 v 0.864 h -0.712 v 0.8 h 0.712 v 2.296 c 0,0.824 0.472,1.232 1.232,1.232 0.376,0 0.768,-0.056 0.976,-0.112 z"
         style="font-style:normal;-inkscape-font-specification:'Parisine Std Bold';text-align:center;text-anchor:middle"
         id="path2988" /><path
         d="m 306.99581,316.76256 -0.064,-0.728 c -0.048,0.016 -0.136,0.04 -0.184,0.04 -0.136,0 -0.152,-0.128 -0.152,-0.28 v -1.968 c 0,-1.232 -0.968,-1.448 -1.568,-1.448 -0.736,0 -1.256,0.136 -1.728,0.44 l 0.392,0.8 c 0.184,-0.16 0.56,-0.392 1.056,-0.392 0.592,0 0.784,0.288 0.784,0.592 v 0.28 c 0,0.144 -0.104,0.152 -0.28,0.152 -0.944,0 -2.16,0.224 -2.16,1.384 0,0.728 0.512,1.272 1.264,1.272 0.584,0 0.912,-0.208 1.264,-0.624 0.064,0.336 0.264,0.584 0.664,0.584 0.264,0 0.544,-0.064 0.712,-0.104 z m -1.472,-1.416 c 0,0.208 -0.056,0.368 -0.184,0.504 -0.144,0.152 -0.352,0.232 -0.6,0.232 -0.312,0 -0.536,-0.224 -0.536,-0.536 0,-0.512 0.592,-0.608 0.984,-0.608 0.096,0 0.216,0 0.336,0.008 z"
         style="font-style:normal;-inkscape-font-specification:'Parisine Std Bold';text-align:center;text-anchor:middle"
         id="path2990" /><path
         d="m 308.88381,316.78656 v -5.92 h -1.12 v 5.92 z"
         style="font-style:normal;-inkscape-font-specification:'Parisine Std Bold';text-align:center;text-anchor:middle"
         id="path2992" /><path
         d="m 275.71982,326.78656 c -0.52,-0.736 -1.48,-2.168 -1.712,-2.576 0.496,-0.08 1.232,-0.504 1.232,-1.448 0,-1.336 -1.16,-1.624 -2.432,-1.624 h -1.832 v 5.648 h 1.248 v -2.256 h 0.368 c 0.128,0 0.304,0.024 0.488,0.336 l 1.128,1.92 z m -1.776,-3.952 c 0,0.624 -0.56,0.768 -1.04,0.768 h -0.68 v -1.496 h 0.608 c 0.496,0 1.112,0.08 1.112,0.728 z"
         style="font-style:normal;-inkscape-font-specification:'Parisine Std Bold';text-align:center;text-anchor:middle"
         id="path2994" /><path
         d="m 279.99981,324.65856 c 0,-1.216 -0.624,-2.296 -2.024,-2.296 -1.384,0 -2.064,1.072 -2.064,2.28 0,1.216 0.624,2.296 2.024,2.296 1.384,0 2.064,-1.072 2.064,-2.28 z m -1.168,0.008 c 0,0.6 -0.184,1.392 -0.896,1.392 -0.712,0 -0.856,-0.824 -0.856,-1.424 0,-0.6 0.184,-1.392 0.896,-1.392 0.712,0 0.856,0.824 0.856,1.424 z"
         style="font-style:normal;-inkscape-font-specification:'Parisine Std Bold';text-align:center;text-anchor:middle"
         id="path2996" /><path
         d="m 284.71981,324.60256 c 0,-1.032 -0.464,-2.224 -1.584,-2.224 -0.544,0 -0.872,0.28 -1.16,0.696 v -2.208 h -1.128 v 5.92 h 1.088 v -0.192 c 0.216,0.2 0.592,0.328 0.912,0.328 1.368,0 1.872,-1.36 1.872,-2.32 z m -1.168,0.168 c 0,0.584 -0.176,1.36 -0.896,1.36 -0.512,0 -0.688,-0.264 -0.688,-0.56 v -1.448 c 0,-0.248 0.024,-0.368 0.216,-0.552 0.12,-0.12 0.296,-0.216 0.52,-0.216 0.712,0 0.848,0.84 0.848,1.416 z"
         style="font-style:normal;-inkscape-font-specification:'Parisine Std Bold';text-align:center;text-anchor:middle"
         id="path2998" /><path
         d="m 289.19181,324.37856 c 0,-0.984 -0.488,-2 -1.808,-2 -1.368,0 -1.976,1.176 -1.976,2.304 0,1.328 0.84,2.24 2.176,2.24 0.624,0 1.192,-0.184 1.52,-0.336 l -0.296,-0.832 c -0.224,0.12 -0.632,0.28 -1.016,0.28 -0.72,0 -1.272,-0.408 -1.272,-1.168 0,-0.008 0,-0.016 0,-0.024 h 2.648 c 0.016,-0.144 0.024,-0.328 0.024,-0.464 z m -1.056,-0.296 h -1.64 c 0,-0.376 0.2,-0.92 0.84,-0.92 0.568,0 0.84,0.472 0.8,0.92 z"
         style="font-style:normal;-inkscape-font-specification:'Parisine Std Bold';text-align:center;text-anchor:middle"
         id="path3000" /><path
         d="m 292.63181,322.49056 c -0.088,-0.032 -0.248,-0.08 -0.408,-0.08 -0.528,0 -0.808,0.336 -1.064,0.744 v -0.64 h -1.008 c 0.008,0.2 0.04,0.712 0.04,1.08 v 3.192 h 1.12 v -2.576 c 0,-0.232 0.008,-0.408 0.16,-0.544 0.104,-0.096 0.232,-0.168 0.472,-0.168 0.152,0 0.312,0.072 0.392,0.112 z"
         style="font-style:normal;-inkscape-font-specification:'Parisine Std Bold';text-align:center;text-anchor:middle"
         id="path3002" /><path
         d="m 295.9038,326.81056 -0.112,-0.824 c -0.096,0.032 -0.256,0.088 -0.488,0.088 -0.256,0 -0.488,-0.096 -0.488,-0.52 v -2.16 h 0.976 v -0.8 h -0.976 v -1.224 l -1.12,0.36 v 0.864 h -0.712 v 0.8 h 0.712 v 2.296 c 0,0.824 0.472,1.232 1.232,1.232 0.376,0 0.768,-0.056 0.976,-0.112 z"
         style="font-style:normal;-inkscape-font-specification:'Parisine Std Bold';text-align:center;text-anchor:middle"
         id="path3004" /><path
         d="m 304.03181,323.83456 c 0,-2.328 -1.776,-2.696 -3.424,-2.696 h -1.648 v 5.648 h 1.592 c 1.728,0 3.48,-0.48 3.48,-2.952 z m -1.288,0.08 c 0,1.48 -0.832,1.896 -1.92,1.896 h -0.616 v -3.688 h 0.576 c 0.768,0 1.96,0.208 1.96,1.792 z"
         style="font-style:normal;-inkscape-font-specification:'Parisine Std Bold';text-align:center;text-anchor:middle"
         id="path3006" /><path
         d="m 308.40781,324.37856 c 0,-0.984 -0.488,-2 -1.808,-2 -1.368,0 -1.976,1.176 -1.976,2.304 0,1.328 0.84,2.24 2.176,2.24 0.624,0 1.192,-0.184 1.52,-0.336 l -0.296,-0.832 c -0.224,0.12 -0.632,0.28 -1.016,0.28 -0.72,0 -1.272,-0.408 -1.272,-1.168 0,-0.008 0,-0.016 0,-0.024 h 2.648 c 0.016,-0.144 0.024,-0.328 0.024,-0.464 z m -1.056,-0.296 h -1.64 c 0,-0.376 0.2,-0.92 0.84,-0.92 0.568,0 0.84,0.472 0.8,0.92 z"
         style="font-style:normal;-inkscape-font-specification:'Parisine Std Bold';text-align:center;text-anchor:middle"
         id="path3008" /><path
         d="m 313.23982,324.60256 c 0,-1.032 -0.464,-2.224 -1.584,-2.224 -0.544,0 -0.872,0.28 -1.16,0.696 v -2.208 h -1.128 v 5.92 h 1.088 v -0.192 c 0.216,0.2 0.592,0.328 0.912,0.328 1.368,0 1.872,-1.36 1.872,-2.32 z m -1.168,0.168 c 0,0.584 -0.176,1.36 -0.896,1.36 -0.512,0 -0.688,-0.264 -0.688,-0.56 v -1.448 c 0,-0.248 0.024,-0.368 0.216,-0.552 0.12,-0.12 0.296,-0.216 0.52,-0.216 0.712,0 0.848,0.84 0.848,1.416 z"
         style="font-style:normal;-inkscape-font-specification:'Parisine Std Bold';text-align:center;text-anchor:middle"
         id="path3010" /><path
         d="m 316.56782,322.49056 c -0.088,-0.032 -0.248,-0.08 -0.408,-0.08 -0.528,0 -0.808,0.336 -1.064,0.744 v -0.64 h -1.008 c 0.008,0.2 0.04,0.712 0.04,1.08 v 3.192 h 1.12 v -2.576 c 0,-0.232 0.008,-0.408 0.16,-0.544 0.104,-0.096 0.232,-0.168 0.472,-0.168 0.152,0 0.312,0.072 0.392,0.112 z"
         style="font-style:normal;-inkscape-font-specification:'Parisine Std Bold';text-align:center;text-anchor:middle"
         id="path3012" /><path
         d="m 320.51981,324.37856 c 0,-0.984 -0.488,-2 -1.808,-2 -1.368,0 -1.976,1.176 -1.976,2.304 0,1.328 0.84,2.24 2.176,2.24 0.624,0 1.192,-0.184 1.52,-0.336 l -0.296,-0.832 c -0.224,0.12 -0.632,0.28 -1.016,0.28 -0.72,0 -1.272,-0.408 -1.272,-1.168 0,-0.008 0,-0.016 0,-0.024 h 2.648 c 0.016,-0.144 0.024,-0.328 0.024,-0.464 z m -1.056,-0.296 h -1.64 c 0,-0.376 0.2,-0.92 0.84,-0.92 0.568,0 0.84,0.472 0.8,0.92 z m 0.888,-3.216 h -1.28 l -0.896,1.24 h 0.864 z"
         style="font-style:normal;-inkscape-font-specification:'Parisine Std Bold';text-align:center;text-anchor:middle"
         id="path3014" /></g><g
       inkscape:groupmode="layer"
       id="layer4"
       inkscape:label="Temps de marche"
       style="display:inline"><g
         aria-label="6"
         id="text33794"
         style="font-style:italic;font-weight:bold;font-size:10.6667px;font-family:'Parisine Std';-inkscape-font-specification:'Parisine Std Bold Italic';text-align:end;text-anchor:end;display:inline;fill:#25303b;stroke-width:9.44882"><path
           d="m 299.33929,64.967292 c 0,-1.386671 -0.96,-2.229341 -2.26134,-2.229341 -0.81067,0 -1.376,0.309335 -1.74934,0.661336 0.064,-1.578672 0.81067,-2.91201 2.28268,-2.91201 0.384,0 0.74667,0.096 0.98133,0.192001 l 0.20267,-0.949336 c -0.32,-0.106667 -0.69334,-0.160001 -1.088,-0.160001 -2.44268,0 -3.45601,2.13334 -3.45601,4.544015 0,1.834672 0.65066,3.370677 2.624,3.370677 1.46134,0 2.46401,-1.088004 2.46401,-2.517341 z m -1.04534,0.117333 c 0,0.81067 -0.56533,1.514672 -1.45067,1.514672 -1.06667,0 -1.52533,-0.93867 -1.52533,-1.824006 0,-0.202667 0,-0.416001 0.0853,-0.544002 0.192,-0.266667 0.672,-0.608002 1.38667,-0.608002 0.91734,0 1.504,0.608002 1.504,1.461338 z"
           style="font-style:normal;font-weight:normal;-inkscape-font-specification:'Parisine Std';text-align:start;text-anchor:start"
           id="path3017" /></g><g
         aria-label="3"
         id="text4147"
         style="font-style:italic;font-weight:bold;font-size:10.6667px;font-family:'Parisine Std';-inkscape-font-specification:'Parisine Std Bold Italic';text-align:end;text-anchor:end;display:inline;fill:#25303b;stroke-width:9.44882"><path
           d="m 299.04062,106.42854 c 0,-1.03467 -0.64,-1.696 -1.51467,-1.86667 v -0.0213 c 0.8,-0.288 1.26934,-0.91734 1.26934,-1.70668 0,-1.06667 -0.88534,-1.90934 -2.25068,-1.90934 -0.896,0 -1.568,0.26667 -2.144,0.78934 l 0.448,0.8 c 0.29867,-0.34133 0.78933,-0.66133 1.49334,-0.66133 0.84266,0 1.36533,0.50133 1.36533,1.14133 0,0.72534 -0.65067,1.17334 -1.472,1.17334 h -0.768 v 0.93867 h 0.75733 c 0.88534,0 1.70667,0.36267 1.70667,1.33334 0,0.85334 -0.672,1.472 -1.696,1.472 -0.65067,0 -1.18401,-0.27733 -1.52534,-0.61866 l -0.45867,0.84266 c 0.46934,0.41601 1.07734,0.70401 2.03734,0.70401 1.61067,0 2.75201,-1.04534 2.75201,-2.41068 z"
           style="font-style:normal;font-weight:normal;-inkscape-font-specification:'Parisine Std';text-align:start;text-anchor:start"
           id="path3020" /></g><g
         aria-label="11"
         id="text4165"
         style="font-style:italic;font-weight:bold;font-size:10.6667px;font-family:'Parisine Std';-inkscape-font-specification:'Parisine Std Bold Italic';text-align:end;text-anchor:end;display:inline;fill:#25303b;stroke-width:9.44882"><path
           d="m 297.45128,146.45308 v -7.53069 h -0.91734 c -0.704,0.52267 -1.54667,0.98134 -2.28267,1.30134 l 0.36267,0.864 c 0.55467,-0.256 1.23734,-0.59734 1.73867,-0.97067 v 6.33602 z"
           style="font-style:normal;font-weight:normal;-inkscape-font-specification:'Parisine Std';text-align:start;text-anchor:start"
           id="path3023" /><path
           d="m 303.42463,146.45308 v -7.53069 h -0.91734 c -0.704,0.52267 -1.54667,0.98134 -2.28267,1.30134 l 0.36267,0.864 c 0.55466,-0.256 1.23733,-0.59734 1.73867,-0.97067 v 6.33602 z"
           style="font-style:normal;font-weight:normal;-inkscape-font-specification:'Parisine Std';text-align:start;text-anchor:start"
           id="path3025" /></g><g
         aria-label="8"
         id="text4169"
         style="font-style:italic;font-weight:bold;font-size:10.6667px;font-family:'Parisine Std';-inkscape-font-specification:'Parisine Std Bold Italic';text-align:end;text-anchor:end;display:inline;fill:#25303b;stroke-width:9.44882"><path
           d="m 299.21129,182.21243 c 0,-1.03467 -0.61867,-1.632 -1.51467,-2.03734 0.8,-0.448 1.30134,-1.01333 1.30134,-1.83467 0,-1.23734 -1.03467,-1.84534 -2.22934,-1.84534 -1.22668,0 -2.30401,0.77867 -2.30401,2.00534 0,0.84267 0.544,1.35467 1.29067,1.77067 -0.82134,0.416 -1.50401,1.04534 -1.50401,2.10134 0,1.18401 0.97067,2.08001 2.44268,2.08001 1.42934,0 2.51734,-0.85334 2.51734,-2.24001 z m -1.20534,-3.80801 c 0,0.61867 -0.49067,1.09867 -1.152,1.39734 -0.704,-0.29867 -1.36534,-0.70401 -1.36534,-1.40801 0,-0.56533 0.39467,-1.06667 1.26934,-1.06667 0.72533,0 1.248,0.40534 1.248,1.07734 z m 0.128,3.88268 c 0,0.75733 -0.53333,1.32267 -1.41867,1.32267 -0.832,0 -1.41867,-0.576 -1.41867,-1.34401 0,-0.75733 0.62934,-1.312 1.312,-1.6 0.85334,0.37333 1.52534,0.84267 1.52534,1.62134 z"
           style="font-style:normal;font-weight:normal;-inkscape-font-specification:'Parisine Std';text-align:start;text-anchor:start"
           id="path3028" /></g><g
         aria-label="8"
         id="text4418"
         style="font-style:italic;font-weight:bold;font-size:10.6667px;font-family:'Parisine Std';-inkscape-font-specification:'Parisine Std Bold Italic';text-align:end;text-anchor:end;display:inline;fill:#25303b;stroke-width:9.44882"><path
           d="m 228.23906,258.95628 c 0,-1.03467 -0.61867,-1.632 -1.51467,-2.03734 0.8,-0.448 1.30134,-1.01333 1.30134,-1.83467 0,-1.23734 -1.03467,-1.84534 -2.22934,-1.84534 -1.22667,0 -2.30401,0.77867 -2.30401,2.00534 0,0.84267 0.544,1.35467 1.29067,1.77067 -0.82134,0.416 -1.50401,1.04534 -1.50401,2.10134 0,1.18401 0.97067,2.08001 2.44268,2.08001 1.42934,0 2.51734,-0.85334 2.51734,-2.24001 z m -1.20534,-3.80801 c 0,0.61867 -0.49066,1.09867 -1.152,1.39734 -0.704,-0.29867 -1.36534,-0.704 -1.36534,-1.40801 0,-0.56533 0.39467,-1.06667 1.26934,-1.06667 0.72534,0 1.248,0.40534 1.248,1.07734 z m 0.128,3.88268 c 0,0.75733 -0.53333,1.32267 -1.41867,1.32267 -0.832,0 -1.41867,-0.576 -1.41867,-1.344 0,-0.75734 0.62934,-1.31201 1.31201,-1.60001 0.85333,0.37334 1.52533,0.84267 1.52533,1.62134 z"
           style="font-style:normal;font-weight:normal;-inkscape-font-specification:'Parisine Std';text-align:start;text-anchor:start"
           id="path3031" /></g><g
         aria-label="6"
         id="text4422"
         style="font-style:italic;font-weight:bold;font-size:10.6667px;font-family:'Parisine Std';-inkscape-font-specification:'Parisine Std Bold Italic';text-align:end;text-anchor:end;display:inline;fill:#25303b;stroke-width:9.44882"><path
           d="m 346.4097,258.65761 c 0,-1.38667 -0.96001,-2.22934 -2.26134,-2.22934 -0.81067,0 -1.37601,0.30934 -1.74934,0.66134 0.064,-1.57867 0.81067,-2.91201 2.28267,-2.91201 0.384,0 0.74667,0.096 0.98134,0.192 l 0.20266,-0.94934 c -0.32,-0.10666 -0.69333,-0.16 -1.088,-0.16 -2.44267,0 -3.45601,2.13334 -3.45601,4.54402 0,1.83467 0.65067,3.37068 2.62401,3.37068 1.46134,0 2.46401,-1.08801 2.46401,-2.51735 z m -1.04534,0.11734 c 0,0.81067 -0.56534,1.51467 -1.45067,1.51467 -1.06667,0 -1.52534,-0.93867 -1.52534,-1.82401 0,-0.20266 0,-0.416 0.0853,-0.544 0.192,-0.26667 0.67201,-0.608 1.38667,-0.608 0.91734,0 1.50401,0.608 1.50401,1.46134 z"
           style="font-style:normal;font-weight:normal;-inkscape-font-specification:'Parisine Std';text-align:start;text-anchor:start"
           id="path3034" /></g><g
         aria-label="6"
         id="text4691"
         style="font-style:italic;font-weight:bold;font-size:10.6667px;font-family:'Parisine Std';-inkscape-font-specification:'Parisine Std Bold Italic';text-align:end;text-anchor:end;display:inline;fill:#25303b;stroke-width:9.44882"><path
           d="m 399.77371,349.10937 c 0,-1.38667 -0.96,-2.22934 -2.26134,-2.22934 -0.81067,0 -1.37601,0.30933 -1.74934,0.66133 0.064,-1.57867 0.81067,-2.91201 2.28267,-2.91201 0.38401,0 0.74667,0.096 0.98134,0.192 l 0.20267,-0.94933 c -0.32,-0.10667 -0.69334,-0.16 -1.08801,-0.16 -2.44267,0 -3.45601,2.13334 -3.45601,4.54401 0,1.83467 0.65067,3.37068 2.62401,3.37068 1.46134,0 2.46401,-1.08801 2.46401,-2.51734 z m -1.04534,0.11733 c 0,0.81067 -0.56533,1.51467 -1.45067,1.51467 -1.06667,0 -1.52534,-0.93867 -1.52534,-1.824 0,-0.20267 0,-0.41601 0.0853,-0.54401 0.192,-0.26666 0.672,-0.608 1.38667,-0.608 0.91733,0 1.504,0.608 1.504,1.46134 z"
           style="font-style:normal;font-weight:normal;-inkscape-font-specification:'Parisine Std';text-align:start;text-anchor:start"
           id="path3037" /></g><g
         aria-label="7"
         id="text4695"
         style="font-style:italic;font-weight:bold;font-size:10.6667px;font-family:'Parisine Std';-inkscape-font-specification:'Parisine Std Bold Italic';text-align:end;text-anchor:end;display:inline;fill:#25303b;stroke-width:9.44882"><path
           d="m 197.73107,344.82137 v -0.91734 h -5.04535 v 0.94934 h 3.93601 l -2.00534,3.70134 c -0.62933,1.18401 -0.90667,1.96268 -0.90667,2.88001 h 1.16267 c 0,-1.344 1.06667,-3.39201 2.85868,-6.61335 z"
           style="font-style:normal;font-weight:normal;-inkscape-font-specification:'Parisine Std';text-align:start;text-anchor:start"
           id="path3040" /></g><a
         id="a10767"
         xlink:href="/lines/t03b"
         target="_parent"
         transform="matrix(3.7795271,0,0,3.7795271,189.92124,230.69216)"><g
           id="g23345"
           transform="matrix(0.01940035,0,0,0.01940035,28.5,26.500001)"><rect
             style="fill:#ffffff;fill-opacity:1;stroke-width:4.5568"
             id="rect346-9"
             width="283.5"
             height="235.46899"
             x="0"
             y="24.015503"
             ry="0" /><g
             id="g19374"><defs
               id="defs19365"><rect
                 id="rect25526"
                 width="283.5"
                 height="283.5"
                 x="0"
                 y="0" /></defs><clipPath
               id="clipPath23379"><use
                 xlink:href="#SVGID_1_-4"
                 style="overflow:visible"
                 id="use23377" /></clipPath><path
               d="m 156.8,199.7 c -15.6,0 -24.3,-3.9 -31.6,-8.2 l 8.5,-16.9 c 4.6,3.2 12.2,7.1 21.5,7.1 12.7,0 20.6,-7.4 20.6,-16.7 0,-12.5 -9.6,-16.9 -20.7,-16.9 H 143.8 V 130 h 11.4 c 10.7,0 17.3,-5.6 17.3,-13.9 0,-7 -5.3,-13.3 -16.7,-13.3 -10.1,0 -16.7,4.8 -20.3,7.9 l -7.9,-16.1 c 9.3,-6.2 19.3,-9.7 33.1,-9.7 22.3,0 35,13.3 35,27.8 0,11.3 -6,20.3 -17.6,24.6 v 0.3 c 12.1,2.3 21.2,11.6 21.2,26.9 0.1,19.3 -17.1,35.2 -42.5,35.2 m 86.5,-23.2 c -4.7,0 -10.1,-1.9 -13.3,-4.8 v 2.8 H 214.1 V 88.2 h 16.4 v 32.2 c 4.2,-6.1 9,-10.1 16.9,-10.1 16.3,0 23.1,17.4 23.1,32.4 0.1,14 -7.2,33.8 -27.2,33.8 m -2.1,-52 c -3.3,0 -5.8,1.4 -7.6,3.1 -2.8,2.7 -3.1,4.4 -3.1,8 v 21.1 c 0,4.3 2.6,8.2 10,8.2 10.5,0 13.1,-11.3 13.1,-19.8 0,-8.4 -2,-20.6 -12.4,-20.6 m -171.3,-17 v 89.6 H 45.8 V 107.5 H 12.2 V 87.9 h 91.3 v 19.6 z"
               clip-path="url(#SVGID_00000085972433664928841230000013839026464737200560_)"
               id="path19370" /><path
               style="fill:#00643c"
               d="M 269.3,42.5 H 14.2 C 6.3,42.5 0,36.2 0,28.3 V 14.2 C 0,6.3 6.3,0 14.2,0 h 255.1 c 7.8,0 14.2,6.3 14.2,14.2 v 14.2 c 0,7.8 -6.4,14.1 -14.2,14.1 m 14.2,226.8 v -14.2 c 0,-7.8 -6.3,-14.2 -14.2,-14.2 H 14.2 C 6.4,240.9 0,247.2 0,255.1 v 14.2 c 0,7.8 6.3,14.2 14.2,14.2 h 255.1 c 7.8,0 14.2,-6.4 14.2,-14.2"
               clip-path="url(#SVGID_00000085972433664928841230000013839026464737200560_)"
               id="path19372" /></g></g></a></g></g><metadata
     id="metadata1"><rdf:RDF><cc:Work
         rdf:about=""><cc:license
           rdf:resource="http://creativecommons.org/licenses/by/4.0/" /></cc:Work><cc:License
         rdf:about="http://creativecommons.org/licenses/by/4.0/"><cc:permits
           rdf:resource="http://creativecommons.org/ns#Reproduction" /><cc:permits
           rdf:resource="http://creativecommons.org/ns#Distribution" /><cc:requires
           rdf:resource="http://creativecommons.org/ns#Notice" /><cc:requires
           rdf:resource="http://creativecommons.org/ns#Attribution" /><cc:permits
           rdf:resource="http://creativecommons.org/ns#DerivativeWorks" /></cc:License></rdf:RDF></metadata><style
     type="text/css"
     id="style1">
	.st0{clip-path:url(#SVGID_00000058556901070580205580000017895544327468108430_);fill:#FFBE00;}
	.st1{clip-path:url(#SVGID_00000058556901070580205580000017895544327468108430_);}
</style><style
     type="text/css"
     id="style1-4">
	.st0{clip-path:url(#SVGID_00000058556901070580205580000017895544327468108430_);fill:#FFBE00;}
	.st1{clip-path:url(#SVGID_00000058556901070580205580000017895544327468108430_);}
</style><style
     type="text/css"
     id="style1-2">
	.st0{fill:#A0006E;}
	.st1{fill:#FFFFFF;}
</style><style
     type="text/css"
     id="style1-0">
	.st0{clip-path:url(#SVGID_00000131334851972091508770000011367278718466420621_);fill:#D282BE;}
	.st1{clip-path:url(#SVGID_00000131334851972091508770000011367278718466420621_);}
</style><style
     type="text/css"
     id="style1-09">
	.st0{fill:#A50034;}
	.st1{fill:#FFFFFF;}
</style><style
     type="text/css"
     id="style1-7">
	.st0{clip-path:url(#SVGID_00000079466003039703222920000011319790780502846111_);}
	.st1{clip-path:url(#SVGID_00000079466003039703222920000011319790780502846111_);fill:#A0006E;}
</style><style
     type="text/css"
     id="style1-6">
	.st0{fill:#A50034;}
	.st1{fill:#FFFFFF;}
</style><style
     type="text/css"
     id="style1-65">
	.st0{fill:#A0006E;}
	.st1{fill:#FFFFFF;}
</style><style
     type="text/css"
     id="style1-9">
	.st0{fill:#A50034;}
	.st1{fill:#FFFFFF;}
</style><style
     type="text/css"
     id="style1-1">
	.st0{fill:#A0006E;}
	.st1{fill:#FFFFFF;}
</style><style
     type="text/css"
     id="style1-08">
	.st0{fill:#A0006E;}
	.st1{fill:#FFFFFF;}
</style><style
     type="text/css"
     id="style1-8">
	.st0{fill:#A0006E;}
	.st1{fill:#FFFFFF;}
</style><style
     type="text/css"
     id="style1-61">
	.st0{fill:#A50034;}
	.st1{fill:#FFFFFF;}
</style><style
     type="text/css"
     id="style1-81">
	.st0{fill:#A0006E;}
	.st1{fill:#FFFFFF;}
</style><style
     type="text/css"
     id="style1-3">
	.st0{fill:#A50034;}
	.st1{fill:#FFFFFF;}
</style><style
     type="text/css"
     id="style1-44">
	.st0{fill:#00643C;}
	.st1{fill:#FFFFFF;}
</style><style
     type="text/css"
     id="style1-17">
	.st0{fill:#FF1400;}
	.st1{fill:#FFFFFF;}
</style><style
     type="text/css"
     id="style1-21">
	.st0{fill:#A0006E;}
	.st1{fill:#FFFFFF;}
</style><style
     type="text/css"
     id="style1-5">
	.st0{fill:#A50034;}
	.st1{fill:#FFFFFF;}
</style><style
     type="text/css"
     id="style1-91">
	.st0{clip-path:url(#SVGID_00000098201985115563230220000009768346319938619311_);fill:#FFBE00;}
	.st1{clip-path:url(#SVGID_00000098201985115563230220000009768346319938619311_);}
</style><style
     type="text/css"
     id="style1-42">
	.st0{clip-path:url(#SVGID_00000183928663309176120780000013104923171821238933_);}
	.st1{clip-path:url(#SVGID_00000183928663309176120780000013104923171821238933_);fill:#00643C;}
</style><style
     type="text/css"
     id="style1-05">
	.st0{fill:#0055C8;}
	.st1{fill:#FFFFFF;}
</style><style
     type="text/css"
     id="style1-83">
	.st0{fill:#A0006E;}
	.st1{fill-rule:evenodd;clip-rule:evenodd;fill:#FFFFFF;}
</style><style
     type="text/css"
     id="style1-919">
	.st0{clip-path:url(#SVGID_00000078731935693763607030000003548581607173110711_);fill:#FF5A00;}
	.st1{clip-path:url(#SVGID_00000078731935693763607030000003548581607173110711_);}
</style><style
     type="text/css"
     id="style1-02">
	.st0{clip-path:url(#SVGID_00000150096942023713765520000004993609588893754020_);fill:#82DC73;}
	.st1{clip-path:url(#SVGID_00000150096942023713765520000004993609588893754020_);fill-rule:evenodd;clip-rule:evenodd;}
</style><style
     type="text/css"
     id="style1-46">
	.st0{clip-path:url(#SVGID_00000181044846058177552090000002983133674048675473_);fill:#FF82B4;}
	.st1{clip-path:url(#SVGID_00000181044846058177552090000002983133674048675473_);}
</style><style
     type="text/css"
     id="style1-92">
	.st0{clip-path:url(#SVGID_00000072993926488918334570000006738583468680211134_);fill:#D282BE;}
	.st1{clip-path:url(#SVGID_00000072993926488918334570000006738583468680211134_);fill-rule:evenodd;clip-rule:evenodd;}
</style><style
     type="text/css"
     id="style1-33">
	.st0{clip-path:url(#SVGID_00000064339783262407986210000012222916478051048107_);fill:#D2D200;}
	.st1{clip-path:url(#SVGID_00000064339783262407986210000012222916478051048107_);fill-rule:evenodd;clip-rule:evenodd;}
</style><style
     type="text/css"
     id="style1-87">
	.st0{fill:#6E491E;}
	.st1{fill:#FFFFFF;}
</style><style
     type="text/css"
     id="style1-37">
	.st0{fill:#00643C;}
	.st1{fill:#FFFFFF;}
</style><style
     type="text/css"
     id="style1-658">
	.st0{clip-path:url(#SVGID_00000049915170247895469800000011701411972755834513_);fill:#82C8E6;}
	.st1{clip-path:url(#SVGID_00000049915170247895469800000011701411972755834513_);}
</style><style
     type="text/css"
     id="style1-086">
	.st0{fill:#640082;}
	.st1{fill:#FFFFFF;}
</style><style
     type="text/css"
     id="style1-928">
	.st0{fill:#3C91DC;}
	.st1{fill:#FFFFFF;}
</style><style
     type="text/css"
     id="style1-15">
	.st0{fill:#00643C;}
	.st1{fill:#FFFFFF;}
</style><style
     type="text/css"
     id="style1-49">
	.st0{clip-path:url(#SVGID_00000166649342556954638810000014838129240428119200_);fill:#FF82B4;}
	.st1{clip-path:url(#SVGID_00000166649342556954638810000014838129240428119200_);}
</style><style
     type="text/css"
     id="style1-97">
	.st0{clip-path:url(#SVGID_00000163768187711672257180000008667317082056967563_);}
	.st1{clip-path:url(#SVGID_00000163768187711672257180000008667317082056967563_);fill:#FF5A00;}
</style><style
     type="text/css"
     id="style1-36">
	.st0{clip-path:url(#SVGID_00000058556901070580205580000017895544327468108430_);fill:#FFBE00;}
	.st1{clip-path:url(#SVGID_00000058556901070580205580000017895544327468108430_);}
</style><style
     type="text/css"
     id="style1-69">
	.st0{fill:#A50034;}
	.st1{fill:#FFFFFF;}
</style><style
     type="text/css"
     id="style1-12">
	.st0{clip-path:url(#SVGID_00000145737393370230384210000000292656057530498699_);}
	.st1{clip-path:url(#SVGID_00000145737393370230384210000000292656057530498699_);fill:#0055C8;}
</style></svg>
