<?xml version="1.0" encoding="UTF-8" standalone="no"?>
<!-- Created with Inkscape (http://www.inkscape.org/) -->

<svg
   width="298.10132mm"
   height="95.029251mm"
   viewBox="0 0 298.10132 95.029248"
   version="1.1"
   id="svg5"
   xml:space="preserve"
   sodipodi:docname="journal-metropolitain.svg"
   inkscape:version="1.2.2 (b0a8486541, 2022-12-01)"
   inkscape:export-filename="periscofer.png"
   inkscape:export-xdpi="163.60001"
   inkscape:export-ydpi="163.60001"
   xmlns:inkscape="http://www.inkscape.org/namespaces/inkscape"
   xmlns:sodipodi="http://sodipodi.sourceforge.net/DTD/sodipodi-0.dtd"
   xmlns:xlink="http://www.w3.org/1999/xlink"
   xmlns="http://www.w3.org/2000/svg"
   xmlns:svg="http://www.w3.org/2000/svg"><sodipodi:namedview
     id="namedview7"
     pagecolor="#505050"
     bordercolor="#eeeeee"
     borderopacity="1"
     inkscape:showpageshadow="0"
     inkscape:pageopacity="0"
     inkscape:pagecheckerboard="0"
     inkscape:deskcolor="#d1d1d1"
     inkscape:document-units="mm"
     showgrid="false"
     inkscape:zoom="0.95570063"
     inkscape:cx="505.38839"
     inkscape:cy="251.12466"
     inkscape:window-width="1920"
     inkscape:window-height="1008"
     inkscape:window-x="0"
     inkscape:window-y="0"
     inkscape:window-maximized="1"
     inkscape:current-layer="layer1"
     showguides="true" /><defs
     id="defs2"><inkscape:path-effect
       effect="bspline"
       id="path-effect14456"
       is_visible="true"
       lpeversion="1"
       weight="33.333333"
       steps="2"
       helper_size="0"
       apply_no_weight="true"
       apply_with_weight="true"
       only_selected="false" /><inkscape:path-effect
       effect="skeletal"
       id="path-effect14452"
       is_visible="true"
       lpeversion="1"
       pattern="M 0,4.9921384 C 0,2.236478 2.236478,0 4.9921384,0 c 2.7556605,0 4.9921385,2.236478 4.9921385,4.9921384 0,2.7556605 -2.236478,4.9921385 -4.9921385,4.9921385 C 2.236478,9.9842769 0,7.7477989 0,4.9921384 Z"
       copytype="single_stretched"
       prop_scale="1"
       scale_y_rel="false"
       spacing="0"
       normal_offset="0"
       tang_offset="0"
       prop_units="false"
       vertical_pattern="false"
       hide_knot="false"
       fuse_tolerance="0" /><inkscape:path-effect
       effect="skeletal"
       id="path-effect14448"
       is_visible="true"
       lpeversion="1"
       pattern="M 0,4.9921384 C 0,2.236478 2.236478,0 4.9921384,0 c 2.7556605,0 4.9921385,2.236478 4.9921385,4.9921384 0,2.7556605 -2.236478,4.9921385 -4.9921385,4.9921385 C 2.236478,9.9842769 0,7.7477989 0,4.9921384 Z"
       copytype="single_stretched"
       prop_scale="1"
       scale_y_rel="false"
       spacing="0"
       normal_offset="0"
       tang_offset="0"
       prop_units="false"
       vertical_pattern="false"
       hide_knot="false"
       fuse_tolerance="0" /><inkscape:path-effect
       effect="skeletal"
       id="path-effect14444"
       is_visible="true"
       lpeversion="1"
       pattern="M 0,4.9921384 C 0,2.236478 2.236478,0 4.9921384,0 c 2.7556605,0 4.9921385,2.236478 4.9921385,4.9921384 0,2.7556605 -2.236478,4.9921385 -4.9921385,4.9921385 C 2.236478,9.9842769 0,7.7477989 0,4.9921384 Z"
       copytype="single_stretched"
       prop_scale="1"
       scale_y_rel="false"
       spacing="0"
       normal_offset="0"
       tang_offset="0"
       prop_units="false"
       vertical_pattern="false"
       hide_knot="false"
       fuse_tolerance="0" /><linearGradient
       inkscape:collect="always"
       id="linearGradient3501"><stop
         style="stop-color:#2e1a47;stop-opacity:1;"
         offset="0"
         id="stop3497" /><stop
         style="stop-color:#0a0057;stop-opacity:1;"
         offset="1"
         id="stop3499" /></linearGradient><inkscape:path-effect
       effect="bspline"
       id="path-effect2650"
       is_visible="true"
       lpeversion="1"
       weight="33.333333"
       steps="2"
       helper_size="0"
       apply_no_weight="true"
       apply_with_weight="true"
       only_selected="false" /><linearGradient
       inkscape:collect="always"
       xlink:href="#linearGradient3501"
       id="linearGradient3503"
       x1="16.668598"
       y1="59.616329"
       x2="249.78387"
       y2="59.616329"
       gradientUnits="userSpaceOnUse"
       gradientTransform="matrix(1.2787721,0,0,0.95411338,-4.6467402,13.258993)" /><filter
       style="color-interpolation-filters:sRGB"
       inkscape:label="Drop Shadow"
       id="filter6085"
       x="-0.1615735"
       y="-0.61435753"
       width="1.4039338"
       height="2.5358939"><feFlood
         flood-opacity="0.498039"
         flood-color="rgb(0,0,0)"
         result="flood"
         id="feFlood6075" /><feComposite
         in="flood"
         in2="SourceGraphic"
         operator="in"
         result="composite1"
         id="feComposite6077" /><feGaussianBlur
         in="composite1"
         stdDeviation="5"
         result="blur"
         id="feGaussianBlur6079" /><feOffset
         dx="6"
         dy="6"
         result="offset"
         id="feOffset6081" /><feComposite
         in="SourceGraphic"
         in2="offset"
         operator="over"
         result="fbSourceGraphic"
         id="feComposite6083" /><feColorMatrix
         result="fbSourceGraphicAlpha"
         in="fbSourceGraphic"
         values="0 0 0 -1 0 0 0 0 -1 0 0 0 0 -1 0 0 0 0 1 0"
         id="feColorMatrix6087" /><feFlood
         id="feFlood6089"
         flood-opacity="0.498039"
         flood-color="rgb(0,0,0)"
         result="flood"
         in="fbSourceGraphic" /><feComposite
         in2="fbSourceGraphic"
         id="feComposite6091"
         in="flood"
         operator="in"
         result="composite1" /><feGaussianBlur
         id="feGaussianBlur6093"
         in="composite1"
         stdDeviation="5"
         result="blur" /><feOffset
         id="feOffset6095"
         dx="6"
         dy="6"
         result="offset" /><feComposite
         in2="offset"
         id="feComposite6097"
         in="fbSourceGraphic"
         operator="over"
         result="composite2" /></filter><filter
       style="color-interpolation-filters:sRGB"
       inkscape:label="Drop Shadow"
       id="filter7126"
       x="-7.8428402e-06"
       y="-2.9821153e-05"
       width="1.0404091"
       height="1.153649"><feFlood
         flood-opacity="0.12549"
         flood-color="rgb(0,0,0)"
         result="flood"
         id="feFlood7116" /><feComposite
         in="flood"
         in2="SourceGraphic"
         operator="in"
         result="composite1"
         id="feComposite7118" /><feGaussianBlur
         in="composite1"
         stdDeviation="0.00048540384"
         result="blur"
         id="feGaussianBlur7120" /><feOffset
         dx="6"
         dy="6"
         result="offset"
         id="feOffset7122" /><feComposite
         in="SourceGraphic"
         in2="offset"
         operator="over"
         result="composite2"
         id="feComposite7124" /></filter><clipPath
       id="SVGID_00000135691296135118220300000007282337375253646227_">
		<use
   xlink:href="#SVGID_1_"
   style="overflow:visible"
   id="use1528" />
	</clipPath><clipPath
       id="clipPath1669">
		<use
   xlink:href="#SVGID_1_"
   style="overflow:visible"
   id="use1667" />
	</clipPath><rect
       id="SVGID_1_"
       width="283.5"
       height="283.5"
       x="0"
       y="0" /><clipPath
       id="SVGID_00000124840597065488903460000005481875429875956626_">
		<use
   xlink:href="#SVGID_1_"
   style="overflow:visible;"
   id="use6804" />
	</clipPath></defs><g
     inkscape:label="Calque 1"
     inkscape:groupmode="layer"
     id="layer1"
     transform="translate(-16.668598,-22.625103)"><rect
       style="fill:url(#linearGradient3503);fill-opacity:1;stroke-width:2.97923"
       id="rect234"
       width="298.10132"
       height="95.029251"
       x="16.668598"
       y="22.625103" /><g
       aria-label="obiFer"
       id="text6287"
       style="font-weight:bold;font-size:50.8px;font-family:'Parisine Std';-inkscape-font-specification:'Parisine Std Bold';fill:#ffffff;stroke-width:13;filter:url(#filter7126)" /><path
       style="fill:none;fill-opacity:1;stroke:#a50034;stroke-width:13;stroke-linecap:butt;stroke-dasharray:none;stroke-opacity:1"
       d="M 145.23986,77.040105 V 50.006933 c 0,0 -0.46335,-15.267209 15.26722,-15.267209 l 12.98762,0"
       id="path14458"
       sodipodi:nodetypes="ccsc" /><ellipse
       style="fill:#a50034;fill-opacity:1;stroke:none;stroke-width:7.63812;stroke-dasharray:none;stroke-opacity:1"
       id="ellipse9039"
       transform="rotate(-90)"
       cy="173.49294"
       cx="-34.740536"
       rx="6.4962215"
       ry="4.0544968" /><ellipse
       style="fill:#ffffff;fill-opacity:1;stroke:none;stroke-width:7.63812;stroke-dasharray:none;stroke-opacity:1"
       id="circle13428"
       transform="rotate(-90)"
       cy="172.69069"
       cx="-34.73822"
       rx="5"
       ry="3.1163802" /><text
       xml:space="preserve"
       style="font-style:italic;font-weight:bold;font-size:3.53788px;font-family:'Grand Paris';-inkscape-font-specification:'Grand Paris Bold Italic';text-align:center;text-anchor:middle;fill:#c4cc15;stroke-width:0.385762;stroke-linecap:round;stroke-linejoin:round;stroke-dasharray:3.0861, 1.54305;paint-order:markers stroke fill"
       x="109.6218"
       y="104.55103"
       id="text883"><tspan
         sodipodi:role="line"
         id="tspan881"
         style="stroke-width:0.385762"
         x="109.6218"
         y="104.55103" /></text><path
       style="fill:none;fill-opacity:1;stroke:#a50034;stroke-width:13;stroke-linecap:round;stroke-dasharray:none;stroke-opacity:1"
       d="m 145.2323,75.864727 v 15.183909 c 0,0 0.46335,15.267204 -15.26722,15.267204 H 114.4332"
       id="path3323"
       sodipodi:nodetypes="ccsc" /><circle
       style="fill:#ffad00;fill-opacity:1;stroke:none;stroke-width:7.63812;stroke-dasharray:none;stroke-opacity:1"
       id="path12698"
       cx="114.95174"
       cy="106.42986"
       r="5" /><g
       id="g1535"
       transform="matrix(0.21164021,0,0,0.21164021,26.876788,40.139728)"
       style="stroke-width:1.25015">
	<defs
   id="defs1526">
		<rect
   id="rect1732"
   width="283.5"
   height="283.5"
   x="0"
   y="0" />
	</defs>
	<clipPath
   id="clipPath1677">
		<use
   xlink:href="#SVGID_1_"
   style="overflow:visible"
   id="use1675" />
	</clipPath>
	<path
   style="fill:#ff5a00;stroke-width:1.25015"
   d="M 219.7,283.5 H 63.8 C 28.6,283.5 0,254.9 0,219.7 V 63.8 C 0,28.6 28.6,0 63.8,0 h 155.9 c 35.2,0 63.8,28.6 63.8,63.8 v 155.9 c 0,35.2 -28.6,63.8 -63.8,63.8"
   clip-path="url(#SVGID_00000135691296135118220300000007282337375253646227_)"
   id="path1531" />
	<path
   d="m 144,163.9 h -15.3 v 52.7 H 95.5 V 66.5 h 46.1 c 34.7,0 64.4,9.4 64.4,46.6 0.1,43.6 -36.2,50.8 -62,50.8 m -0.4,-71.6 h -14.9 v 46.1 H 144 c 12.3,0 28.5,-3.8 28.5,-23.2 0,-20.4 -17.8,-22.9 -28.9,-22.9"
   clip-path="url(#SVGID_00000135691296135118220300000007282337375253646227_)"
   id="path1533"
   style="stroke-width:1.25015" />
</g><text
       xml:space="preserve"
       style="font-style:italic;font-weight:bold;font-size:50.8px;font-family:'Grand Paris';-inkscape-font-specification:'Grand Paris Bold Italic';text-align:start;text-anchor:start;fill:#c4cc15;stroke-width:0.385762;stroke-linecap:round;stroke-linejoin:round;stroke-dasharray:3.0861, 1.54305;paint-order:markers stroke fill"
       x="89.184174"
       y="88.569916"
       id="text1750"><tspan
         sodipodi:role="line"
         id="tspan1748"
         style="font-style:normal;font-variant:normal;font-weight:bold;font-stretch:normal;font-size:50.8px;font-family:'Parisine Std';-inkscape-font-specification:'Parisine Std, Bold';font-variant-ligatures:normal;font-variant-caps:normal;font-variant-numeric:normal;font-variant-east-asian:normal;text-align:start;text-anchor:start;fill:#ffffff;fill-opacity:1;stroke-width:0.385762"
         x="89.184174"
         y="88.569916">érısc  Fer</tspan></text><g
       id="g10850"
       transform="matrix(0.04586185,0,0,0.04586023,194.21366,28.23822)"
       style="stroke-width:5.08824"><path
         fill="#ffffff"
         d="M 0,9.21 H 283.46 V 274.25 H 0 Z"
         id="path10352"
         style="stroke-width:7.5554" /><rect
         fill="#25303B"
         width="283.45999"
         height="18.43"
         rx="9.21"
         id="rect10354"
         style="fill:#000000;fill-opacity:1;stroke-width:5.08824"
         x="0"
         y="0" /><rect
         fill="#25303B"
         width="283.45999"
         height="18.43"
         rx="9.21"
         y="265.04001"
         id="rect10356"
         style="fill:#000000;fill-opacity:1;stroke-width:5.08824"
         x="0" /><path
         fill="#25303B"
         d="m 28.35,212.6 h 185.7 a 41.55,41.55 0 0 0 37.54,-23.41 35.42,35.42 0 0 0 3.17,-20.56 111.89,111.89 0 0 0 -28.41,-60.39 27.67,27.67 0 0 0 -20.43,-9 h -98 L 128.47,82.3 a 5,5 0 0 0 0,-7.66 L 92.33,45 a 3.21,3.21 0 0 0 -4.52,0.44 l -2,2.48 a 3.22,3.22 0 0 0 0.44,4.53 L 118,78.47 92.72,99.21 H 28.35 V 112 h 41.24 a 2,2 0 0 1 2,2 v 54.8 a 2,2 0 0 1 -2,2 H 28.35 Z m 188.48,-95.88 a 99.3,99.3 0 0 1 22.94,41.9 c 1.77,6.7 -2.36,12.17 -9.3,12.17 h -59.12 a 2,2 0 0 1 -2,-2 V 114 a 2,2 0 0 1 2,-2 h 34.57 a 14.79,14.79 0 0 1 10.91,4.75 m -62.2,83.12 h -25.79 a 2,2 0 0 1 -2,-2 V 114 a 2,2 0 0 1 2,-2 h 25.79 a 2,2 0 0 1 2,2 v 83.91 a 2,2 0 0 1 -2,2 M 86.31,112 h 25.8 a 2,2 0 0 1 2,2 v 83.91 a 2,2 0 0 1 -2,2 h -25.8 a 2,2 0 0 1 -2,-2 V 114 a 2,2 0 0 1 2,-2 M 251.15,235.84 H 28.35 v -11.9 h 222.8 a 4,4 0 0 1 4,4 v 4 a 4,4 0 0 1 -4,4"
         id="path10358"
         style="fill:#000000;fill-opacity:1;stroke-width:5.08824" /></g><g
       id="g8242"
       transform="matrix(0.0458617,0,0,0.0458617,179.19735,28.23822)"
       style="stroke-width:5.08815"><g
         id="path7447"
         style="stroke-width:5.08815"><path
           style="color:#000000;fill:#ffffff;stroke-width:93.7717;-inkscape-stroke:none"
           d="M 274.24544,141.73 A 132.51544,132.51544 0 0 1 141.73,274.24544 132.51544,132.51544 0 0 1 9.2145538,141.73 132.51544,132.51544 0 0 1 141.73,9.2145538 132.51544,132.51544 0 0 1 274.24544,141.73 Z"
           id="path8234" /><path
           style="color:#000000;fill:#000000;stroke-width:5.08815;-inkscape-stroke:none"
           d="M 141.73047,0 C 63.564296,0 0,63.564296 0,141.73047 c 0,78.16617 63.564296,141.73047 141.73047,141.73047 78.16617,0 141.73047,-63.5643 141.73047,-141.73047 C 283.46094,63.564296 219.89664,0 141.73047,0 Z m 0,18.429687 c 68.20619,10e-7 123.30078,55.094586 123.30078,123.300783 0,68.20619 -55.09459,123.30078 -123.30078,123.30078 -68.206197,0 -123.300783,-55.09459 -123.300783,-123.30078 10e-7,-68.206197 55.094586,-123.300783 123.300783,-123.300783 z"
           id="path8236" /></g><path
         fill="#25303B"
         d="M 212.25,205.15 V 81.5 c 0,-7.09 -3.9,-14.53 -15.6,-14.53 -8.85,0 -12.4,3.9 -16.29,11.69 l -38.27,79.73 h -0.35 L 103.11,78.66 C 99.21,70.87 95.67,67 86.81,67 75.12,67 71.22,74.41 71.22,81.5 v 123.65 c 0,6.74 5.32,10.64 11.7,10.64 5.66,0 12,-3.9 12,-10.64 V 113 h 0.36 l 35.12,71.6 c 2.47,5 5.67,7.8 11.34,7.8 5.67,0 8.85,-2.84 11.33,-7.8 L 188.15,113 h 0.36 v 92.12 c 0,6.74 6.37,10.64 12.05,10.64 6.37,0 11.69,-3.9 11.69,-10.64"
         id="path7748"
         style="fill:#000000;fill-opacity:1;stroke-width:5.08815" /></g><g
       id="g11733"
       transform="matrix(0.0458617,0,0,0.0458617,209.22997,28.23822)"
       style="stroke-width:5.08815"><g
         id="rect9258"
         style="stroke-width:5.08815"><path
           style="color:#000000;fill:#ffffff;stroke-width:93.8511;-inkscape-stroke:none"
           d="M 63.787498,9.2224998 H 219.67252 c 30.22901,0 54.56499,24.3359892 54.56499,54.5649982 V 219.67252 c 0,30.22901 -24.33598,54.56499 -54.56499,54.56499 H 63.787498 c -30.229009,0 -54.5649982,-24.33598 -54.5649982,-54.56499 V 63.787498 c 0,-30.229009 24.3359892,-54.5649982 54.5649982,-54.5649982 z"
           id="path11717" /><path
           style="color:#000000;fill:#000000;stroke-width:5.08815;-inkscape-stroke:none"
           d="M 63.787109,0 C 28.608394,0 0,28.608394 0,63.787109 V 219.67187 c 0,35.17872 28.608394,63.78907 63.787109,63.78907 H 219.67187 c 35.17872,0 63.78907,-28.61035 63.78907,-63.78907 V 63.787109 C 283.46094,28.608394 254.85059,0 219.67187,0 Z m 0,18.445312 H 219.67187 c 25.27925,0 45.34375,20.062555 45.34375,45.341797 V 219.67187 c 0,25.27925 -20.0645,45.34375 -45.34375,45.34375 H 63.787109 c -25.279242,0 -45.341797,-20.0645 -45.341797,-45.34375 V 63.787109 c 0,-25.279242 20.062555,-45.341797 45.341797,-45.341797 z"
           id="path11719" /></g><path
         fill="#25303B"
         d="m 243.43,119.77 c 0,-19.13 -14.18,-28 -28,-28 h -26.57 c -5,0 -7.79,3.89 -7.79,8.15 v 83.28 c 0,5 5,7.43 9.56,7.43 5.32,0 9.57,-2.47 9.57,-7.43 V 151 h 8.15 l 15.94,35.78 a 7,7 0 0 0 6.74,3.89 c 5.66,0 13.82,-5.31 10.63,-11.68 L 226.42,147.1 c 9.21,-4.62 17,-12.76 17,-27.29 m -71.92,61.61 c 0,-4.26 -2.84,-8.85 -7.8,-8.85 h -26.93 v -24.45 h 22.32 a 7.93,7.93 0 0 0 7.8,-8.15 c 0,-4.25 -2.84,-8.16 -7.8,-8.16 h -22.32 v -22.32 h 24.81 c 5,0 7.79,-5 7.79,-8.85 0,-4.26 -2.83,-8.86 -7.79,-8.86 h -36.15 c -5,0 -7.79,3.89 -7.79,8.15 v 82.91 c 0,5 5,7.44 9.57,7.44 h 36.49 c 5,0 7.8,-5 7.8,-8.86 m -65.21,-61.65 c 0,-19.13 -14.16,-28 -28,-28 H 51.73 c -4.95,0 -7.79,3.89 -7.79,8.15 v 83.28 c 0,5 5,7.43 9.56,7.43 5.31,0 9.56,-2.47 9.56,-7.43 V 151 h 8.16 l 16,35.78 a 7,7 0 0 0 6.73,3.89 c 5.67,0 13.81,-5.31 10.63,-11.68 L 89.29,147.06 c 9.22,-4.62 17,-12.76 17,-27.29 m 117.29,2.13 c 0,12 -11,14.87 -17.71,14.87 h -5.67 v -28.7 h 6.72 c 8.87,0 16.66,3.91 16.66,13.83 m -137.12,0 c 0,12 -11,14.87 -17.72,14.87 h -5.68 v -28.7 h 6.75 c 8.85,0 16.65,3.91 16.65,13.83"
         id="path9260"
         style="fill:#000000;fill-opacity:1;stroke-width:5.08815" /></g><g
       id="g14596"
       transform="matrix(0.0458617,0,0,0.0458617,224.24628,28.23822)"
       style="stroke-width:5.08815"><g
         id="rect9803"
         style="stroke-width:5.08815"><path
           style="color:#000000;fill:#ffffff;stroke-width:93.8511;-inkscape-stroke:none"
           d="M 63.787498,9.2224998 H 219.67252 c 30.22901,0 54.56499,24.3359892 54.56499,54.5649982 V 219.67252 c 0,30.22901 -24.33598,54.56499 -54.56499,54.56499 H 63.787498 c -30.229009,0 -54.5649982,-24.33598 -54.5649982,-54.56499 V 63.787498 c 0,-30.229009 24.3359892,-54.5649982 54.5649982,-54.5649982 z"
           id="path14588" /><path
           style="color:#000000;fill:#000000;stroke-width:5.08815;-inkscape-stroke:none"
           d="M 63.787109,0 C 28.608394,0 0,28.608394 0,63.787109 V 219.67187 c 0,35.17872 28.608394,63.78907 63.787109,63.78907 H 219.67187 c 35.17872,0 63.78907,-28.61035 63.78907,-63.78907 V 63.787109 C 283.46094,28.608394 254.85059,0 219.67187,0 Z m 0,18.445312 H 219.67187 c 25.27925,0 45.34375,20.062555 45.34375,45.341797 V 219.67187 c 0,25.27925 -20.0645,45.34375 -45.34375,45.34375 H 63.787109 c -25.279242,0 -45.341797,-20.0645 -45.341797,-45.34375 V 63.787109 c 0,-25.279242 20.062555,-45.341797 45.341797,-45.341797 z"
           id="path14590" /></g><path
         fill="#25303B"
         d="m 183.87,204.6 a 13.27,13.27 0 0 0 1.67,-1.29 c 5.09,-4.13 9.85,-10.45 13.31,-20.25 4.83,-13.73 8.24,-26 9.18,-41.12 1.31,-18.6 -6.35,-47.53 -11.43,-61 l -1.77,-4.75 c -1.09,-3 -5.26,-9.47 -12.65,-17.18 -6.36,-6.62 -12.47,-7.11 -21.77,-7.11 h -37.76 c -9.3,0 -15.4,0.49 -21.77,7.11 -7.4,7.68 -11.57,14.15 -12.65,17.18 l -1.78,4.78 C 81.37,94.41 73.72,123.34 75,142 c 0.94,15.06 4.36,27.31 9.21,41.09 3.45,9.82 8.2,16.12 13.3,20.25 a 16.88,16.88 0 0 0 1.69,1.27 l -27.5,30.58 a 6.87,6.87 0 0 0 0,9 5.31,5.31 0 0 0 8.06,0 l 9.5,-10.54 H 193.8 l 9.48,10.54 a 5.32,5.32 0 0 0 8.07,0 6.89,6.89 0 0 0 0,-9 z m -9.23,-11.15 a 9.44,9.44 0 1 1 9.45,-9.45 9.46,9.46 0 0 1 -9.45,9.45 M 89.16,132.9 c -5.77,0 3.3,-50.66 7.43,-50.66 h 88.85 c 4.49,0 15,50.66 8,50.66 z m 9.62,51.1 a 9.45,9.45 0 1 1 9.45,9.45 9.44,9.44 0 0 1 -9.45,-9.45 m 1.92,36.9 10.12,-11.25 a 55.65,55.65 0 0 0 12.8,1.13 h 35.82 a 55.57,55.57 0 0 0 12.79,-1.13 l 10.13,11.25 z"
         id="path9805"
         style="fill:#000000;fill-opacity:1;stroke-width:5.08815" /></g><path
       style="fill:#82c8e6;stroke-width:3.82600649;stroke-dasharray:none"
       d="M 0,141.7 C 0,63.5 63.5,0 141.7,0 220,0 283.5,63.5 283.5,141.7 283.5,220 220.1,283.4 141.8,283.4 63.5,283.5 0,220 0,141.7"
       clip-path="url(#SVGID_00000124840597065488903460000005481875429875956626_)"
       id="path6807"
       transform="matrix(0.06926282,0,0,0.06926282,205.93288,65.37712)" /><circle
       style="fill:none;stroke:#ffffff;stroke-width:4.99999;stroke-linejoin:round;stroke-dasharray:none;stroke-dashoffset:0;stroke-opacity:1;paint-order:markers stroke fill"
       id="path6663"
       cx="215.75089"
       cy="75.191666"
       r="11.86788" /><path
       style="fill:#000000;fill-opacity:1;stroke:none;stroke-width:5.75435;stroke-dasharray:none;stroke-opacity:1"
       d="M 0,141.7 C 0,63.5 63.5,0 141.7,0 220,0 283.5,63.5 283.5,141.7 283.5,220 220.1,283.4 141.8,283.4 63.5,283.5 0,220 0,141.7"
       clip-path="url(#SVGID_00000124840597065488903460000005481875429875956626_)"
       id="path6972"
       transform="matrix(0.04605209,0,0,0.04605209,209.223,68.666082)" /><text
       xml:space="preserve"
       style="font-style:italic;font-weight:bold;font-size:9.87778px;font-family:'Grand Paris';-inkscape-font-specification:'Grand Paris Bold Italic';text-align:end;text-anchor:end;fill:#c4cc15;stroke-width:0.385762;stroke-linecap:round;stroke-linejoin:round;stroke-dasharray:3.0861, 1.54305;paint-order:markers stroke fill"
       x="304.92761"
       y="99.990288"
       id="text7058"><tspan
         sodipodi:role="line"
         id="tspan7056"
         style="font-style:italic;font-variant:normal;font-weight:bold;font-stretch:normal;font-size:9.87778px;font-family:'Parisine Std';-inkscape-font-specification:'Parisine Std Bold Italic';font-variant-ligatures:normal;font-variant-caps:normal;font-variant-numeric:normal;font-variant-east-asian:normal;text-align:end;text-anchor:end;fill:#ffffff;fill-opacity:1;stroke-width:0.385762"
         x="304.92761"
         y="99.990288"
         dy="2.5">Le périscope</tspan><tspan
         sodipodi:role="line"
         style="font-style:italic;font-variant:normal;font-weight:bold;font-stretch:normal;font-size:9.87778px;font-family:'Parisine Std';-inkscape-font-specification:'Parisine Std Bold Italic';font-variant-ligatures:normal;font-variant-caps:normal;font-variant-numeric:normal;font-variant-east-asian:normal;text-align:end;text-anchor:end;fill:#ffffff;fill-opacity:1;stroke-width:0.385762"
         x="304.92761"
         y="112.61409"
         id="tspan7274">des transports franciliens</tspan></text></g><style
     type="text/css"
     id="style1">
	.st0{fill:#A50034;}
	.st1{fill:#FFFFFF;}
</style></svg>
