<?xml version="1.0" encoding="UTF-8" standalone="no"?>
<!-- Created with Inkscape (http://www.inkscape.org/) -->

<svg
   width="298.10132mm"
   height="95.029251mm"
   viewBox="0 0 298.10132 95.029248"
   version="1.1"
   id="svg5"
   xml:space="preserve"
   sodipodi:docname="periscofer-vector.svg"
   inkscape:version="1.2.2 (b0a8486541, 2022-12-01)"
   inkscape:export-filename="banner.png"
   inkscape:export-xdpi="209.20122"
   inkscape:export-ydpi="209.20122"
   xmlns:inkscape="http://www.inkscape.org/namespaces/inkscape"
   xmlns:sodipodi="http://sodipodi.sourceforge.net/DTD/sodipodi-0.dtd"
   xmlns:xlink="http://www.w3.org/1999/xlink"
   xmlns="http://www.w3.org/2000/svg"
   xmlns:svg="http://www.w3.org/2000/svg"><sodipodi:namedview
     id="namedview7"
     pagecolor="#505050"
     bordercolor="#eeeeee"
     borderopacity="1"
     inkscape:showpageshadow="0"
     inkscape:pageopacity="0"
     inkscape:pagecheckerboard="0"
     inkscape:deskcolor="#d1d1d1"
     inkscape:document-units="mm"
     showgrid="false"
     inkscape:zoom="0.95570063"
     inkscape:cx="541.48756"
     inkscape:cy="251.12466"
     inkscape:window-width="1920"
     inkscape:window-height="1008"
     inkscape:window-x="0"
     inkscape:window-y="0"
     inkscape:window-maximized="1"
     inkscape:current-layer="layer1"
     showguides="true" /><defs
     id="defs2"><inkscape:path-effect
       effect="bspline"
       id="path-effect14456"
       is_visible="true"
       lpeversion="1"
       weight="33.333333"
       steps="2"
       helper_size="0"
       apply_no_weight="true"
       apply_with_weight="true"
       only_selected="false" /><inkscape:path-effect
       effect="skeletal"
       id="path-effect14452"
       is_visible="true"
       lpeversion="1"
       pattern="M 0,4.9921384 C 0,2.236478 2.236478,0 4.9921384,0 c 2.7556605,0 4.9921385,2.236478 4.9921385,4.9921384 0,2.7556605 -2.236478,4.9921385 -4.9921385,4.9921385 C 2.236478,9.9842769 0,7.7477989 0,4.9921384 Z"
       copytype="single_stretched"
       prop_scale="1"
       scale_y_rel="false"
       spacing="0"
       normal_offset="0"
       tang_offset="0"
       prop_units="false"
       vertical_pattern="false"
       hide_knot="false"
       fuse_tolerance="0" /><inkscape:path-effect
       effect="skeletal"
       id="path-effect14448"
       is_visible="true"
       lpeversion="1"
       pattern="M 0,4.9921384 C 0,2.236478 2.236478,0 4.9921384,0 c 2.7556605,0 4.9921385,2.236478 4.9921385,4.9921384 0,2.7556605 -2.236478,4.9921385 -4.9921385,4.9921385 C 2.236478,9.9842769 0,7.7477989 0,4.9921384 Z"
       copytype="single_stretched"
       prop_scale="1"
       scale_y_rel="false"
       spacing="0"
       normal_offset="0"
       tang_offset="0"
       prop_units="false"
       vertical_pattern="false"
       hide_knot="false"
       fuse_tolerance="0" /><inkscape:path-effect
       effect="skeletal"
       id="path-effect14444"
       is_visible="true"
       lpeversion="1"
       pattern="M 0,4.9921384 C 0,2.236478 2.236478,0 4.9921384,0 c 2.7556605,0 4.9921385,2.236478 4.9921385,4.9921384 0,2.7556605 -2.236478,4.9921385 -4.9921385,4.9921385 C 2.236478,9.9842769 0,7.7477989 0,4.9921384 Z"
       copytype="single_stretched"
       prop_scale="1"
       scale_y_rel="false"
       spacing="0"
       normal_offset="0"
       tang_offset="0"
       prop_units="false"
       vertical_pattern="false"
       hide_knot="false"
       fuse_tolerance="0" /><linearGradient
       inkscape:collect="always"
       id="linearGradient3501"><stop
         style="stop-color:#2e1a47;stop-opacity:1;"
         offset="0"
         id="stop3497" /><stop
         style="stop-color:#0a0057;stop-opacity:1;"
         offset="1"
         id="stop3499" /></linearGradient><inkscape:path-effect
       effect="bspline"
       id="path-effect2650"
       is_visible="true"
       lpeversion="1"
       weight="33.333333"
       steps="2"
       helper_size="0"
       apply_no_weight="true"
       apply_with_weight="true"
       only_selected="false" /><linearGradient
       inkscape:collect="always"
       xlink:href="#linearGradient3501"
       id="linearGradient3503"
       x1="16.668598"
       y1="59.616329"
       x2="249.78387"
       y2="59.616329"
       gradientUnits="userSpaceOnUse"
       gradientTransform="matrix(1.2787721,0,0,0.95411338,-4.6467402,13.258993)" /><filter
       style="color-interpolation-filters:sRGB"
       inkscape:label="Drop Shadow"
       id="filter6085"
       x="-0.1615735"
       y="-0.61435753"
       width="1.4039338"
       height="2.5358939"><feFlood
         flood-opacity="0.498039"
         flood-color="rgb(0,0,0)"
         result="flood"
         id="feFlood6075" /><feComposite
         in="flood"
         in2="SourceGraphic"
         operator="in"
         result="composite1"
         id="feComposite6077" /><feGaussianBlur
         in="composite1"
         stdDeviation="5"
         result="blur"
         id="feGaussianBlur6079" /><feOffset
         dx="6"
         dy="6"
         result="offset"
         id="feOffset6081" /><feComposite
         in="SourceGraphic"
         in2="offset"
         operator="over"
         result="fbSourceGraphic"
         id="feComposite6083" /><feColorMatrix
         result="fbSourceGraphicAlpha"
         in="fbSourceGraphic"
         values="0 0 0 -1 0 0 0 0 -1 0 0 0 0 -1 0 0 0 0 1 0"
         id="feColorMatrix6087" /><feFlood
         id="feFlood6089"
         flood-opacity="0.498039"
         flood-color="rgb(0,0,0)"
         result="flood"
         in="fbSourceGraphic" /><feComposite
         in2="fbSourceGraphic"
         id="feComposite6091"
         in="flood"
         operator="in"
         result="composite1" /><feGaussianBlur
         id="feGaussianBlur6093"
         in="composite1"
         stdDeviation="5"
         result="blur" /><feOffset
         id="feOffset6095"
         dx="6"
         dy="6"
         result="offset" /><feComposite
         in2="offset"
         id="feComposite6097"
         in="fbSourceGraphic"
         operator="over"
         result="composite2" /></filter><filter
       style="color-interpolation-filters:sRGB"
       inkscape:label="Drop Shadow"
       id="filter7126"
       x="-7.8428402e-06"
       y="-2.9821153e-05"
       width="1.0404091"
       height="1.153649"><feFlood
         flood-opacity="0.12549"
         flood-color="rgb(0,0,0)"
         result="flood"
         id="feFlood7116" /><feComposite
         in="flood"
         in2="SourceGraphic"
         operator="in"
         result="composite1"
         id="feComposite7118" /><feGaussianBlur
         in="composite1"
         stdDeviation="0.00048540384"
         result="blur"
         id="feGaussianBlur7120" /><feOffset
         dx="6"
         dy="6"
         result="offset"
         id="feOffset7122" /><feComposite
         in="SourceGraphic"
         in2="offset"
         operator="over"
         result="composite2"
         id="feComposite7124" /></filter><clipPath
       id="SVGID_00000135691296135118220300000007282337375253646227_">
		<use
   xlink:href="#SVGID_1_"
   style="overflow:visible"
   id="use1528" />
	</clipPath><clipPath
       id="clipPath1669">
		<use
   xlink:href="#SVGID_1_"
   style="overflow:visible"
   id="use1667" />
	</clipPath><rect
       id="SVGID_1_"
       width="283.5"
       height="283.5"
       x="0"
       y="0" /><clipPath
       id="SVGID_00000124840597065488903460000005481875429875956626_">
		<use
   xlink:href="#SVGID_1_"
   style="overflow:visible;"
   id="use6804" />
	</clipPath></defs><g
     inkscape:label="Calque 1"
     inkscape:groupmode="layer"
     id="layer1"
     transform="translate(-16.668598,-22.625103)"><rect
       style="fill:url(#linearGradient3503);fill-opacity:1;stroke-width:2.97923"
       id="rect234"
       width="298.10132"
       height="95.029251"
       x="16.668598"
       y="22.625103" /><g
       aria-label="obiFer"
       id="text6287"
       style="font-weight:bold;font-size:50.8px;font-family:'Parisine Std';-inkscape-font-specification:'Parisine Std Bold';fill:#ffffff;stroke-width:13;filter:url(#filter7126)" /><path
       style="fill:none;fill-opacity:1;stroke:#a50034;stroke-width:13;stroke-linecap:butt;stroke-dasharray:none;stroke-opacity:1"
       d="M 145.23986,77.040105 V 50.006933 c 0,0 -0.46335,-15.267209 15.26722,-15.267209 l 12.98762,0"
       id="path14458"
       sodipodi:nodetypes="ccsc" /><ellipse
       style="fill:#a50034;fill-opacity:1;stroke:none;stroke-width:7.63812;stroke-dasharray:none;stroke-opacity:1"
       id="ellipse9039"
       transform="rotate(-90)"
       cy="173.49294"
       cx="-34.740536"
       rx="6.4962215"
       ry="4.0544968" /><ellipse
       style="fill:#ffffff;fill-opacity:1;stroke:none;stroke-width:7.63812;stroke-dasharray:none;stroke-opacity:1"
       id="circle13428"
       transform="rotate(-90)"
       cy="172.69069"
       cx="-34.73822"
       rx="5"
       ry="3.1163802" /><text
       xml:space="preserve"
       style="font-style:italic;font-weight:bold;font-size:3.53788px;font-family:'Grand Paris';-inkscape-font-specification:'Grand Paris Bold Italic';text-align:center;text-anchor:middle;fill:#c4cc15;stroke-width:0.385762;stroke-linecap:round;stroke-linejoin:round;stroke-dasharray:3.0861, 1.54305;paint-order:markers stroke fill"
       x="109.6218"
       y="104.55103"
       id="text883"><tspan
         sodipodi:role="line"
         id="tspan881"
         style="stroke-width:0.385762"
         x="109.6218"
         y="104.55103" /></text><path
       style="fill:none;fill-opacity:1;stroke:#a50034;stroke-width:13;stroke-linecap:round;stroke-dasharray:none;stroke-opacity:1"
       d="m 145.2323,75.864727 v 15.183909 c 0,0 0.46335,15.267204 -15.26722,15.267204 H 114.4332"
       id="path3323"
       sodipodi:nodetypes="ccsc" /><circle
       style="fill:#ffad00;fill-opacity:1;stroke:none;stroke-width:7.63812;stroke-dasharray:none;stroke-opacity:1"
       id="path12698"
       cx="114.95174"
       cy="106.42986"
       r="5" /><g
       id="g1535"
       transform="matrix(0.21164021,0,0,0.21164021,26.876788,40.139728)"
       style="stroke-width:1.25015">
	<defs
   id="defs1526">
		<rect
   id="rect1732"
   width="283.5"
   height="283.5"
   x="0"
   y="0" />
	</defs>
	<clipPath
   id="clipPath1677">
		<use
   xlink:href="#SVGID_1_"
   style="overflow:visible"
   id="use1675" />
	</clipPath>
	<path
   style="fill:#ff5a00;stroke-width:1.25015"
   d="M 219.7,283.5 H 63.8 C 28.6,283.5 0,254.9 0,219.7 V 63.8 C 0,28.6 28.6,0 63.8,0 h 155.9 c 35.2,0 63.8,28.6 63.8,63.8 v 155.9 c 0,35.2 -28.6,63.8 -63.8,63.8"
   clip-path="url(#SVGID_00000135691296135118220300000007282337375253646227_)"
   id="path1531" />
	<path
   d="m 144,163.9 h -15.3 v 52.7 H 95.5 V 66.5 h 46.1 c 34.7,0 64.4,9.4 64.4,46.6 0.1,43.6 -36.2,50.8 -62,50.8 m -0.4,-71.6 h -14.9 v 46.1 H 144 c 12.3,0 28.5,-3.8 28.5,-23.2 0,-20.4 -17.8,-22.9 -28.9,-22.9"
   clip-path="url(#SVGID_00000135691296135118220300000007282337375253646227_)"
   id="path1533"
   style="stroke-width:1.25015" />
</g><g
       aria-label="érısc  Fer"
       id="text1750"
       style="font-style:italic;font-weight:bold;font-size:50.8px;font-family:'Grand Paris';-inkscape-font-specification:'Grand Paris Bold Italic';fill:#c4cc15;stroke-width:0.385762;stroke-linecap:round;stroke-linejoin:round;stroke-dasharray:3.0861, 1.54305;paint-order:markers stroke fill"><path
         d="m 114.93977,73.279116 c 0,-6.2484 -3.0988,-12.7 -11.4808,-12.7 -8.686796,0 -12.547596,7.4676 -12.547596,14.6304 0,8.4328 5.333999,14.224 13.817596,14.224 3.9624,0 7.5692,-1.1684 9.652,-2.1336 l -1.8796,-5.2832 c -1.4224,0.762 -4.0132,1.778 -6.4516,1.778 -4.572,0 -8.077197,-2.5908 -8.077197,-7.4168 0,-0.0508 0,-0.1016 0,-0.1524 h 16.814797 c 0.1016,-0.9144 0.1524,-2.0828 0.1524,-2.9464 z m -6.7056,-1.8796 H 97.820173 c 0,-2.3876 1.27,-5.842 5.333997,-5.842 3.6068,0 5.334,2.9972 5.08,5.842 z m 5.6388,-20.4216 h -8.128 l -5.6896,7.874 h 5.4864 z"
         style="font-style:normal;font-family:'Parisine Std';-inkscape-font-specification:'Parisine Std, Bold';fill:#ffffff"
         id="path8451" /><path
         d="m 136.78379,61.290316 c -0.5588,-0.2032 -1.5748,-0.508 -2.5908,-0.508 -3.3528,0 -5.1308,2.1336 -6.7564,4.7244 v -4.064 h -6.4008 c 0.0508,1.27 0.254,4.5212 0.254,6.858 v 20.2692 h 7.112 v -16.3576 c 0,-1.4732 0.0508,-2.5908 1.016,-3.4544 0.6604,-0.6096 1.4732,-1.0668 2.9972,-1.0668 0.9652,0 1.9812,0.4572 2.4892,0.7112 z"
         style="font-style:normal;font-family:'Parisine Std';-inkscape-font-specification:'Parisine Std, Bold';fill:#ffffff"
         id="path8453" /><path
         d="m 148.72175,88.569916 v -27.1272 h -7.112 v 27.1272 z"
         style="font-style:normal;font-family:'Parisine Std';-inkscape-font-specification:'Parisine Std, Bold';fill:#ffffff"
         id="path8455" /><path
         d="m 174.12173,80.441916 c 0,-4.5212 -2.7432,-6.604 -6.604,-8.0264 l -2.3876,-0.8636 c -1.8796,-0.6604 -3.2004,-1.4732 -3.2004,-2.8956 0,-1.2192 0.8636,-2.6924 3.7592,-2.6924 1.7272,0 3.9116,0.6096 5.4864,1.6256 l 2.1844,-5.2324 c -1.4224,-0.7112 -3.9116,-1.778 -7.3152,-1.778 -6.35,0 -10.668,4.064 -10.668,9.1948 0,3.9624 2.3368,6.0452 5.842,7.4168 l 2.2352,0.8636 c 2.54,0.9652 4.0132,1.524 4.0132,3.302 0,2.1336 -2.286,2.794 -4.1656,2.794 -2.1336,0 -4.6228,-0.8128 -6.35,-2.032 l -2.1844,5.2324 c 1.524,0.9144 4.572,2.0828 7.9756,2.0828 7.112,0 11.3792,-3.7084 11.3792,-8.9916 z"
         style="font-style:normal;font-family:'Parisine Std';-inkscape-font-specification:'Parisine Std, Bold';fill:#ffffff"
         id="path8457" /><path
         d="m 199.11532,87.198316 -2.032,-5.2832 c -1.2192,0.762 -3.302,1.6256 -5.334,1.6256 -3.2004,0 -6.5532,-3.0988 -6.5532,-8.3312 0,-4.7752 2.032,-8.5852 6.1468,-8.5852 2.3368,0 4.3688,1.2192 5.2832,1.8288 l 2.54,-5.9436 c -1.778,-0.9652 -4.6228,-1.9304 -8.2804,-1.9304 -9.1948,0 -13.1064,7.366 -13.1064,14.7828 0,7.9248 4.7752,14.0716 13.1064,14.0716 3.302,0 6.8072,-1.1684 8.2296,-2.2352 z"
         style="font-style:normal;font-family:'Parisine Std';-inkscape-font-specification:'Parisine Std, Bold';fill:#ffffff"
         id="path8459" /><path
         d="m 255.90983,59.207516 v -6.5024 h -22.4536 v 35.8648 h 7.9248 v -14.8844 h 14.0208 v -6.4008 h -14.0208 v -8.0772 z"
         style="font-style:normal;font-family:'Parisine Std';-inkscape-font-specification:'Parisine Std, Bold';fill:#ffffff"
         id="path8461" /><path
         d="m 282.93542,73.279116 c 0,-6.2484 -3.0988,-12.7 -11.4808,-12.7 -8.6868,0 -12.5476,7.4676 -12.5476,14.6304 0,8.4328 5.334,14.224 13.8176,14.224 3.9624,0 7.5692,-1.1684 9.652,-2.1336 l -1.8796,-5.2832 c -1.4224,0.762 -4.0132,1.778 -6.4516,1.778 -4.572,0 -8.0772,-2.5908 -8.0772,-7.4168 0,-0.0508 0,-0.1016 0,-0.1524 h 16.8148 c 0.1016,-0.9144 0.1524,-2.0828 0.1524,-2.9464 z m -6.7056,-1.8796 h -10.414 c 0,-2.3876 1.27,-5.842 5.334,-5.842 3.6068,0 5.334,2.9972 5.08,5.842 z"
         style="font-style:normal;font-family:'Parisine Std';-inkscape-font-specification:'Parisine Std, Bold';fill:#ffffff"
         id="path8463" /><path
         d="m 304.77944,61.290316 c -0.5588,-0.2032 -1.5748,-0.508 -2.5908,-0.508 -3.3528,0 -5.1308,2.1336 -6.7564,4.7244 v -4.064 h -6.4008 c 0.0508,1.27 0.254,4.5212 0.254,6.858 v 20.2692 h 7.112 v -16.3576 c 0,-1.4732 0.0508,-2.5908 1.016,-3.4544 0.6604,-0.6096 1.4732,-1.0668 2.9972,-1.0668 0.9652,0 1.9812,0.4572 2.4892,0.7112 z"
         style="font-style:normal;font-family:'Parisine Std';-inkscape-font-specification:'Parisine Std, Bold';fill:#ffffff"
         id="path8465" /></g><g
       id="g10850"
       transform="matrix(0.04586185,0,0,0.04586023,194.21366,28.23822)"
       style="stroke-width:5.08824"><path
         fill="#ffffff"
         d="M 0,9.21 H 283.46 V 274.25 H 0 Z"
         id="path10352"
         style="stroke-width:7.5554" /><rect
         fill="#25303B"
         width="283.45999"
         height="18.43"
         rx="9.21"
         id="rect10354"
         style="fill:#000000;fill-opacity:1;stroke-width:5.08824"
         x="0"
         y="0" /><rect
         fill="#25303B"
         width="283.45999"
         height="18.43"
         rx="9.21"
         y="265.04001"
         id="rect10356"
         style="fill:#000000;fill-opacity:1;stroke-width:5.08824"
         x="0" /><path
         fill="#25303B"
         d="m 28.35,212.6 h 185.7 a 41.55,41.55 0 0 0 37.54,-23.41 35.42,35.42 0 0 0 3.17,-20.56 111.89,111.89 0 0 0 -28.41,-60.39 27.67,27.67 0 0 0 -20.43,-9 h -98 L 128.47,82.3 a 5,5 0 0 0 0,-7.66 L 92.33,45 a 3.21,3.21 0 0 0 -4.52,0.44 l -2,2.48 a 3.22,3.22 0 0 0 0.44,4.53 L 118,78.47 92.72,99.21 H 28.35 V 112 h 41.24 a 2,2 0 0 1 2,2 v 54.8 a 2,2 0 0 1 -2,2 H 28.35 Z m 188.48,-95.88 a 99.3,99.3 0 0 1 22.94,41.9 c 1.77,6.7 -2.36,12.17 -9.3,12.17 h -59.12 a 2,2 0 0 1 -2,-2 V 114 a 2,2 0 0 1 2,-2 h 34.57 a 14.79,14.79 0 0 1 10.91,4.75 m -62.2,83.12 h -25.79 a 2,2 0 0 1 -2,-2 V 114 a 2,2 0 0 1 2,-2 h 25.79 a 2,2 0 0 1 2,2 v 83.91 a 2,2 0 0 1 -2,2 M 86.31,112 h 25.8 a 2,2 0 0 1 2,2 v 83.91 a 2,2 0 0 1 -2,2 h -25.8 a 2,2 0 0 1 -2,-2 V 114 a 2,2 0 0 1 2,-2 M 251.15,235.84 H 28.35 v -11.9 h 222.8 a 4,4 0 0 1 4,4 v 4 a 4,4 0 0 1 -4,4"
         id="path10358"
         style="fill:#000000;fill-opacity:1;stroke-width:5.08824" /></g><g
       id="g8242"
       transform="matrix(0.0458617,0,0,0.0458617,179.19735,28.23822)"
       style="stroke-width:5.08815"><g
         id="path7447"
         style="stroke-width:5.08815"><path
           style="color:#000000;fill:#ffffff;stroke-width:93.7717;-inkscape-stroke:none"
           d="M 274.24544,141.73 A 132.51544,132.51544 0 0 1 141.73,274.24544 132.51544,132.51544 0 0 1 9.2145538,141.73 132.51544,132.51544 0 0 1 141.73,9.2145538 132.51544,132.51544 0 0 1 274.24544,141.73 Z"
           id="path8234" /><path
           style="color:#000000;fill:#000000;stroke-width:5.08815;-inkscape-stroke:none"
           d="M 141.73047,0 C 63.564296,0 0,63.564296 0,141.73047 c 0,78.16617 63.564296,141.73047 141.73047,141.73047 78.16617,0 141.73047,-63.5643 141.73047,-141.73047 C 283.46094,63.564296 219.89664,0 141.73047,0 Z m 0,18.429687 c 68.20619,10e-7 123.30078,55.094586 123.30078,123.300783 0,68.20619 -55.09459,123.30078 -123.30078,123.30078 -68.206197,0 -123.300783,-55.09459 -123.300783,-123.30078 10e-7,-68.206197 55.094586,-123.300783 123.300783,-123.300783 z"
           id="path8236" /></g><path
         fill="#25303B"
         d="M 212.25,205.15 V 81.5 c 0,-7.09 -3.9,-14.53 -15.6,-14.53 -8.85,0 -12.4,3.9 -16.29,11.69 l -38.27,79.73 h -0.35 L 103.11,78.66 C 99.21,70.87 95.67,67 86.81,67 75.12,67 71.22,74.41 71.22,81.5 v 123.65 c 0,6.74 5.32,10.64 11.7,10.64 5.66,0 12,-3.9 12,-10.64 V 113 h 0.36 l 35.12,71.6 c 2.47,5 5.67,7.8 11.34,7.8 5.67,0 8.85,-2.84 11.33,-7.8 L 188.15,113 h 0.36 v 92.12 c 0,6.74 6.37,10.64 12.05,10.64 6.37,0 11.69,-3.9 11.69,-10.64"
         id="path7748"
         style="fill:#000000;fill-opacity:1;stroke-width:5.08815" /></g><g
       id="g11733"
       transform="matrix(0.0458617,0,0,0.0458617,209.22997,28.23822)"
       style="stroke-width:5.08815"><g
         id="rect9258"
         style="stroke-width:5.08815"><path
           style="color:#000000;fill:#ffffff;stroke-width:93.8511;-inkscape-stroke:none"
           d="M 63.787498,9.2224998 H 219.67252 c 30.22901,0 54.56499,24.3359892 54.56499,54.5649982 V 219.67252 c 0,30.22901 -24.33598,54.56499 -54.56499,54.56499 H 63.787498 c -30.229009,0 -54.5649982,-24.33598 -54.5649982,-54.56499 V 63.787498 c 0,-30.229009 24.3359892,-54.5649982 54.5649982,-54.5649982 z"
           id="path11717" /><path
           style="color:#000000;fill:#000000;stroke-width:5.08815;-inkscape-stroke:none"
           d="M 63.787109,0 C 28.608394,0 0,28.608394 0,63.787109 V 219.67187 c 0,35.17872 28.608394,63.78907 63.787109,63.78907 H 219.67187 c 35.17872,0 63.78907,-28.61035 63.78907,-63.78907 V 63.787109 C 283.46094,28.608394 254.85059,0 219.67187,0 Z m 0,18.445312 H 219.67187 c 25.27925,0 45.34375,20.062555 45.34375,45.341797 V 219.67187 c 0,25.27925 -20.0645,45.34375 -45.34375,45.34375 H 63.787109 c -25.279242,0 -45.341797,-20.0645 -45.341797,-45.34375 V 63.787109 c 0,-25.279242 20.062555,-45.341797 45.341797,-45.341797 z"
           id="path11719" /></g><path
         fill="#25303B"
         d="m 243.43,119.77 c 0,-19.13 -14.18,-28 -28,-28 h -26.57 c -5,0 -7.79,3.89 -7.79,8.15 v 83.28 c 0,5 5,7.43 9.56,7.43 5.32,0 9.57,-2.47 9.57,-7.43 V 151 h 8.15 l 15.94,35.78 a 7,7 0 0 0 6.74,3.89 c 5.66,0 13.82,-5.31 10.63,-11.68 L 226.42,147.1 c 9.21,-4.62 17,-12.76 17,-27.29 m -71.92,61.61 c 0,-4.26 -2.84,-8.85 -7.8,-8.85 h -26.93 v -24.45 h 22.32 a 7.93,7.93 0 0 0 7.8,-8.15 c 0,-4.25 -2.84,-8.16 -7.8,-8.16 h -22.32 v -22.32 h 24.81 c 5,0 7.79,-5 7.79,-8.85 0,-4.26 -2.83,-8.86 -7.79,-8.86 h -36.15 c -5,0 -7.79,3.89 -7.79,8.15 v 82.91 c 0,5 5,7.44 9.57,7.44 h 36.49 c 5,0 7.8,-5 7.8,-8.86 m -65.21,-61.65 c 0,-19.13 -14.16,-28 -28,-28 H 51.73 c -4.95,0 -7.79,3.89 -7.79,8.15 v 83.28 c 0,5 5,7.43 9.56,7.43 5.31,0 9.56,-2.47 9.56,-7.43 V 151 h 8.16 l 16,35.78 a 7,7 0 0 0 6.73,3.89 c 5.67,0 13.81,-5.31 10.63,-11.68 L 89.29,147.06 c 9.22,-4.62 17,-12.76 17,-27.29 m 117.29,2.13 c 0,12 -11,14.87 -17.71,14.87 h -5.67 v -28.7 h 6.72 c 8.87,0 16.66,3.91 16.66,13.83 m -137.12,0 c 0,12 -11,14.87 -17.72,14.87 h -5.68 v -28.7 h 6.75 c 8.85,0 16.65,3.91 16.65,13.83"
         id="path9260"
         style="fill:#000000;fill-opacity:1;stroke-width:5.08815" /></g><g
       id="g14596"
       transform="matrix(0.0458617,0,0,0.0458617,224.24628,28.23822)"
       style="stroke-width:5.08815"><g
         id="rect9803"
         style="stroke-width:5.08815"><path
           style="color:#000000;fill:#ffffff;stroke-width:93.8511;-inkscape-stroke:none"
           d="M 63.787498,9.2224998 H 219.67252 c 30.22901,0 54.56499,24.3359892 54.56499,54.5649982 V 219.67252 c 0,30.22901 -24.33598,54.56499 -54.56499,54.56499 H 63.787498 c -30.229009,0 -54.5649982,-24.33598 -54.5649982,-54.56499 V 63.787498 c 0,-30.229009 24.3359892,-54.5649982 54.5649982,-54.5649982 z"
           id="path14588" /><path
           style="color:#000000;fill:#000000;stroke-width:5.08815;-inkscape-stroke:none"
           d="M 63.787109,0 C 28.608394,0 0,28.608394 0,63.787109 V 219.67187 c 0,35.17872 28.608394,63.78907 63.787109,63.78907 H 219.67187 c 35.17872,0 63.78907,-28.61035 63.78907,-63.78907 V 63.787109 C 283.46094,28.608394 254.85059,0 219.67187,0 Z m 0,18.445312 H 219.67187 c 25.27925,0 45.34375,20.062555 45.34375,45.341797 V 219.67187 c 0,25.27925 -20.0645,45.34375 -45.34375,45.34375 H 63.787109 c -25.279242,0 -45.341797,-20.0645 -45.341797,-45.34375 V 63.787109 c 0,-25.279242 20.062555,-45.341797 45.341797,-45.341797 z"
           id="path14590" /></g><path
         fill="#25303B"
         d="m 183.87,204.6 a 13.27,13.27 0 0 0 1.67,-1.29 c 5.09,-4.13 9.85,-10.45 13.31,-20.25 4.83,-13.73 8.24,-26 9.18,-41.12 1.31,-18.6 -6.35,-47.53 -11.43,-61 l -1.77,-4.75 c -1.09,-3 -5.26,-9.47 -12.65,-17.18 -6.36,-6.62 -12.47,-7.11 -21.77,-7.11 h -37.76 c -9.3,0 -15.4,0.49 -21.77,7.11 -7.4,7.68 -11.57,14.15 -12.65,17.18 l -1.78,4.78 C 81.37,94.41 73.72,123.34 75,142 c 0.94,15.06 4.36,27.31 9.21,41.09 3.45,9.82 8.2,16.12 13.3,20.25 a 16.88,16.88 0 0 0 1.69,1.27 l -27.5,30.58 a 6.87,6.87 0 0 0 0,9 5.31,5.31 0 0 0 8.06,0 l 9.5,-10.54 H 193.8 l 9.48,10.54 a 5.32,5.32 0 0 0 8.07,0 6.89,6.89 0 0 0 0,-9 z m -9.23,-11.15 a 9.44,9.44 0 1 1 9.45,-9.45 9.46,9.46 0 0 1 -9.45,9.45 M 89.16,132.9 c -5.77,0 3.3,-50.66 7.43,-50.66 h 88.85 c 4.49,0 15,50.66 8,50.66 z m 9.62,51.1 a 9.45,9.45 0 1 1 9.45,9.45 9.44,9.44 0 0 1 -9.45,-9.45 m 1.92,36.9 10.12,-11.25 a 55.65,55.65 0 0 0 12.8,1.13 h 35.82 a 55.57,55.57 0 0 0 12.79,-1.13 l 10.13,11.25 z"
         id="path9805"
         style="fill:#000000;fill-opacity:1;stroke-width:5.08815" /></g><path
       style="fill:#82c8e6;stroke-width:3.82600649;stroke-dasharray:none"
       d="M 0,141.7 C 0,63.5 63.5,0 141.7,0 220,0 283.5,63.5 283.5,141.7 283.5,220 220.1,283.4 141.8,283.4 63.5,283.5 0,220 0,141.7"
       clip-path="url(#SVGID_00000124840597065488903460000005481875429875956626_)"
       id="path6807"
       transform="matrix(0.06926282,0,0,0.06926282,205.93288,65.37712)" /><circle
       style="fill:none;stroke:#ffffff;stroke-width:4.99999;stroke-linejoin:round;stroke-dasharray:none;stroke-dashoffset:0;stroke-opacity:1;paint-order:markers stroke fill"
       id="path6663"
       cx="215.75089"
       cy="75.191666"
       r="11.86788" /><path
       style="fill:#000000;fill-opacity:1;stroke:none;stroke-width:5.75435;stroke-dasharray:none;stroke-opacity:1"
       d="M 0,141.7 C 0,63.5 63.5,0 141.7,0 220,0 283.5,63.5 283.5,141.7 283.5,220 220.1,283.4 141.8,283.4 63.5,283.5 0,220 0,141.7"
       clip-path="url(#SVGID_00000124840597065488903460000005481875429875956626_)"
       id="path6972"
       transform="matrix(0.04605209,0,0,0.04605209,209.223,68.666082)" /><g
       aria-label="Le périscope
des transports franciliens"
       id="text7058"
       style="font-style:italic;font-weight:bold;font-size:9.87778px;font-family:'Grand Paris';-inkscape-font-specification:'Grand Paris Bold Italic';text-align:end;text-anchor:end;fill:#c4cc15;stroke-width:0.385762;stroke-linecap:round;stroke-linejoin:round;stroke-dasharray:3.0861, 1.54305;paint-order:markers stroke fill"><path
         d="m 253.65207,101.2852 h -2.82504 l 1.22484,-5.768625 h -1.46191 l -1.48166,6.973715 h 4.28695 z"
         style="font-family:'Parisine Std';-inkscape-font-specification:'Parisine Std Bold Italic';fill:#ffffff"
         id="path8468" /><path
         d="m 258.84778,98.43052 c 0,-0.948267 -0.84949,-1.363133 -1.6891,-1.363133 -1.86691,0 -2.98309,1.758244 -2.98309,3.476983 0,1.30386 0.95814,2.11384 2.2225,2.11384 0.63217,0 1.34337,-0.16792 1.89653,-0.47413 l -0.28646,-0.98778 c -0.37535,0.22719 -0.82973,0.38523 -1.27423,0.38523 -0.76059,0 -1.21497,-0.40499 -1.21497,-1.14582 0,-0.0593 0,-0.12841 0,-0.18768 0.20744,0.0198 0.42475,0.0395 0.64206,0.0395 1.20509,0 2.68676,-0.385231 2.68676,-1.85702 z m -1.37302,0.138289 c 0,0.661811 -0.77046,0.819856 -1.29399,0.819856 -0.1778,0 -0.3556,-0.0099 -0.5334,-0.02963 0.14817,-0.701323 0.55316,-1.323623 1.25448,-1.323623 0.31609,0 0.57291,0.207433 0.57291,0.5334 z"
         style="font-family:'Parisine Std';-inkscape-font-specification:'Parisine Std Bold Italic';fill:#ffffff"
         id="path8470" /><path
         d="m 267.31304,98.934287 c 0,-0.889 -0.37535,-1.847145 -1.38289,-1.847145 -0.78034,0 -1.37301,0.6223 -1.83726,1.195212 l 0.22719,-1.047045 h -1.23473 l -1.53105,7.230531 h 1.3335 l 0.47413,-2.24225 c 0.24695,0.34572 0.67169,0.41486 1.0668,0.41486 1.88666,0 2.88431,-2.02494 2.88431,-3.704163 z m -1.38289,0.2667 c 0,0.898883 -0.34572,2.499083 -1.53105,2.499083 -0.48401,0 -0.87912,-0.23707 -0.76059,-0.78035 l 0.25682,-1.214966 c 0.0296,-0.138289 0.0988,-0.276578 0.1778,-0.395111 0.24695,-0.385234 0.8001,-1.047045 1.29399,-1.047045 0.36548,0 0.56303,0.306211 0.56303,0.938389 z"
         style="font-family:'Parisine Std';-inkscape-font-specification:'Parisine Std Bold Italic';fill:#ffffff"
         id="path8472" /><path
         d="m 272.59765,98.43052 c 0,-0.948267 -0.84949,-1.363133 -1.6891,-1.363133 -1.8669,0 -2.98309,1.758244 -2.98309,3.476983 0,1.30386 0.95814,2.11384 2.2225,2.11384 0.63218,0 1.34338,-0.16792 1.89653,-0.47413 l -0.28645,-0.98778 c -0.37536,0.22719 -0.82974,0.38523 -1.27424,0.38523 -0.76059,0 -1.21496,-0.40499 -1.21496,-1.14582 0,-0.0593 0,-0.12841 0,-0.18768 0.20743,0.0198 0.42474,0.0395 0.64205,0.0395 1.20509,0 2.68676,-0.385231 2.68676,-1.85702 z m -1.37301,0.138289 c 0,0.661811 -0.77047,0.819856 -1.29399,0.819856 -0.1778,0 -0.3556,-0.0099 -0.5334,-0.02963 0.14816,-0.701323 0.55315,-1.323623 1.25448,-1.323623 0.31608,0 0.57291,0.207433 0.57291,0.5334 z m 1.72861,-3.388078 h -1.50142 l -1.16558,1.531056 h 1.05692 z"
         style="font-family:'Parisine Std';-inkscape-font-specification:'Parisine Std Bold Italic';fill:#ffffff"
         id="path8474" /><path
         d="m 276.98339,97.18592 c -0.12841,-0.04939 -0.2667,-0.07902 -0.42475,-0.07902 -0.69144,0 -1.20509,0.730955 -1.56069,1.284111 l 0.23707,-1.1557 h -1.18533 c -0.0889,0.513644 -0.16793,1.017411 -0.27658,1.521178 l -0.79022,3.733803 h 1.3335 l 0.59266,-2.795414 c 0.0395,-0.167922 0.0889,-0.306211 0.18768,-0.454378 0.28646,-0.414867 0.69145,-0.770467 1.07668,-0.770467 0.0988,0 0.22719,0.02963 0.31609,0.07902 z"
         style="font-family:'Parisine Std';-inkscape-font-specification:'Parisine Std Bold Italic';fill:#ffffff"
         id="path8476" /><path
         d="m 279.69978,95.625231 c 0,-0.316089 -0.2667,-0.543278 -0.6223,-0.543278 -0.47414,0 -0.89888,0.385233 -0.89888,0.869244 0,0.325967 0.27658,0.543278 0.63218,0.543278 0.48401,0 0.889,-0.385233 0.889,-0.869244 z m -0.39511,1.610078 h -1.3335 l -1.11619,5.254981 h 1.3335 z"
         style="font-family:'Parisine Std';-inkscape-font-specification:'Parisine Std Bold Italic';fill:#ffffff"
         id="path8478" /><path
         d="m 283.49284,97.373598 c -0.42475,-0.217311 -0.86925,-0.306211 -1.38289,-0.306211 -1.28411,0 -2.0447,0.740833 -2.0447,1.797756 0,0.730955 0.51364,1.096433 0.96802,1.392767 0.50377,0.33584 0.7112,0.52352 0.7112,0.80998 0,0.42474 -0.40499,0.56303 -0.8001,0.56303 -0.40499,0 -0.81986,-0.14817 -1.12607,-0.3556 l -0.47413,1.02729 c 0.4445,0.2667 1.08656,0.3556 1.63971,0.3556 1.03717,0 2.09409,-0.64206 2.09409,-1.83727 0,-0.78034 -0.57291,-1.165575 -1.0668,-1.471786 -0.27658,-0.1778 -0.66181,-0.414867 -0.66181,-0.760589 0,-0.227189 0.1778,-0.513645 0.74083,-0.513645 0.24695,0 0.67169,0.07902 0.94827,0.2667 z"
         style="font-family:'Parisine Std';-inkscape-font-specification:'Parisine Std Bold Italic';fill:#ffffff"
         id="path8480" /><path
         d="m 288.34283,97.422987 c -0.45437,-0.246945 -0.9779,-0.3556 -1.49154,-0.3556 -1.89654,0 -3.05224,1.659467 -3.05224,3.437463 0,1.30387 0.84949,2.15336 2.15336,2.15336 0.54328,0 1.13595,-0.12841 1.59032,-0.42474 l -0.28645,-0.9779 c -0.2667,0.20743 -0.60255,0.31608 -0.93839,0.31608 -0.81986,0 -1.13595,-0.57291 -1.13595,-1.36313 0,-0.938388 0.54328,-2.015067 1.6002,-2.015067 0.36548,0 0.73096,0.108656 1.02729,0.335845 z"
         style="font-family:'Parisine Std';-inkscape-font-specification:'Parisine Std Bold Italic';fill:#ffffff"
         id="path8482" /><path
         d="m 293.48915,99.082454 c 0,-1.254478 -0.77046,-2.034823 -2.02494,-2.034823 -1.89654,0 -3.03248,1.8669 -3.03248,3.595509 0,1.25448 0.77047,2.03483 2.02494,2.03483 1.89654,0 3.03248,-1.8669 3.03248,-3.595516 z m -1.37301,0.158044 c 0,0.839612 -0.42474,2.360792 -1.47179,2.360792 -0.65193,0 -0.82973,-0.56304 -0.82973,-1.11619 0,-0.839613 0.41487,-2.360791 1.46191,-2.360791 0.65193,0 0.83961,0.563033 0.83961,1.116189 z"
         style="font-family:'Parisine Std';-inkscape-font-specification:'Parisine Std Bold Italic';fill:#ffffff"
         id="path8484" /><path
         d="m 299.19851,98.934287 c 0,-0.889 -0.37536,-1.847145 -1.38289,-1.847145 -0.78035,0 -1.37301,0.6223 -1.83727,1.195212 l 0.22719,-1.047045 h -1.23472 l -1.53106,7.230531 h 1.3335 l 0.47413,-2.24225 c 0.24695,0.34572 0.67169,0.41486 1.0668,0.41486 1.88666,0 2.88432,-2.02494 2.88432,-3.704163 z m -1.38289,0.2667 c 0,0.898883 -0.34573,2.499083 -1.53106,2.499083 -0.48401,0 -0.87912,-0.23707 -0.76059,-0.78035 l 0.25682,-1.214966 c 0.0296,-0.138289 0.0988,-0.276578 0.1778,-0.395111 0.24695,-0.385234 0.8001,-1.047045 1.29399,-1.047045 0.36548,0 0.56304,0.306211 0.56304,0.938389 z"
         style="font-family:'Parisine Std';-inkscape-font-specification:'Parisine Std Bold Italic';fill:#ffffff"
         id="path8486" /><path
         d="m 304.48311,98.43052 c 0,-0.948267 -0.84949,-1.363133 -1.6891,-1.363133 -1.8669,0 -2.98309,1.758244 -2.98309,3.476983 0,1.30386 0.95814,2.11384 2.2225,2.11384 0.63218,0 1.34338,-0.16792 1.89653,-0.47413 l -0.28645,-0.98778 c -0.37536,0.22719 -0.82974,0.38523 -1.27424,0.38523 -0.76059,0 -1.21496,-0.40499 -1.21496,-1.14582 0,-0.0593 0,-0.12841 0,-0.18768 0.20743,0.0198 0.42474,0.0395 0.64205,0.0395 1.20509,0 2.68676,-0.385231 2.68676,-1.85702 z m -1.37301,0.138289 c 0,0.661811 -0.77047,0.819856 -1.29399,0.819856 -0.1778,0 -0.3556,-0.0099 -0.5334,-0.02963 0.14816,-0.701323 0.55315,-1.323623 1.25448,-1.323623 0.31608,0 0.57291,0.207433 0.57291,0.5334 z"
         style="font-family:'Parisine Std';-inkscape-font-specification:'Parisine Std Bold Italic';fill:#ffffff"
         id="path8488" /><path
         d="m 197.00299,105.38356 h -1.3335 l -0.47413,2.24225 c -0.24695,-0.34572 -0.67169,-0.41487 -1.0668,-0.41487 -1.91629,0 -2.88431,1.98544 -2.88431,3.69429 0,0.86925 0.3556,1.85703 1.37301,1.85703 0.78034,0 1.38289,-0.6223 1.84714,-1.19521 l -0.22719,1.04704 h 1.23473 z m -2.08421,3.54612 -0.25682,1.21497 c -0.0296,0.13828 -0.0988,0.27657 -0.1778,0.39511 -0.24695,0.38523 -0.8001,1.04704 -1.29399,1.04704 -0.36548,0 -0.56303,-0.31609 -0.56303,-0.94827 0,-0.85936 0.29633,-2.4892 1.53105,-2.4892 0.48401,0 0.87912,0.23707 0.76059,0.78035 z"
         style="font-family:'Parisine Std';-inkscape-font-specification:'Parisine Std Bold Italic';fill:#ffffff"
         id="path8490" /><path
         d="m 201.67518,108.55432 c 0,-0.94826 -0.84949,-1.36313 -1.6891,-1.36313 -1.8669,0 -2.98309,1.75824 -2.98309,3.47698 0,1.30386 0.95815,2.11384 2.2225,2.11384 0.63218,0 1.34338,-0.16792 1.89654,-0.47413 l -0.28646,-0.98778 c -0.37535,0.22719 -0.82973,0.38523 -1.27423,0.38523 -0.76059,0 -1.21497,-0.40498 -1.21497,-1.14582 0,-0.0593 0,-0.12841 0,-0.18768 0.20744,0.0198 0.42475,0.0395 0.64206,0.0395 1.20509,0 2.68675,-0.38524 2.68675,-1.85703 z m -1.37301,0.13829 c 0,0.66181 -0.77046,0.81986 -1.29399,0.81986 -0.1778,0 -0.3556,-0.01 -0.5334,-0.0296 0.14817,-0.70132 0.55316,-1.32362 1.25448,-1.32362 0.31609,0 0.57291,0.20744 0.57291,0.5334 z"
         style="font-family:'Parisine Std';-inkscape-font-specification:'Parisine Std Bold Italic';fill:#ffffff"
         id="path8492" /><path
         d="m 205.87324,107.4974 c -0.42474,-0.21731 -0.86924,-0.30621 -1.38289,-0.30621 -1.28411,0 -2.0447,0.74083 -2.0447,1.79776 0,0.73095 0.51365,1.09643 0.96803,1.39276 0.50376,0.33585 0.7112,0.52352 0.7112,0.80998 0,0.42474 -0.40499,0.56303 -0.8001,0.56303 -0.40499,0 -0.81986,-0.14816 -1.12607,-0.3556 l -0.47413,1.02729 c 0.4445,0.2667 1.08655,0.3556 1.63971,0.3556 1.03716,0 2.09409,-0.64205 2.09409,-1.83726 0,-0.78035 -0.57291,-1.16558 -1.0668,-1.47179 -0.27658,-0.1778 -0.66181,-0.41487 -0.66181,-0.76059 0,-0.22719 0.1778,-0.51365 0.74083,-0.51365 0.24694,0 0.67169,0.079 0.94827,0.2667 z"
         style="font-family:'Parisine Std';-inkscape-font-specification:'Parisine Std Bold Italic';fill:#ffffff"
         id="path8494" /><path
         d="m 212.58027,107.45789 h -1.20509 l 0.31609,-1.52118 -1.4224,0.43462 -0.22719,1.08656 h -0.90876 l -0.21731,0.95814 h 0.92851 l -0.59266,2.77566 c -0.0296,0.13829 -0.0593,0.33584 -0.0593,0.49389 0,0.81985 0.6223,1.09643 1.35326,1.09643 0.3556,0 0.75071,-0.0494 1.0668,-0.12841 l 0.0691,-0.98778 c -0.16792,0.0593 -0.3556,0.079 -0.5334,0.079 -0.30621,0 -0.56303,-0.13829 -0.56303,-0.47414 0,-0.0889 0.0198,-0.18768 0.0395,-0.27658 l 0.54328,-2.5781 h 1.19521 z"
         style="font-family:'Parisine Std';-inkscape-font-specification:'Parisine Std Bold Italic';fill:#ffffff"
         id="path8496" /><path
         d="m 216.48198,107.30972 c -0.12841,-0.0494 -0.2667,-0.079 -0.42474,-0.079 -0.69145,0 -1.20509,0.73096 -1.56069,1.28411 l 0.23707,-1.1557 h -1.18534 c -0.0889,0.51365 -0.16792,1.01741 -0.27657,1.52118 l -0.79023,3.7338 h 1.3335 l 0.59267,-2.79541 c 0.0395,-0.16792 0.0889,-0.30621 0.18768,-0.45438 0.28645,-0.41487 0.69144,-0.77047 1.07668,-0.77047 0.0988,0 0.22719,0.0296 0.31609,0.079 z"
         style="font-family:'Parisine Std';-inkscape-font-specification:'Parisine Std Bold Italic';fill:#ffffff"
         id="path8498" /><path
         d="m 221.82586,107.35911 h -1.28411 l -0.079,0.30621 c -0.22719,-0.34572 -0.61242,-0.45438 -1.03717,-0.45438 -1.91629,0 -2.88431,1.98544 -2.88431,3.69429 0,0.86925 0.3556,1.85703 1.37301,1.85703 0.73096,0 1.3335,-0.6223 1.79776,-1.19521 l -0.0296,0.13828 c -0.13829,0.63218 0.13829,0.98778 0.79022,0.98778 0.29633,0 0.60254,-0.0593 0.77047,-0.11853 l 0.079,-0.86925 c -0.0395,0.0198 -0.11854,0.0395 -0.1778,0.0395 -0.23707,0 -0.18768,-0.23707 -0.15805,-0.38524 z m -1.65946,1.57057 -0.25682,1.21497 c -0.0296,0.13828 -0.10866,0.27657 -0.1778,0.39511 -0.23707,0.38523 -0.78035,1.04704 -1.26436,1.04704 -0.34572,0 -0.54328,-0.31609 -0.54328,-0.94827 0,-0.87912 0.31609,-2.4892 1.49155,-2.4892 0.47413,0 0.86924,0.23707 0.75071,0.78035 z"
         style="font-family:'Parisine Std';-inkscape-font-specification:'Parisine Std Bold Italic';fill:#ffffff"
         id="path8500" /><path
         d="m 227.40681,108.40616 c 0,-0.72108 -0.46425,-1.19522 -1.18533,-1.19522 -0.81986,0 -1.52118,0.60255 -1.99531,1.19522 l 0.22719,-1.04705 h -1.23473 l -1.10631,5.25498 h 1.32362 l 0.59267,-2.78553 c 0.0198,-0.10866 0.0692,-0.24695 0.16792,-0.39511 0.30621,-0.49389 0.87913,-1.04705 1.34338,-1.04705 0.2667,0 0.45438,0.1778 0.45438,0.49389 0,0.13829 -0.0198,0.29633 -0.0494,0.43462 l -0.70132,3.29918 h 1.3335 l 0.74083,-3.50661 c 0.0494,-0.22719 0.0889,-0.46426 0.0889,-0.70132 z"
         style="font-family:'Parisine Std';-inkscape-font-specification:'Parisine Std Bold Italic';fill:#ffffff"
         id="path8502" /><path
         d="m 231.7234,107.4974 c -0.42474,-0.21731 -0.86924,-0.30621 -1.38289,-0.30621 -1.28411,0 -2.0447,0.74083 -2.0447,1.79776 0,0.73095 0.51365,1.09643 0.96803,1.39276 0.50376,0.33585 0.7112,0.52352 0.7112,0.80998 0,0.42474 -0.40499,0.56303 -0.8001,0.56303 -0.40499,0 -0.81986,-0.14816 -1.12607,-0.3556 l -0.47414,1.02729 c 0.44451,0.2667 1.08656,0.3556 1.63972,0.3556 1.03716,0 2.09409,-0.64205 2.09409,-1.83726 0,-0.78035 -0.57292,-1.16558 -1.0668,-1.47179 -0.27658,-0.1778 -0.66182,-0.41487 -0.66182,-0.76059 0,-0.22719 0.1778,-0.51365 0.74084,-0.51365 0.24694,0 0.67169,0.079 0.94826,0.2667 z"
         style="font-family:'Parisine Std';-inkscape-font-specification:'Parisine Std Bold Italic';fill:#ffffff"
         id="path8504" /><path
         d="m 237.12655,109.05809 c 0,-0.889 -0.37535,-1.84715 -1.38289,-1.84715 -0.78034,0 -1.37301,0.62231 -1.83727,1.19522 l 0.22719,-1.04705 h -1.23472 l -1.53105,7.23054 h 1.3335 l 0.47413,-2.24226 c 0.24694,0.34572 0.67169,0.41487 1.0668,0.41487 1.88666,0 2.88431,-2.02495 2.88431,-3.70417 z m -1.38289,0.2667 c 0,0.89888 -0.34572,2.49908 -1.53105,2.49908 -0.48402,0 -0.87913,-0.23707 -0.76059,-0.78035 l 0.25682,-1.21496 c 0.0296,-0.13829 0.0988,-0.27658 0.1778,-0.39511 0.24694,-0.38524 0.8001,-1.04705 1.29399,-1.04705 0.36548,0 0.56303,0.30621 0.56303,0.93839 z"
         style="font-family:'Parisine Std';-inkscape-font-specification:'Parisine Std Bold Italic';fill:#ffffff"
         id="path8506" /><path
         d="m 242.79639,109.20626 c 0,-1.25448 -0.77047,-2.03483 -2.02495,-2.03483 -1.89653,0 -3.03248,1.8669 -3.03248,3.59552 0,1.25447 0.77047,2.03482 2.02495,2.03482 1.89653,0 3.03248,-1.8669 3.03248,-3.59551 z m -1.37301,0.15804 c 0,0.83961 -0.42475,2.36079 -1.47179,2.36079 -0.65194,0 -0.82974,-0.56303 -0.82974,-1.11619 0,-0.83961 0.41487,-2.36079 1.46191,-2.36079 0.65194,0 0.83962,0.56304 0.83962,1.11619 z"
         style="font-family:'Parisine Std';-inkscape-font-specification:'Parisine Std Bold Italic';fill:#ffffff"
         id="path8508" /><path
         d="m 247.19199,107.30972 c -0.12841,-0.0494 -0.2667,-0.079 -0.42474,-0.079 -0.69144,0 -1.20509,0.73096 -1.56069,1.28411 l 0.23707,-1.1557 h -1.18534 c -0.0889,0.51365 -0.16792,1.01741 -0.27657,1.52118 l -0.79023,3.7338 h 1.3335 l 0.59267,-2.79541 c 0.0395,-0.16792 0.0889,-0.30621 0.18768,-0.45438 0.28645,-0.41487 0.69144,-0.77047 1.07668,-0.77047 0.0988,0 0.22719,0.0296 0.31609,0.079 z"
         style="font-family:'Parisine Std';-inkscape-font-specification:'Parisine Std Bold Italic';fill:#ffffff"
         id="path8510" /><path
         d="m 251.10359,107.45789 h -1.20509 l 0.31609,-1.52118 -1.4224,0.43462 -0.22719,1.08656 h -0.90876 l -0.21731,0.95814 h 0.92851 l -0.59266,2.77566 c -0.0296,0.13829 -0.0593,0.33584 -0.0593,0.49389 0,0.81985 0.6223,1.09643 1.35326,1.09643 0.3556,0 0.75071,-0.0494 1.0668,-0.12841 l 0.0691,-0.98778 c -0.16792,0.0593 -0.3556,0.079 -0.5334,0.079 -0.30621,0 -0.56303,-0.13829 -0.56303,-0.47414 0,-0.0889 0.0197,-0.18768 0.0395,-0.27658 l 0.54328,-2.5781 h 1.19521 z"
         style="font-family:'Parisine Std';-inkscape-font-specification:'Parisine Std Bold Italic';fill:#ffffff"
         id="path8512" /><path
         d="m 254.81763,107.4974 c -0.42475,-0.21731 -0.86925,-0.30621 -1.38289,-0.30621 -1.28412,0 -2.0447,0.74083 -2.0447,1.79776 0,0.73095 0.51364,1.09643 0.96802,1.39276 0.50377,0.33585 0.7112,0.52352 0.7112,0.80998 0,0.42474 -0.40499,0.56303 -0.8001,0.56303 -0.40499,0 -0.81986,-0.14816 -1.12607,-0.3556 l -0.47413,1.02729 c 0.4445,0.2667 1.08655,0.3556 1.63971,0.3556 1.03717,0 2.09409,-0.64205 2.09409,-1.83726 0,-0.78035 -0.57291,-1.16558 -1.0668,-1.47179 -0.27658,-0.1778 -0.66181,-0.41487 -0.66181,-0.76059 0,-0.22719 0.1778,-0.51365 0.74083,-0.51365 0.24695,0 0.67169,0.079 0.94827,0.2667 z"
         style="font-family:'Parisine Std';-inkscape-font-specification:'Parisine Std Bold Italic';fill:#ffffff"
         id="path8514" /><path
         d="m 262.71986,105.41319 c -0.38523,-0.14817 -0.8001,-0.21731 -1.20509,-0.21731 -1.20509,0 -2.20275,0.59266 -2.45957,1.82739 l -0.0889,0.43462 h -0.89888 l -0.20743,0.95814 h 0.90876 l -0.89888,4.19806 h 1.3335 l 0.889,-4.19806 h 1.19521 l 0.20743,-0.95814 h -1.19521 l 0.0889,-0.42475 c 0.11854,-0.55315 0.45438,-0.8001 1.0668,-0.8001 0.29634,0 0.58279,0.079 0.83961,0.22719 z"
         style="font-family:'Parisine Std';-inkscape-font-specification:'Parisine Std Bold Italic';fill:#ffffff"
         id="path8516" /><path
         d="m 265.31771,107.30972 c -0.12841,-0.0494 -0.2667,-0.079 -0.42474,-0.079 -0.69145,0 -1.20509,0.73096 -1.56069,1.28411 l 0.23706,-1.1557 h -1.18533 c -0.0889,0.51365 -0.16792,1.01741 -0.27658,1.52118 l -0.79022,3.7338 h 1.3335 l 0.59267,-2.79541 c 0.0395,-0.16792 0.0889,-0.30621 0.18768,-0.45438 0.28645,-0.41487 0.69144,-0.77047 1.07667,-0.77047 0.0988,0 0.22719,0.0296 0.31609,0.079 z"
         style="font-family:'Parisine Std';-inkscape-font-specification:'Parisine Std Bold Italic';fill:#ffffff"
         id="path8518" /><path
         d="m 270.66159,107.35911 h -1.28411 l -0.079,0.30621 c -0.22719,-0.34572 -0.61242,-0.45438 -1.03717,-0.45438 -1.91629,0 -2.88431,1.98544 -2.88431,3.69429 0,0.86925 0.3556,1.85703 1.37301,1.85703 0.73096,0 1.3335,-0.6223 1.79776,-1.19521 l -0.0296,0.13828 c -0.13829,0.63218 0.13828,0.98778 0.79022,0.98778 0.29633,0 0.60254,-0.0593 0.77047,-0.11853 l 0.079,-0.86925 c -0.0395,0.0198 -0.11854,0.0395 -0.1778,0.0395 -0.23707,0 -0.18768,-0.23707 -0.15805,-0.38524 z m -1.65946,1.57057 -0.25683,1.21497 c -0.0296,0.13828 -0.10865,0.27657 -0.1778,0.39511 -0.23706,0.38523 -0.78034,1.04704 -1.26435,1.04704 -0.34572,0 -0.54328,-0.31609 -0.54328,-0.94827 0,-0.87912 0.31609,-2.4892 1.49155,-2.4892 0.47413,0 0.86924,0.23707 0.75071,0.78035 z"
         style="font-family:'Parisine Std';-inkscape-font-specification:'Parisine Std Bold Italic';fill:#ffffff"
         id="path8520" /><path
         d="m 276.24254,108.40616 c 0,-0.72108 -0.46426,-1.19522 -1.18534,-1.19522 -0.81985,0 -1.52117,0.60255 -1.99531,1.19522 l 0.22719,-1.04705 h -1.23472 l -1.10631,5.25498 h 1.32362 l 0.59267,-2.78553 c 0.0197,-0.10866 0.0691,-0.24695 0.16792,-0.39511 0.30621,-0.49389 0.87912,-1.04705 1.34338,-1.04705 0.2667,0 0.45437,0.1778 0.45437,0.49389 0,0.13829 -0.0197,0.29633 -0.0494,0.43462 l -0.70133,3.29918 h 1.3335 l 0.74084,-3.50661 c 0.0494,-0.22719 0.0889,-0.46426 0.0889,-0.70132 z"
         style="font-family:'Parisine Std';-inkscape-font-specification:'Parisine Std Bold Italic';fill:#ffffff"
         id="path8522" /><path
         d="m 281.50739,107.54679 c -0.45437,-0.24695 -0.9779,-0.3556 -1.49154,-0.3556 -1.89654,0 -3.05224,1.65947 -3.05224,3.43747 0,1.30386 0.84949,2.15335 2.15336,2.15335 0.54328,0 1.13595,-0.12841 1.59032,-0.42474 l -0.28645,-0.9779 c -0.2667,0.20743 -0.60255,0.31609 -0.93839,0.31609 -0.81986,0 -1.13595,-0.57291 -1.13595,-1.36314 0,-0.93839 0.54328,-2.01506 1.6002,-2.01506 0.36548,0 0.73096,0.10865 1.02729,0.33584 z"
         style="font-family:'Parisine Std';-inkscape-font-specification:'Parisine Std Bold Italic';fill:#ffffff"
         id="path8524" /><path
         d="m 284.32256,105.74903 c 0,-0.31609 -0.2667,-0.54327 -0.6223,-0.54327 -0.47413,0 -0.89887,0.38523 -0.89887,0.86924 0,0.32597 0.27657,0.54328 0.63217,0.54328 0.48402,0 0.889,-0.38524 0.889,-0.86925 z m -0.39511,1.61008 h -1.3335 l -1.11619,5.25498 h 1.3335 z"
         style="font-family:'Parisine Std';-inkscape-font-specification:'Parisine Std Bold Italic';fill:#ffffff"
         id="path8526" /><path
         d="m 287.18711,105.30453 h -1.3335 l -1.55081,7.30956 h 1.3335 z"
         style="font-family:'Parisine Std';-inkscape-font-specification:'Parisine Std Bold Italic';fill:#ffffff"
         id="path8528" /><path
         d="m 289.91338,105.74903 c 0,-0.31609 -0.2667,-0.54327 -0.6223,-0.54327 -0.47413,0 -0.89887,0.38523 -0.89887,0.86924 0,0.32597 0.27657,0.54328 0.63217,0.54328 0.48402,0 0.889,-0.38524 0.889,-0.86925 z m -0.39511,1.61008 h -1.3335 l -1.11619,5.25498 h 1.3335 z"
         style="font-family:'Parisine Std';-inkscape-font-specification:'Parisine Std Bold Italic';fill:#ffffff"
         id="path8530" /><path
         d="m 294.78313,108.55432 c 0,-0.94826 -0.84949,-1.36313 -1.6891,-1.36313 -1.8669,0 -2.98309,1.75824 -2.98309,3.47698 0,1.30386 0.95814,2.11384 2.2225,2.11384 0.63218,0 1.34338,-0.16792 1.89653,-0.47413 l -0.28645,-0.98778 c -0.37536,0.22719 -0.82974,0.38523 -1.27424,0.38523 -0.76059,0 -1.21496,-0.40498 -1.21496,-1.14582 0,-0.0593 0,-0.12841 0,-0.18768 0.20743,0.0198 0.42474,0.0395 0.64205,0.0395 1.20509,0 2.68676,-0.38524 2.68676,-1.85703 z m -1.37301,0.13829 c 0,0.66181 -0.77047,0.81986 -1.29399,0.81986 -0.1778,0 -0.3556,-0.01 -0.5334,-0.0296 0.14816,-0.70132 0.55315,-1.32362 1.25448,-1.32362 0.31608,0 0.57291,0.20744 0.57291,0.5334 z"
         style="font-family:'Parisine Std';-inkscape-font-specification:'Parisine Std Bold Italic';fill:#ffffff"
         id="path8532" /><path
         d="m 300.46285,108.40616 c 0,-0.72108 -0.46425,-1.19522 -1.18533,-1.19522 -0.81986,0 -1.52118,0.60255 -1.99531,1.19522 l 0.22719,-1.04705 h -1.23473 l -1.10631,5.25498 h 1.32362 l 0.59267,-2.78553 c 0.0198,-0.10866 0.0691,-0.24695 0.16792,-0.39511 0.30621,-0.49389 0.87913,-1.04705 1.34338,-1.04705 0.2667,0 0.45438,0.1778 0.45438,0.49389 0,0.13829 -0.0198,0.29633 -0.0494,0.43462 l -0.70132,3.29918 h 1.3335 l 0.74083,-3.50661 c 0.0494,-0.22719 0.0889,-0.46426 0.0889,-0.70132 z"
         style="font-family:'Parisine Std';-inkscape-font-specification:'Parisine Std Bold Italic';fill:#ffffff"
         id="path8534" /><path
         d="m 304.77944,107.4974 c -0.42474,-0.21731 -0.86924,-0.30621 -1.38289,-0.30621 -1.28411,0 -2.0447,0.74083 -2.0447,1.79776 0,0.73095 0.51365,1.09643 0.96802,1.39276 0.50377,0.33585 0.7112,0.52352 0.7112,0.80998 0,0.42474 -0.40499,0.56303 -0.8001,0.56303 -0.40499,0 -0.81985,-0.14816 -1.12606,-0.3556 l -0.47414,1.02729 c 0.4445,0.2667 1.08656,0.3556 1.63971,0.3556 1.03717,0 2.09409,-0.64205 2.09409,-1.83726 0,-0.78035 -0.57291,-1.16558 -1.0668,-1.47179 -0.27657,-0.1778 -0.66181,-0.41487 -0.66181,-0.76059 0,-0.22719 0.1778,-0.51365 0.74084,-0.51365 0.24694,0 0.67168,0.079 0.94826,0.2667 z"
         style="font-family:'Parisine Std';-inkscape-font-specification:'Parisine Std Bold Italic';fill:#ffffff"
         id="path8536" /></g></g><style
     type="text/css"
     id="style1">
	.st0{fill:#A50034;}
	.st1{fill:#FFFFFF;}
</style></svg>
