<?xml version="1.0" encoding="UTF-8" standalone="no"?>
<!-- Created with Inkscape (http://www.inkscape.org/) -->

<svg
   width="17.000008mm"
   height="17.000223mm"
   viewBox="0 0 17.000007 17.000223"
   version="1.1"
   id="svg1"
   inkscape:version="1.4.2 (f4327f4, 2025-05-13)"
   sodipodi:docname="ascenseur.svg"
   xmlns:inkscape="http://www.inkscape.org/namespaces/inkscape"
   xmlns:sodipodi="http://sodipodi.sourceforge.net/DTD/sodipodi-0.dtd"
   xmlns="http://www.w3.org/2000/svg"
   xmlns:svg="http://www.w3.org/2000/svg">
  <sodipodi:namedview
     id="namedview1"
     pagecolor="#ffffff"
     bordercolor="#000000"
     borderopacity="0.25"
     inkscape:showpageshadow="2"
     inkscape:pageopacity="0.0"
     inkscape:pagecheckerboard="0"
     inkscape:deskcolor="#d1d1d1"
     inkscape:document-units="mm"
     inkscape:zoom="9.6320328"
     inkscape:cx="20.867869"
     inkscape:cy="30.782702"
     inkscape:window-width="1920"
     inkscape:window-height="991"
     inkscape:window-x="-9"
     inkscape:window-y="-9"
     inkscape:window-maximized="1"
     inkscape:current-layer="layer1" />
  <defs
     id="defs1">
    <clipPath
       clipPathUnits="userSpaceOnUse"
       id="clipPath73">
      <path
         d="m 183.062,386.482 h 48.19 v 48.19 h -48.19 z"
         transform="translate(-220.4092,-434.67161)"
         id="path73" />
    </clipPath>
    <clipPath
       clipPathUnits="userSpaceOnUse"
       id="clipPath75">
      <path
         d="m 183.062,386.482 h 48.19 v 48.19 h -48.19 z"
         transform="translate(-189.8083,-429.85311)"
         id="path75" />
    </clipPath>
    <clipPath
       clipPathUnits="userSpaceOnUse"
       id="clipPath77">
      <path
         d="m 183.062,386.482 h 48.19 v 48.19 h -48.19 z"
         transform="translate(-225.22771,-429.85311)"
         id="path77" />
    </clipPath>
    <clipPath
       clipPathUnits="userSpaceOnUse"
       id="clipPath79">
      <path
         d="m 183.062,386.482 h 48.19 v 48.19 h -48.19 z"
         transform="translate(-221.13211,-393.71031)"
         id="path79" />
    </clipPath>
    <clipPath
       clipPathUnits="userSpaceOnUse"
       id="clipPath81">
      <path
         d="m 183.062,386.482 h 48.19 v 48.19 h -48.19 z"
         transform="translate(-219.86721,-412.04841)"
         id="path81" />
    </clipPath>
    <clipPath
       clipPathUnits="userSpaceOnUse"
       id="clipPath83">
      <path
         d="m 183.062,386.482 h 48.19 v 48.19 h -48.19 z"
         transform="translate(-219.3595,-409.91221)"
         id="path83" />
    </clipPath>
    <clipPath
       clipPathUnits="userSpaceOnUse"
       id="clipPath85">
      <path
         d="m 183.062,386.482 h 48.19 v 48.19 h -48.19 z"
         transform="translate(-219.3595,-407.62331)"
         id="path85" />
    </clipPath>
    <clipPath
       clipPathUnits="userSpaceOnUse"
       id="clipPath87">
      <path
         d="m 183.062,386.482 h 48.19 v 48.19 h -48.19 z"
         transform="translate(-221.13211,-420.21531)"
         id="path87" />
    </clipPath>
    <clipPath
       clipPathUnits="userSpaceOnUse"
       id="clipPath89">
      <path
         d="m 183.062,386.482 h 48.19 v 48.19 h -48.19 z"
         transform="translate(-212.33001,-422.68261)"
         id="path89" />
    </clipPath>
    <clipPath
       clipPathUnits="userSpaceOnUse"
       id="clipPath91">
      <path
         d="m 183.062,386.482 h 48.19 v 48.19 h -48.19 z"
         transform="translate(-198.93801,-425.44921)"
         id="path91" />
    </clipPath>
    <clipPath
       clipPathUnits="userSpaceOnUse"
       id="clipPath93">
      <path
         d="m 183.062,386.482 h 48.19 v 48.19 h -48.19 z"
         transform="translate(-207.62851,-408.70131)"
         id="path93" />
    </clipPath>
    <clipPath
       clipPathUnits="userSpaceOnUse"
       id="clipPath95">
      <path
         d="m 183.062,386.482 h 48.19 v 48.19 h -48.19 z"
         transform="translate(-213.38691,-410.91411)"
         id="path95" />
    </clipPath>
    <clipPath
       clipPathUnits="userSpaceOnUse"
       id="clipPath97">
      <path
         d="m 183.062,386.482 h 48.19 v 48.19 h -48.19 z"
         transform="translate(-208.0888,-404.29141)"
         id="path97" />
    </clipPath>
    <clipPath
       clipPathUnits="userSpaceOnUse"
       id="clipPath99">
      <path
         d="m 183.062,386.482 h 48.19 v 48.19 h -48.19 z"
         transform="translate(-200.34051,-413.80521)"
         id="path99" />
    </clipPath>
    <clipPath
       clipPathUnits="userSpaceOnUse"
       id="clipPath101">
      <path
         d="m 183.062,386.482 h 48.19 v 48.19 h -48.19 z"
         transform="translate(-197.5771,-412.57341)"
         id="path101" />
    </clipPath>
  </defs>
  <g
     inkscape:label="Calque 1"
     inkscape:groupmode="layer"
     id="layer1"
     transform="translate(-138.93771,-167.04758)">
    <g
       id="g4">
      <path
         id="path72"
         d="m 0,0 h -26.505 c -5.988,0 -10.842,-4.855 -10.842,-10.843 v -26.504 c 0,-5.988 4.854,-10.843 10.842,-10.843 H 0 c 5.988,0 10.842,4.855 10.842,10.843 v 26.504 C 10.842,-4.855 5.988,0 0,0"
         style="fill:#ffffff;fill-opacity:1;fill-rule:nonzero;stroke:none"
         transform="matrix(0.35277776,0,0,-0.35277776,152.1129,167.04758)"
         clip-path="url(#clipPath73)" />
      <g
         id="g3">
        <path
           id="path74"
           d="m 0,0 h -0.723 c -0.266,0 -0.481,-0.216 -0.481,-0.482 v -37.589 c 0,-0.266 0.215,-0.481 0.481,-0.481 H 0 c 0.266,0 0.482,0.215 0.482,0.481 V -0.482 C 0.482,-0.216 0.266,0 0,0"
           style="fill:#0a0082;fill-opacity:1;fill-rule:nonzero;stroke:none"
           transform="matrix(0.35277776,0,0,-0.35277776,141.31758,168.74744)"
           clip-path="url(#clipPath75)" />
        <path
           id="path76"
           d="m 0,0 h -0.723 c -0.266,0 -0.481,-0.216 -0.481,-0.482 v -37.589 c 0,-0.266 0.215,-0.481 0.481,-0.481 H 0 c 0.266,0 0.482,0.215 0.482,0.481 V -0.482 C 0.482,-0.216 0.266,0 0,0"
           style="fill:#0a0082;fill-opacity:1;fill-rule:nonzero;stroke:none"
           transform="matrix(0.35277776,0,0,-0.35277776,153.81276,168.74744)"
           clip-path="url(#clipPath77)" />
        <path
           id="path78"
           d="m 0,0 h -27.951 c -0.266,0 -0.482,-0.216 -0.482,-0.482 v -0.722 c 0,-0.267 0.216,-0.482 0.482,-0.482 H 0 c 0.266,0 0.482,0.215 0.482,0.482 v 0.722 C 0.482,-0.216 0.266,0 0,0"
           style="fill:#0a0082;fill-opacity:1;fill-rule:nonzero;stroke:none"
           transform="matrix(0.35277776,0,0,-0.35277776,152.36793,181.49782)"
           clip-path="url(#clipPath79)" />
        <path
           id="path80"
           d="M 0,0 C 0.183,0 0.379,0.03 0.507,0.155 0.632,0.283 0.663,0.479 0.663,0.662 0.663,0.845 0.632,1.041 0.507,1.17 0.379,1.295 0.183,1.325 0,1.325 -0.183,1.325 -0.379,1.295 -0.507,1.17 -0.632,1.041 -0.663,0.845 -0.663,0.662 -0.663,0.479 -0.632,0.283 -0.507,0.155 -0.379,0.03 -0.183,0 0,0"
           style="fill:#0a0082;fill-opacity:1;fill-rule:nonzero;stroke:none"
           transform="matrix(0.35277776,0,0,-0.35277776,151.9217,175.02855)"
           clip-path="url(#clipPath81)" />
        <path
           id="path82"
           d="m 0,0 c 0.128,-0.125 0.326,-0.155 0.507,-0.155 0.183,0 0.38,0.03 0.509,0.155 C 1.14,0.128 1.17,0.325 1.17,0.507 1.17,0.69 1.14,0.887 1.016,1.015 0.887,1.14 0.69,1.17 0.507,1.17 0.326,1.17 0.128,1.14 0,1.015 -0.125,0.887 -0.155,0.69 -0.155,0.507 -0.155,0.325 -0.125,0.128 0,0"
           style="fill:#0a0082;fill-opacity:1;fill-rule:nonzero;stroke:none"
           transform="matrix(0.35277776,0,0,-0.35277776,151.74259,175.78215)"
           clip-path="url(#clipPath83)" />
        <path
           id="path84"
           d="m 0,0 c 0.128,-0.125 0.326,-0.155 0.507,-0.155 0.183,0 0.38,0.03 0.509,0.155 C 1.14,0.128 1.17,0.325 1.17,0.507 1.17,0.69 1.14,0.887 1.016,1.015 0.887,1.14 0.69,1.17 0.507,1.17 0.326,1.17 0.128,1.14 0,1.015 -0.125,0.887 -0.155,0.69 -0.155,0.507 -0.155,0.325 -0.125,0.128 0,0"
           style="fill:#0a0082;fill-opacity:1;fill-rule:nonzero;stroke:none"
           transform="matrix(0.35277776,0,0,-0.35277776,151.74259,176.58962)"
           clip-path="url(#clipPath85)" />
        <path
           id="path86"
           d="m 0,0 h -27.951 c -0.266,0 -0.482,-0.216 -0.482,-0.482 v -0.722 c 0,-0.267 0.216,-0.482 0.482,-0.482 H 0 c 0.266,0 0.482,0.215 0.482,0.482 v 0.722 C 0.482,-0.216 0.266,0 0,0"
           style="fill:#0a0082;fill-opacity:1;fill-rule:nonzero;stroke:none"
           transform="matrix(0.35277776,0,0,-0.35277776,152.36793,172.14744)"
           clip-path="url(#clipPath87)" />
        <path
           id="path88"
           d="m 0,0 c 0.038,-0.038 0.089,-0.058 0.139,-0.058 0.051,0 0.102,0.02 0.14,0.058 L 3.51,3.231 c 0.18,0.18 0.18,0.471 0,0.651 L 3.046,4.346 c -0.181,0.18 -0.471,0.18 -0.652,0 L 1.905,3.856 c 0,0 -0.875,-0.868 -1.029,-1.101 0.056,0.274 0.052,1.506 0.052,1.506 v 2.45 c 0,0.254 -0.206,0.46 -0.46,0.46 h -0.657 c -0.254,0 -0.46,-0.206 -0.46,-0.46 v -2.45 c 0,0 -0.005,-1.232 0.051,-1.506 -0.153,0.233 -1.028,1.101 -1.028,1.101 l -0.49,0.49 c -0.179,0.18 -0.471,0.18 -0.651,0 L -3.231,3.882 c -0.179,-0.18 -0.179,-0.471 0,-0.651 z"
           style="fill:#0a0082;fill-opacity:1;fill-rule:nonzero;stroke:none"
           transform="matrix(0.35277776,0,0,-0.35277776,149.26274,171.27703)"
           clip-path="url(#clipPath89)" />
        <path
           id="path90"
           d="m 0,0 c 0.179,-0.179 0.471,-0.179 0.65,0 l 0.491,0.49 c 0,0 0.874,0.868 1.028,1.101 C 2.113,1.318 2.117,0.085 2.117,0.085 v -2.449 c 0,-0.254 0.206,-0.461 0.46,-0.461 h 0.657 c 0.254,0 0.46,0.207 0.46,0.461 v 2.449 c 0,0 0.004,1.233 -0.051,1.506 C 3.797,1.358 4.671,0.49 4.671,0.49 L 5.161,0 c 0.18,-0.179 0.471,-0.179 0.65,0 l 0.465,0.465 c 0.18,0.179 0.18,0.471 0,0.65 L 3.046,4.346 C 3.006,4.384 2.956,4.404 2.906,4.404 H 2.905 c -0.05,0 -0.1,-0.02 -0.139,-0.058 L -0.465,1.115 c -0.179,-0.179 -0.179,-0.471 0,-0.65 z"
           style="fill:#0a0082;fill-opacity:1;fill-rule:nonzero;stroke:none"
           transform="matrix(0.35277776,0,0,-0.35277776,144.53834,170.30104)"
           clip-path="url(#clipPath91)" />
        <path
           id="path92"
           d="m 0,0 c -0.134,-0.06 -0.257,-0.144 -0.36,-0.247 -0.052,-0.052 -0.098,-0.11 -0.142,-0.17 l -1.941,-2.567 c -0.118,-0.157 -0.218,-0.345 -0.195,-0.535 0.029,-0.19 0.177,-0.343 0.334,-0.46 0.155,-0.118 0.343,-0.22 0.533,-0.196 0.191,0.03 0.343,0.178 0.461,0.334 L 0.623,-1.284 2.134,-0.773 1.64,-3.1 1.471,-3.894 C 1.412,-4.134 1.417,-4.363 1.486,-4.582 1.556,-4.797 1.688,-4.993 1.865,-5.137 2.043,-5.281 2.254,-5.367 2.5,-5.4 l 0.438,-0.075 0.719,-0.121 4.131,-0.701 2.402,-3.996 c 0.1,-0.167 0.236,-0.331 0.421,-0.38 0.188,-0.044 0.385,0.037 0.553,0.138 0.171,0.094 0.34,0.224 0.396,0.408 0.05,0.186 -0.024,0.386 -0.118,0.557 l -2.258,4.085 c -0.051,0.094 -0.111,0.18 -0.182,0.257 -0.144,0.155 -0.328,0.269 -0.531,0.33 l -4.053,1.203 0.731,3.441 c 0.024,0.106 0.043,0.213 0.05,0.315 0,0.05 0.002,0.101 -0.002,0.149 C 5.193,0.257 5.184,0.302 5.177,0.348 5.158,0.438 5.13,0.528 5.088,0.613 5.011,0.785 4.886,0.938 4.735,1.054 4.583,1.169 4.404,1.248 4.219,1.279 4.128,1.295 4.038,1.3 3.941,1.295 3.892,1.289 3.843,1.284 3.793,1.276 L 3.638,1.235 0.103,0.04 C 0.068,0.028 0.034,0.015 0,0"
           style="fill:#0a0082;fill-opacity:1;fill-rule:nonzero;stroke:none"
           transform="matrix(0.35277776,0,0,-0.35277776,147.60416,176.20933)"
           clip-path="url(#clipPath93)" />
        <path
           id="path94"
           d="M 0,0 C 0.272,0.28 0.337,0.709 0.337,1.108 0.337,1.506 0.272,1.935 0,2.215 -0.281,2.488 -0.71,2.553 -1.108,2.553 -1.506,2.553 -1.935,2.488 -2.216,2.215 -2.488,1.935 -2.553,1.506 -2.553,1.108 -2.553,0.709 -2.488,0.28 -2.216,0 c 0.281,-0.273 0.71,-0.337 1.108,-0.337 0.398,0 0.827,0.064 1.108,0.337"
           style="fill:#0a0082;fill-opacity:1;fill-rule:nonzero;stroke:none"
           transform="matrix(0.35277776,0,0,-0.35277776,149.63559,175.4287)"
           clip-path="url(#clipPath95)" />
        <path
           id="path96"
           d="m 0,0 -0.281,0.335 c -0.164,0.196 -0.463,0.206 -0.645,0.026 -1.055,-1.043 -1.648,-2.553 -1.44,-4.196 0.292,-2.309 2.234,-4.145 4.555,-4.322 2.466,-0.189 4.586,1.42 5.197,3.652 0.068,0.249 -0.09,0.505 -0.344,0.55 l -0.428,0.076 c -0.215,0.037 -0.429,-0.09 -0.488,-0.3 -0.486,-1.735 -2.21,-2.958 -4.158,-2.642 -1.472,0.238 -2.687,1.387 -2.992,2.848 -0.277,1.324 0.164,2.559 1.003,3.396 C 0.136,-0.421 0.142,-0.169 0,0"
           style="fill:#0a0082;fill-opacity:1;fill-rule:nonzero;stroke:none"
           transform="matrix(0.35277776,0,0,-0.35277776,147.76654,177.76504)"
           clip-path="url(#clipPath97)" />
        <path
           id="path98"
           d="M 0,0 C 0.272,0.28 0.338,0.71 0.338,1.108 0.338,1.506 0.272,1.935 0,2.216 -0.281,2.488 -0.71,2.553 -1.108,2.553 -1.505,2.553 -1.935,2.488 -2.215,2.216 -2.488,1.935 -2.553,1.506 -2.553,1.108 -2.553,0.71 -2.488,0.28 -2.215,0 c 0.28,-0.272 0.71,-0.337 1.107,-0.337 0.398,0 0.827,0.065 1.108,0.337"
           style="fill:#0a0082;fill-opacity:1;fill-rule:nonzero;stroke:none"
           transform="matrix(0.35277776,0,0,-0.35277776,145.03311,174.40879)"
           clip-path="url(#clipPath99)" />
        <path
           id="path100"
           d="M 0,0 -0.06,-0.025 -0.132,-0.056 C -0.228,-0.099 -0.32,-0.15 -0.41,-0.207 -0.766,-0.437 -1.053,-0.773 -1.222,-1.159 -1.266,-1.255 -1.3,-1.355 -1.329,-1.457 -1.344,-1.507 -1.354,-1.558 -1.366,-1.609 L -1.389,-1.72 -1.478,-2.157 -2.459,-6.922 c -0.048,-0.235 0.103,-0.465 0.337,-0.513 l 0.415,-0.085 c 0.235,-0.048 0.464,0.103 0.513,0.338 l 0.963,4.675 c 0.01,0.05 0.053,0.086 0.105,0.086 h 0.05 c 0.06,0 0.108,-0.049 0.107,-0.109 l -0.71,-13.36 c -0.015,-0.279 0.2,-0.517 0.479,-0.531 l 0.624,-0.032 c 0.279,-0.015 0.517,0.199 0.531,0.478 l 0.422,7.767 c 0.003,0.118 0.098,0.212 0.214,0.212 H 1.72 c 0.117,0 0.212,-0.094 0.214,-0.212 l 0.421,-7.767 c 0.016,-0.279 0.253,-0.493 0.532,-0.478 l 0.624,0.032 c 0.279,0.014 0.493,0.252 0.479,0.531 L 3.28,-2.53 c -10e-4,0.06 0.048,0.109 0.107,0.109 h 0.05 c 0.051,0 0.096,-0.036 0.106,-0.086 L 4.506,-7.182 C 4.553,-7.417 4.783,-7.568 5.018,-7.52 l 0.415,0.085 c 0.234,0.048 0.385,0.278 0.338,0.513 L 4.79,-2.157 4.7,-1.72 4.677,-1.609 C 4.666,-1.558 4.655,-1.507 4.64,-1.457 4.611,-1.355 4.577,-1.255 4.533,-1.159 4.365,-0.773 4.077,-0.437 3.721,-0.207 3.631,-0.15 3.539,-0.099 3.443,-0.056 L 3.372,-0.025 3.311,0 C 3.271,0.016 3.23,0.031 3.189,0.047 3.026,0.106 2.859,0.156 2.689,0.195 2.35,0.276 2.002,0.315 1.656,0.315 1.309,0.315 0.961,0.276 0.622,0.195 0.453,0.156 0.286,0.106 0.122,0.047 0.082,0.031 0.04,0.016 0,0"
           style="fill:#0a0082;fill-opacity:1;fill-rule:nonzero;stroke:none"
           transform="matrix(0.35277776,0,0,-0.35277776,144.05824,174.84334)"
           clip-path="url(#clipPath101)" />
      </g>
    </g>
  </g>
</svg>
