<svg xmlns="http://www.w3.org/2000/svg" width="120" height="77" viewBox="0 0 120 77"><path fill-rule="evenodd" clip-rule="evenodd" fill="#0055c8" d="M0 0h120v77H0z"/><path d="M39.6 18.422v6.445H28.393V58.59H20.5V24.867H8.871v-6.445H39.6z" fill="#ffce00"/><path d="M44.921 31.065l5.945 20.16 5.946-20.16H64.6L54.708 58.59h-7.734l-9.84-27.524h7.787zM71.49 58.59V31.065h7.366v4.113h.104c2.315-3.25 4.421-5.129 8.735-4.57 3.63.457 4.63 1.676 6.734 4.012 1.789-2.438 3.999-4.672 9.997-4.012 5.683.813 7.262 4.469 7.262 8.887V58.59h-7.366V39.647c-.105-2.031-1.947-2.793-3.684-2.895-3.946-.254-5.366 3.098-5.366 4.977v16.86h-7.367V39.647c-.421-1.93-1.736-2.843-4.052-2.895-2.578-.051-4.998 1.574-4.998 4.977v16.86H71.49z" fill="#82c8e6"/></svg>