<svg xmlns="http://www.w3.org/2000/svg" viewBox="0 0 283.4647 283.46457"><defs><style>.cls-1{fill:#fff;}.cls-2{fill:#231f20;}</style></defs><g id="Layer_2" data-name="Layer 2"><g id="Layer_1-2" data-name="Layer 1"><path class="cls-1" d="M219.6837,283.46457H63.781A63.78413,63.78413,0,0,1,0,219.68361V63.781A63.78413,63.78413,0,0,1,63.781,0H219.6837a63.78411,63.78411,0,0,1,63.781,63.781V219.68361a63.78411,63.78411,0,0,1-63.781,63.781"/><path class="cls-2" d="M233.83487,134.644c0-25.376-4.20959-52.70874-21.54419-70.57495-17.92114-17.34375-45.19958-21.554-70.57556-21.554S89.01554,46.72534,71.131,64.06909c-17.34375,17.86621-21.5448,45.199-21.5448,70.57495s4.20105,52.70874,21.5448,70.575c11.82251,11.471,27.77466,17.17407,44.55689,19.73633l-5.42114,24.57153a4.53552,4.53552,0,0,0,6.391,5.06592l81.47278-39.09058-.14527.0061a62.93674,62.93674,0,0,0,14.30542-10.2893C229.62528,187.35278,233.83487,160.02,233.83487,134.644Zm-41.842,69.60327.01221.04638-65.64453,31.49415,4.71923-21.38428-13.46435-2.05811c-16.626-2.53906-28.92578-7.86621-37.60254-16.28174C68.21109,183.89819,62.342,163.71752,62.342,134.64282c0-29.07227,5.86914-49.25293,17.9419-61.68946,12.1875-11.80908,32.3706-17.6831,61.43066-17.6831,29.02832,0,49.21387,5.87646,61.70654,17.96631,11.78955,12.16064,17.65869,32.33886,17.65869,61.40625s-5.86914,49.248-17.94433,61.69433A50.29052,50.29052,0,0,1,191.99283,204.24731Z"/><path class="cls-2" d="M139.964,100.71459c2.98828,0,6.21094-.49316,8.32276-2.53418,2.041-2.11181,2.5354-5.33569,2.5354-8.324,0-2.99439-.49439-6.21094-2.5354-8.32275-2.11182-2.041-5.33448-2.53541-8.32276-2.53541s-6.21216.49439-8.324,2.53541c-2.041,2.11181-2.53418,5.32836-2.53418,8.32275,0,2.98828.49316,6.21216,2.53418,8.324C133.75186,100.22143,136.97574,100.71459,139.964,100.71459Z"/><path class="cls-2" d="M154.04,171.86694h-3.44727V153.06078q0-16.82556-.00488-33.78662l-.01221-.47729c-.01831-.32349-.0415-.647-.0708-.96436a13.42635,13.42635,0,0,0-.33569-1.88842,7.68751,7.68751,0,0,0-1.22925-2.64649,6.51819,6.51819,0,0,0-.82886-1.11206c-1.78833-1.72974-4.52392-2.1521-7.05932-2.1521h-11.676c-2.5354,0-5.26489.42236-7.052,2.1521-1.73584,1.79443-2.15332,4.52393-2.15332,7.06421,0,2.5354.41748,5.26489,2.15332,7.05933,1.78711,1.72973,4.5166,2.1521,7.052,2.1521h2.8003q0,12.32665-.00611,24.5996c0,8.59986.00611,10.15381.00611,18.80616h-2.8003c-2.5354,0-5.26489.41748-7.052,2.15332-1.73584,1.78711-2.15332,4.5227-2.15332,7.0581s.41748,5.271,2.15332,7.05811c1.78711,1.73584,4.5166,2.15332,7.052,2.15332H154.04c2.5354,0,5.26489-.41748,7.05322-2.15332,1.73462-1.78711,2.15821-4.52271,2.15821-7.05811s-.42359-5.271-2.15821-7.0581C159.30484,172.28442,156.57535,171.86694,154.04,171.86694Z"/></g></g></svg>