<?xml version="1.0" encoding="UTF-8"?><svg id="Layer_1" xmlns="http://www.w3.org/2000/svg" viewBox="0 0 283.47 283.46"><defs><style>.cls-1{fill:#fff;}.cls-2{fill:#e85433;}</style></defs><g><polygon class="cls-1" points="173.24 123.31 110.42 123.31 97.91 155.91 185.75 155.91 173.24 123.31"/><path class="cls-1" d="m149.77,62.15c-2.79-7.28-13.09-7.28-15.88,0l-12.59,32.82h41.07l-12.59-32.82Z"/><path class="cls-1" d="m207.03,198.43h0c-2.99,0-5.67-1.84-6.74-4.63l-3.66-9.54h-109.59l-3.66,9.54c-1.07,2.79-3.75,4.63-6.74,4.63h0c-7.04,0-12.76,5.71-12.76,12.76v2.83c0,7.04,5.71,12.76,12.76,12.76h130.39c7.04,0,12.76-5.71,12.76-12.76v-2.83c0-7.04-5.71-12.76-12.76-12.76Z"/></g><g><path class="cls-2" d="m219.69,18.43H63.78c-25.05,0-45.35,20.31-45.35,45.35v155.91c0,25.05,20.31,45.35,45.35,45.35h155.91c25.05,0,45.35-20.31,45.35-45.35V63.78c0-25.05-20.31-45.35-45.35-45.35Z"/><g><polygon class="cls-1" points="173.19 123.31 110.37 123.31 97.86 155.91 185.7 155.91 173.19 123.31"/><path class="cls-1" d="m149.72,62.15c-2.79-7.28-13.09-7.28-15.88,0l-12.59,32.82h41.07l-12.59-32.82Z"/><path class="cls-1" d="m206.98,198.43h0c-2.99,0-5.67-1.84-6.74-4.63l-3.66-9.54h-109.6l-3.66,9.54c-1.07,2.79-3.75,4.63-6.74,4.63h0c-7.05,0-12.76,5.71-12.76,12.76v2.83c0,7.04,5.71,12.76,12.76,12.76h130.39c7.05,0,12.76-5.71,12.76-12.76v-2.83c0-7.05-5.71-12.76-12.76-12.76Z"/></g><path d="m219.69,0H63.78C28.56,0,0,28.55,0,63.78v155.91c0,35.22,28.56,63.78,63.78,63.78h155.91c35.22,0,63.78-28.55,63.78-63.78V63.78c0-35.22-28.56-63.78-63.78-63.78Zm45.35,219.69c0,25.05-20.31,45.35-45.35,45.35H63.78c-25.05,0-45.35-20.31-45.35-45.35V63.78c0-25.05,20.31-45.35,45.35-45.35h155.91c25.05,0,45.35,20.31,45.35,45.35v155.91Z"/></g></svg>