<svg xmlns="http://www.w3.org/2000/svg" viewBox="0 0 283.46466 283.46436"><defs><style>.cls-1{fill:#231f20;}</style></defs><g id="Layer_2" data-name="Layer 2"><g id="Layer_1-2" data-name="Layer 1"><path class="cls-1" d="M219.68506,0H63.7796A63.7794,63.7794,0,0,0,0,63.7793V219.68506a63.7794,63.7794,0,0,0,63.7796,63.7793H219.68506a63.7792,63.7792,0,0,0,63.7796-63.7793V63.7793A63.7792,63.7792,0,0,0,219.68506,0Zm45.3537,219.68506a45.4066,45.4066,0,0,1-45.354,45.354H63.779a45.4066,45.4066,0,0,1-45.354-45.354V63.7793a45.4066,45.4066,0,0,1,45.354-45.354H219.68475a45.4066,45.4066,0,0,1,45.354,45.354Z"/><polygon class="cls-1" points="173.143 123.311 110.322 123.311 97.813 155.909 185.652 155.909 173.143 123.311"/><path class="cls-1" d="M149.67163,62.14966a8.50353,8.50353,0,0,0-15.8783,0L121.19965,94.96674h41.06567Z"/><path class="cls-1" d="M206.929,198.4259h-.00153a7.2136,7.2136,0,0,1-6.73523-4.62921l-3.66241-9.54346H86.93512l-3.66241,9.54346a7.2136,7.2136,0,0,1-6.73523,4.62921h-.00184a12.75577,12.75577,0,0,0-12.756,12.75574v2.83447a12.75557,12.75557,0,0,0,12.75574,12.75513h130.394a12.75563,12.75563,0,0,0,12.756-12.75513v-2.83447A12.75583,12.75583,0,0,0,206.929,198.4259Z"/></g></g></svg>