<svg xmlns="http://www.w3.org/2000/svg" viewBox="0 0 283.46466 283.46436"><defs><style>.cls-1{fill:#ffbe00;}.cls-2{fill:#231f20;}</style></defs><g id="Layer_2" data-name="Layer 2"><g id="Layer_1-2" data-name="Layer 1"><path class="cls-1" d="M63.77927,18.42522h155.906a45.354,45.354,0,0,1,45.354,45.354V219.68474A45.35425,45.35425,0,0,1,219.685,265.039H63.77951a45.35425,45.35425,0,0,1-45.35425-45.35425V63.77923a45.354,45.354,0,0,1,45.354-45.354Z"/><path class="cls-2" d="M219.68506,0H63.7796A63.7794,63.7794,0,0,0,0,63.7793V219.68475a63.77947,63.77947,0,0,0,63.7796,63.77961H219.68506a63.77947,63.77947,0,0,0,63.7796-63.77961V63.7793A63.7794,63.7794,0,0,0,219.68506,0Zm45.35431,219.68506a45.40549,45.40549,0,0,1-45.35431,45.354H63.7796a45.40549,45.40549,0,0,1-45.35431-45.354V63.7793a45.4053,45.4053,0,0,1,45.35431-45.354H219.68506a45.4053,45.4053,0,0,1,45.35431,45.354Z"/><path class="cls-2" d="M141.73248,195.5957c-4.29382,0-8.91113.71167-11.94366,3.64624-2.93518,3.02491-3.64685,7.65015-3.64685,11.94336,0,4.29444.71167,8.91968,3.64685,11.94458,3.03253,2.93457,7.64984,3.64624,11.94366,3.64624s8.91938-.71167,11.94367-3.64624c2.93518-3.0249,3.64685-7.65014,3.64685-11.94458,0-4.29321-.71167-8.91845-3.64685-11.94336C150.65186,196.30737,146.02631,195.5957,141.73248,195.5957Z"/><path class="cls-2" d="M141.73248,56.69067c-4.422,0-9.17694.73243-12.2995,3.75611-3.02307,3.114-3.75579,7.87719-3.75579,12.2998V96.93237l2.977,64.58741v-.00123c0,3.6023.59693,7.48291,3.05909,10.01954,2.54394,2.46215,6.41723,3.05908,10.01922,3.05908s7.482-.59693,10.01923-3.05908c2.46216-2.53663,3.05908-6.41724,3.05908-10.01954v.00123l2.977-64.58741V72.74658c0-4.42261-.73273-9.18579-3.7558-12.2998C150.91766,57.4231,146.15448,56.69067,141.73248,56.69067Z"/></g></g></svg>