<?xml version="1.0" encoding="UTF-8" standalone="no"?>
<svg
   width="250px"
   height="250px"
   viewBox="0 0 283.46 283.46"
   version="1.1"
   id="svg9262"
   sodipodi:docname="symbole_RER_RVB.svg"
   inkscape:version="1.2.2 (b0a8486541, 2022-12-01)"
   xmlns:inkscape="http://www.inkscape.org/namespaces/inkscape"
   xmlns:sodipodi="http://sodipodi.sourceforge.net/DTD/sodipodi-0.dtd"
   xmlns="http://www.w3.org/2000/svg"
   xmlns:svg="http://www.w3.org/2000/svg">
  <defs
     id="defs9266" />
  <sodipodi:namedview
     id="namedview9264"
     pagecolor="#505050"
     bordercolor="#eeeeee"
     borderopacity="1"
     inkscape:showpageshadow="0"
     inkscape:pageopacity="0"
     inkscape:pagecheckerboard="0"
     inkscape:deskcolor="#505050"
     showgrid="false"
     inkscape:zoom="1.4961523"
     inkscape:cx="14.036004"
     inkscape:cy="106.2726"
     inkscape:window-width="1920"
     inkscape:window-height="1008"
     inkscape:window-x="0"
     inkscape:window-y="0"
     inkscape:window-maximized="1"
     inkscape:current-layer="svg9262" />
  <title
     id="title9256">Paris transit icons - RER</title>
  <g
     id="g11733">
    <g
       id="rect9258">
      <path
         style="color:#000000;fill:#ffffff;stroke-width:18.445;-inkscape-stroke:none"
         d="M 63.787498,9.2224998 H 219.67252 c 30.22901,0 54.56499,24.3359892 54.56499,54.5649982 V 219.67252 c 0,30.22901 -24.33598,54.56499 -54.56499,54.56499 H 63.787498 c -30.229009,0 -54.5649982,-24.33598 -54.5649982,-54.56499 V 63.787498 c 0,-30.229009 24.3359892,-54.5649982 54.5649982,-54.5649982 z"
         id="path11717" />
      <path
         style="color:#000000;fill:#000000;-inkscape-stroke:none"
         d="M 63.787109,0 C 28.608394,0 0,28.608394 0,63.787109 V 219.67187 c 0,35.17872 28.608394,63.78907 63.787109,63.78907 H 219.67187 c 35.17872,0 63.78907,-28.61035 63.78907,-63.78907 V 63.787109 C 283.46094,28.608394 254.85059,0 219.67187,0 Z m 0,18.445312 H 219.67187 c 25.27925,0 45.34375,20.062555 45.34375,45.341797 V 219.67187 c 0,25.27925 -20.0645,45.34375 -45.34375,45.34375 H 63.787109 c -25.279242,0 -45.341797,-20.0645 -45.341797,-45.34375 V 63.787109 c 0,-25.279242 20.062555,-45.341797 45.341797,-45.341797 z"
         id="path11719" />
    </g>
    <path
       fill="#25303B"
       d="m 243.43,119.77 c 0,-19.13 -14.18,-28 -28,-28 h -26.57 c -5,0 -7.79,3.89 -7.79,8.15 v 83.28 c 0,5 5,7.43 9.56,7.43 5.32,0 9.57,-2.47 9.57,-7.43 V 151 h 8.15 l 15.94,35.78 a 7,7 0 0 0 6.74,3.89 c 5.66,0 13.82,-5.31 10.63,-11.68 L 226.42,147.1 c 9.21,-4.62 17,-12.76 17,-27.29 m -71.92,61.61 c 0,-4.26 -2.84,-8.85 -7.8,-8.85 h -26.93 v -24.45 h 22.32 a 7.93,7.93 0 0 0 7.8,-8.15 c 0,-4.25 -2.84,-8.16 -7.8,-8.16 h -22.32 v -22.32 h 24.81 c 5,0 7.79,-5 7.79,-8.85 0,-4.26 -2.83,-8.86 -7.79,-8.86 h -36.15 c -5,0 -7.79,3.89 -7.79,8.15 v 82.91 c 0,5 5,7.44 9.57,7.44 h 36.49 c 5,0 7.8,-5 7.8,-8.86 m -65.21,-61.65 c 0,-19.13 -14.16,-28 -28,-28 H 51.73 c -4.95,0 -7.79,3.89 -7.79,8.15 v 83.28 c 0,5 5,7.43 9.56,7.43 5.31,0 9.56,-2.47 9.56,-7.43 V 151 h 8.16 l 16,35.78 a 7,7 0 0 0 6.73,3.89 c 5.67,0 13.81,-5.31 10.63,-11.68 L 89.29,147.06 c 9.22,-4.62 17,-12.76 17,-27.29 m 117.29,2.13 c 0,12 -11,14.87 -17.71,14.87 h -5.67 v -28.7 h 6.72 c 8.87,0 16.66,3.91 16.66,13.83 m -137.12,0 c 0,12 -11,14.87 -17.72,14.87 h -5.68 v -28.7 h 6.75 c 8.85,0 16.65,3.91 16.65,13.83"
       id="path9260"
       style="fill:#000000;fill-opacity:1" />
  </g>
</svg>
