<?xml version="1.0" encoding="UTF-8" standalone="no"?>
<svg
   width="250px"
   height="250px"
   viewBox="0 0 283.46 283.46"
   version="1.1"
   id="svg9807"
   sodipodi:docname="symbole_train_RVB.svg"
   inkscape:version="1.2.2 (b0a8486541, 2022-12-01)"
   xmlns:inkscape="http://www.inkscape.org/namespaces/inkscape"
   xmlns:sodipodi="http://sodipodi.sourceforge.net/DTD/sodipodi-0.dtd"
   xmlns="http://www.w3.org/2000/svg"
   xmlns:svg="http://www.w3.org/2000/svg">
  <defs
     id="defs9811" />
  <sodipodi:namedview
     id="namedview9809"
     pagecolor="#505050"
     bordercolor="#eeeeee"
     borderopacity="1"
     inkscape:showpageshadow="0"
     inkscape:pageopacity="0"
     inkscape:pagecheckerboard="0"
     inkscape:deskcolor="#505050"
     showgrid="false"
     inkscape:zoom="3.336"
     inkscape:cx="31.47482"
     inkscape:cy="125"
     inkscape:window-width="1920"
     inkscape:window-height="1008"
     inkscape:window-x="0"
     inkscape:window-y="0"
     inkscape:window-maximized="1"
     inkscape:current-layer="svg9807" />
  <title
     id="title9801">Paris transit icons - Train</title>
  <g
     id="g14596">
    <g
       id="rect9803">
      <path
         style="color:#000000;fill:#ffffff;stroke-width:18.445;-inkscape-stroke:none"
         d="M 63.787498,9.2224998 H 219.67252 c 30.22901,0 54.56499,24.3359892 54.56499,54.5649982 V 219.67252 c 0,30.22901 -24.33598,54.56499 -54.56499,54.56499 H 63.787498 c -30.229009,0 -54.5649982,-24.33598 -54.5649982,-54.56499 V 63.787498 c 0,-30.229009 24.3359892,-54.5649982 54.5649982,-54.5649982 z"
         id="path14588" />
      <path
         style="color:#000000;fill:#000000;-inkscape-stroke:none"
         d="M 63.787109,0 C 28.608394,0 0,28.608394 0,63.787109 V 219.67187 c 0,35.17872 28.608394,63.78907 63.787109,63.78907 H 219.67187 c 35.17872,0 63.78907,-28.61035 63.78907,-63.78907 V 63.787109 C 283.46094,28.608394 254.85059,0 219.67187,0 Z m 0,18.445312 H 219.67187 c 25.27925,0 45.34375,20.062555 45.34375,45.341797 V 219.67187 c 0,25.27925 -20.0645,45.34375 -45.34375,45.34375 H 63.787109 c -25.279242,0 -45.341797,-20.0645 -45.341797,-45.34375 V 63.787109 c 0,-25.279242 20.062555,-45.341797 45.341797,-45.341797 z"
         id="path14590" />
    </g>
    <path
       fill="#25303B"
       d="m 183.87,204.6 a 13.27,13.27 0 0 0 1.67,-1.29 c 5.09,-4.13 9.85,-10.45 13.31,-20.25 4.83,-13.73 8.24,-26 9.18,-41.12 1.31,-18.6 -6.35,-47.53 -11.43,-61 l -1.77,-4.75 c -1.09,-3 -5.26,-9.47 -12.65,-17.18 -6.36,-6.62 -12.47,-7.11 -21.77,-7.11 h -37.76 c -9.3,0 -15.4,0.49 -21.77,7.11 -7.4,7.68 -11.57,14.15 -12.65,17.18 l -1.78,4.78 C 81.37,94.41 73.72,123.34 75,142 c 0.94,15.06 4.36,27.31 9.21,41.09 3.45,9.82 8.2,16.12 13.3,20.25 a 16.88,16.88 0 0 0 1.69,1.27 l -27.5,30.58 a 6.87,6.87 0 0 0 0,9 5.31,5.31 0 0 0 8.06,0 l 9.5,-10.54 H 193.8 l 9.48,10.54 a 5.32,5.32 0 0 0 8.07,0 6.89,6.89 0 0 0 0,-9 z m -9.23,-11.15 a 9.44,9.44 0 1 1 9.45,-9.45 9.46,9.46 0 0 1 -9.45,9.45 M 89.16,132.9 c -5.77,0 3.3,-50.66 7.43,-50.66 h 88.85 c 4.49,0 15,50.66 8,50.66 z m 9.62,51.1 a 9.45,9.45 0 1 1 9.45,9.45 9.44,9.44 0 0 1 -9.45,-9.45 m 1.92,36.9 10.12,-11.25 a 55.65,55.65 0 0 0 12.8,1.13 h 35.82 a 55.57,55.57 0 0 0 12.79,-1.13 l 10.13,11.25 z"
       id="path9805"
       style="fill:#000000;fill-opacity:1" />
  </g>
</svg>
