<?xml version="1.0" encoding="UTF-8" standalone="no"?>
<svg
   width="250px"
   height="250px"
   viewBox="0 0 283.46 283.46"
   version="1.1"
   id="svg10360"
   sodipodi:docname="symbole_tram_RVB.svg"
   inkscape:version="1.2.2 (b0a8486541, 2022-12-01)"
   xmlns:inkscape="http://www.inkscape.org/namespaces/inkscape"
   xmlns:sodipodi="http://sodipodi.sourceforge.net/DTD/sodipodi-0.dtd"
   xmlns="http://www.w3.org/2000/svg"
   xmlns:svg="http://www.w3.org/2000/svg">
  <defs
     id="defs10364" />
  <sodipodi:namedview
     id="namedview10362"
     pagecolor="#505050"
     bordercolor="#eeeeee"
     borderopacity="1"
     inkscape:showpageshadow="0"
     inkscape:pageopacity="0"
     inkscape:pagecheckerboard="0"
     inkscape:deskcolor="#505050"
     showgrid="false"
     inkscape:zoom="2.248215"
     inkscape:cx="8.0063518"
     inkscape:cy="89.849059"
     inkscape:window-width="1920"
     inkscape:window-height="1008"
     inkscape:window-x="0"
     inkscape:window-y="0"
     inkscape:window-maximized="1"
     inkscape:current-layer="svg10360" />
  <title
     id="title10350">Paris transit icons - Tram</title>
  <g
     id="g10850">
    <path
       fill="#FFF"
       d="M0,9.21h283.46v265.04H0z"
       id="path10352" />
    <rect
       fill="#25303B"
       width="283.46"
       height="18.43"
       rx="9.21"
       id="rect10354"
       style="fill:#000000;fill-opacity:1" />
    <rect
       fill="#25303B"
       width="283.46"
       height="18.43"
       rx="9.21"
       y="265.04"
       id="rect10356"
       style="fill:#000000;fill-opacity:1" />
    <path
       fill="#25303B"
       d="M28.35,212.6h185.7a41.55,41.55,0,0,0,37.54-23.41,35.42,35.42,0,0,0,3.17-20.56,111.89,111.89,0,0,0-28.41-60.39,27.67,27.67,0,0,0-20.43-9h-98L128.47,82.3a5,5,0,0,0,0-7.66L92.33,45a3.21,3.21,0,0,0-4.52.44l-2,2.48a3.22,3.22,0,0,0,.44,4.53L118,78.47,92.72,99.21H28.35V112H69.59a2,2,0,0,1,2,2V168.8a2,2,0,0,1-2,2H28.35Zm188.48-95.88a99.3,99.3,0,0,1,22.94,41.9c1.77,6.7-2.36,12.17-9.3,12.17H171.35a2,2,0,0,1-2-2V114a2,2,0,0,1,2-2h34.57a14.79,14.79,0,0,1,10.91,4.75m-62.2,83.12H128.84a2,2,0,0,1-2-2V114a2,2,0,0,1,2-2h25.79a2,2,0,0,1,2,2v83.91a2,2,0,0,1-2,2M86.31,112h25.8a2,2,0,0,1,2,2v83.91a2,2,0,0,1-2,2H86.31a2,2,0,0,1-2-2V114a2,2,0,0,1,2-2M251.15,235.84H28.35v-11.9h222.8a4,4,0,0,1,4,4v4a4,4,0,0,1-4,4"
       id="path10358"
       style="fill:#000000;fill-opacity:1" />
  </g>
</svg>
