<?xml version="1.0" encoding="UTF-8" standalone="no"?>
<!-- Generator: Adobe Illustrator 26.3.1, SVG Export Plug-In . SVG Version: 6.00 Build 0)  -->

<svg
   version="1.1"
   id="Layer_1"
   x="0px"
   y="0px"
   viewBox="0 0 283.5 283.5"
   style="enable-background:new 0 0 283.5 283.5;"
   xml:space="preserve"
   sodipodi:docname="tram_T6_couleur_RVB.svg"
   inkscape:version="1.2.2 (b0a8486541, 2022-12-01)"
   xmlns:inkscape="http://www.inkscape.org/namespaces/inkscape"
   xmlns:sodipodi="http://sodipodi.sourceforge.net/DTD/sodipodi-0.dtd"
   xmlns:xlink="http://www.w3.org/1999/xlink"
   xmlns="http://www.w3.org/2000/svg"
   xmlns:svg="http://www.w3.org/2000/svg"><defs
   id="defs19918" /><sodipodi:namedview
   id="namedview19916"
   pagecolor="#505050"
   bordercolor="#eeeeee"
   borderopacity="1"
   inkscape:showpageshadow="0"
   inkscape:pageopacity="0"
   inkscape:pagecheckerboard="0"
   inkscape:deskcolor="#505050"
   showgrid="false"
   inkscape:zoom="2.9417989"
   inkscape:cx="106.39748"
   inkscape:cy="141.75"
   inkscape:window-width="1920"
   inkscape:window-height="1008"
   inkscape:window-x="0"
   inkscape:window-y="0"
   inkscape:window-maximized="1"
   inkscape:current-layer="Layer_1" />
<style
   type="text/css"
   id="style19901">
	.st0{clip-path:url(#SVGID_00000105417992365061550300000007930096919922625168_);}
	.st1{clip-path:url(#SVGID_00000105417992365061550300000007930096919922625168_);fill:#FF1400;}
</style>
<g
   id="g25246"><rect
     style="fill:#ffffff;fill-opacity:1;stroke-width:4.5568"
     id="rect346"
     width="283.5"
     height="235.46899"
     x="0"
     y="24.015503"
     ry="0" /><g
     id="g19913">
	<defs
   id="defs19904">
		<rect
   id="SVGID_1_"
   width="283.5"
   height="283.5"
   x="0"
   y="0" />
	</defs>
	<clipPath
   id="SVGID_00000006682861121176299590000017211548813598713984_">
		<use
   xlink:href="#SVGID_1_"
   style="overflow:visible"
   id="use19906" />
	</clipPath>
	<path
   d="M 103.7,107.4 V 197 H 79.6 V 107.4 H 46 V 87.8 h 91.3 v 19.6 z m 96.3,92.2 c -29.9,0 -40.5,-20.7 -40.5,-49.6 0,-37.9 17.8,-65.1 52.7,-65.1 6.2,0 11.8,0.8 16.4,1.9 l -3.4,18.6 c -2.9,-1.2 -8.7,-2.6 -15,-2.6 -15.3,0 -26.4,12.2 -28,34.2 3.7,-3.2 10.8,-7.4 22.6,-7.4 18.1,0 32.6,11.9 32.6,32.3 0.1,21.6 -14.5,37.7 -37.4,37.7 m -2.1,-53.1 c -7,0 -12.5,2.6 -14.7,6 -1.2,1.9 -1.2,6.2 -1.2,9.4 0,10.4 6,20.4 17.2,20.4 10.8,0 16.4,-8.8 16.4,-18.2 -0.1,-10.1 -6.9,-17.6 -17.7,-17.6"
   clip-path="url(#SVGID_00000006682861121176299590000017211548813598713984_)"
   id="path19909" />
	<path
   style="fill:#ff1400"
   d="M 269.3,42.5 H 14.2 C 6.3,42.5 0,36.2 0,28.3 V 14.2 C 0,6.3 6.3,0 14.2,0 h 255.1 c 7.8,0 14.2,6.3 14.2,14.2 v 14.2 c 0,7.8 -6.4,14.1 -14.2,14.1 m 14.2,226.8 v -14.2 c 0,-7.8 -6.3,-14.2 -14.2,-14.2 H 14.2 C 6.4,240.9 0,247.2 0,255.1 v 14.2 c 0,7.8 6.3,14.2 14.2,14.2 h 255.1 c 7.8,0 14.2,-6.4 14.2,-14.2"
   clip-path="url(#SVGID_00000006682861121176299590000017211548813598713984_)"
   id="path19911" />
</g></g>
</svg>
