<?xml version="1.0" encoding="UTF-8" standalone="no"?>
<!-- Generator: Adobe Illustrator 26.3.1, SVG Export Plug-In . SVG Version: 6.00 Build 0)  -->

<svg
   version="1.1"
   id="Layer_1"
   x="0px"
   y="0px"
   viewBox="0 0 283.5 283.5"
   style="enable-background:new 0 0 283.5 283.5;"
   xml:space="preserve"
   sodipodi:docname="tram_T12_couleur_RVB.svg"
   inkscape:version="1.2.2 (b0a8486541, 2022-12-01)"
   xmlns:inkscape="http://www.inkscape.org/namespaces/inkscape"
   xmlns:sodipodi="http://sodipodi.sourceforge.net/DTD/sodipodi-0.dtd"
   xmlns:xlink="http://www.w3.org/1999/xlink"
   xmlns="http://www.w3.org/2000/svg"
   xmlns:svg="http://www.w3.org/2000/svg"><defs
   id="defs2119" /><sodipodi:namedview
   id="namedview2117"
   pagecolor="#505050"
   bordercolor="#eeeeee"
   borderopacity="1"
   inkscape:showpageshadow="0"
   inkscape:pageopacity="0"
   inkscape:pagecheckerboard="0"
   inkscape:deskcolor="#505050"
   showgrid="false"
   inkscape:zoom="2.9417989"
   inkscape:cx="106.39748"
   inkscape:cy="141.75"
   inkscape:window-width="1920"
   inkscape:window-height="1008"
   inkscape:window-x="0"
   inkscape:window-y="0"
   inkscape:window-maximized="1"
   inkscape:current-layer="Layer_1" />
<style
   type="text/css"
   id="style2102">
	.st0{clip-path:url(#SVGID_00000109730458086215336440000004554931868854888342_);}
	.st1{clip-path:url(#SVGID_00000109730458086215336440000004554931868854888342_);fill:#A50034;}
</style>
<g
   id="g3415"><rect
     style="fill:#ffffff;fill-opacity:1;stroke-width:4.5568"
     id="rect346"
     width="283.5"
     height="235.46899"
     x="0"
     y="24.246258"
     ry="0" /><g
     id="g2114">
	<defs
   id="defs2105">
		<rect
   id="SVGID_1_"
   width="283.5"
   height="283.5"
   x="0"
   y="0" />
	</defs>
	<clipPath
   id="SVGID_00000129888476219721827950000011053941370519129220_">
		<use
   xlink:href="#SVGID_1_"
   style="overflow:visible"
   id="use2107" />
	</clipPath>
	<path
   d="M 70.4,107.5 V 197 H 46.3 V 107.4 H 12.7 V 87.8 H 104 v 19.6 H 70.4 Z m 88,89.5 v -85.8 c -6.6,5.3 -17.2,10.4 -24.4,13.6 l -7.4,-16.7 c 11.4,-4.8 25.2,-12.1 36,-20.3 h 19 V 197 Z m 41.5,0 v -14.4 c 2.8,-12.7 15.3,-24.3 29.8,-37 7.3,-6.3 15.2,-14.2 15.2,-24.8 0,-9.4 -6.2,-17.3 -18.1,-17.3 -9.6,0 -16.2,7 -18.9,9.9 L 196.5,98.2 c 10.5,-9.1 20.3,-13.5 35,-13.5 19.2,0 37.3,11.1 37.3,33.4 0,18.7 -11.9,27.5 -25.1,39.4 -5.6,5.1 -16.5,14.7 -17.9,21 h 45 V 197 Z"
   clip-path="url(#SVGID_00000129888476219721827950000011053941370519129220_)"
   id="path2110" />
	<path
   style="fill:#a50034"
   d="M 269.3,42.5 H 14.2 C 6.3,42.5 0,36.2 0,28.3 V 14.2 C 0,6.3 6.3,0 14.2,0 h 255.1 c 7.8,0 14.2,6.3 14.2,14.2 v 14.2 c 0,7.8 -6.4,14.1 -14.2,14.1 m 14.2,226.8 v -14.2 c 0,-7.8 -6.3,-14.2 -14.2,-14.2 H 14.2 C 6.4,240.9 0,247.2 0,255.1 v 14.2 c 0,7.8 6.3,14.2 14.2,14.2 h 255.1 c 7.8,0 14.2,-6.4 14.2,-14.2"
   clip-path="url(#SVGID_00000129888476219721827950000011053941370519129220_)"
   id="path2112" />
</g></g>
</svg>
