<?xml version="1.0" encoding="UTF-8" standalone="no"?>
<!-- Generator: Adobe Illustrator 26.3.1, SVG Export Plug-In . SVG Version: 6.00 Build 0)  -->

<svg
   version="1.1"
   id="Layer_1"
   x="0px"
   y="0px"
   viewBox="0 0 283.5 283.5"
   style="enable-background:new 0 0 283.5 283.5;"
   xml:space="preserve"
   sodipodi:docname="tram_T3a_couleur_RVB.svg"
   inkscape:version="1.2.2 (b0a8486541, 2022-12-01)"
   xmlns:inkscape="http://www.inkscape.org/namespaces/inkscape"
   xmlns:sodipodi="http://sodipodi.sourceforge.net/DTD/sodipodi-0.dtd"
   xmlns:xlink="http://www.w3.org/1999/xlink"
   xmlns="http://www.w3.org/2000/svg"
   xmlns:svg="http://www.w3.org/2000/svg"><defs
   id="defs19243" /><sodipodi:namedview
   id="namedview19241"
   pagecolor="#505050"
   bordercolor="#eeeeee"
   borderopacity="1"
   inkscape:showpageshadow="0"
   inkscape:pageopacity="0"
   inkscape:pagecheckerboard="0"
   inkscape:deskcolor="#505050"
   showgrid="false"
   inkscape:zoom="2.9417989"
   inkscape:cx="104.01799"
   inkscape:cy="141.75"
   inkscape:window-width="1920"
   inkscape:window-height="1008"
   inkscape:window-x="0"
   inkscape:window-y="0"
   inkscape:window-maximized="1"
   inkscape:current-layer="Layer_1" />
<style
   type="text/css"
   id="style19226">
	.st0{clip-path:url(#SVGID_00000163768187711672257180000008667317082056967563_);}
	.st1{clip-path:url(#SVGID_00000163768187711672257180000008667317082056967563_);fill:#FF5A00;}
</style>
<g
   id="g23309"><rect
     style="fill:#ffffff;fill-opacity:1;stroke-width:4.5568"
     id="rect346"
     width="283.5"
     height="235.46899"
     x="0"
     y="24.015503"
     ry="0" /><g
     id="g19238">
	<defs
   id="defs19229">
		<rect
   id="SVGID_1_"
   width="283.5"
   height="283.5"
   x="0"
   y="0" />
	</defs>
	<clipPath
   id="SVGID_00000131350927939289745970000003203673322947402127_">
		<use
   xlink:href="#SVGID_1_"
   style="overflow:visible"
   id="use19231" />
	</clipPath>
	<path
   d="m 156.8,199.7 c -15.6,0 -24.3,-3.9 -31.6,-8.2 l 8.5,-16.9 c 4.6,3.2 12.2,7.1 21.5,7.1 12.7,0 20.6,-7.4 20.6,-16.7 0,-12.5 -9.6,-16.9 -20.7,-16.9 H 143.8 V 130 h 11.4 c 10.7,0 17.3,-5.6 17.3,-13.9 0,-7 -5.3,-13.3 -16.7,-13.3 -10.1,0 -16.7,4.8 -20.3,7.9 l -7.9,-16.1 c 9.3,-6.2 19.3,-9.7 33.1,-9.7 22.3,0 35,13.3 35,27.8 0,11.3 -6,20.3 -17.6,24.6 v 0.3 c 12.1,2.3 21.2,11.6 21.2,26.9 0.1,19.3 -17.1,35.2 -42.5,35.2 m 101.8,-24.1 c -5.8,0 -8.7,-3.6 -9.7,-8.5 -5.1,6.1 -9.9,9.1 -18.4,9.1 -11,0 -18.4,-7.9 -18.4,-18.5 0,-16.9 17.7,-20.2 31.5,-20.2 2.6,0 4.1,-0.1 4.1,-2.2 v -4.1 c 0,-4.4 -2.8,-8.6 -11.4,-8.6 -7.2,0 -12.7,3.4 -15.4,5.7 l -5.7,-11.7 c 6.9,-4.4 14.5,-6.4 25.2,-6.4 8.7,0 22.9,3.1 22.9,21.1 V 160 c 0,2.2 0.2,4.1 2.2,4.1 0.7,0 2,-0.4 2.7,-0.6 l 0.9,10.6 c -2.6,0.6 -6.7,1.5 -10.5,1.5 m -11.1,-27.9 c -1.8,-0.1 -3.5,-0.1 -4.9,-0.1 -5.7,0 -14.3,1.4 -14.3,8.9 0,4.5 3.3,7.8 7.8,7.8 3.6,0 6.6,-1.2 8.7,-3.4 1.9,-2 2.7,-4.3 2.7,-7.3 z M 69.9,107.5 v 89.6 H 45.8 V 107.5 H 12.2 V 87.9 h 91.3 v 19.6 z"
   clip-path="url(#SVGID_00000131350927939289745970000003203673322947402127_)"
   id="path19234" />
	<path
   style="fill:#ff5a00"
   d="M 269.3,42.5 H 14.2 C 6.3,42.5 0,36.2 0,28.3 V 14.2 C 0,6.3 6.3,0 14.2,0 h 255.1 c 7.8,0 14.2,6.3 14.2,14.2 v 14.2 c 0,7.8 -6.4,14.1 -14.2,14.1 m 14.2,226.8 v -14.2 c 0,-7.8 -6.3,-14.2 -14.2,-14.2 H 14.2 C 6.4,240.9 0,247.2 0,255.1 v 14.2 c 0,7.8 6.3,14.2 14.2,14.2 h 255.1 c 7.8,0 14.2,-6.4 14.2,-14.2"
   clip-path="url(#SVGID_00000131350927939289745970000003203673322947402127_)"
   id="path19236" />
</g></g>
</svg>
