<?xml version="1.0" encoding="UTF-8" standalone="no"?>
<!-- Generator: Adobe Illustrator 26.3.1, SVG Export Plug-In . SVG Version: 6.00 Build 0)  -->

<svg
   version="1.1"
   id="Layer_1"
   x="0px"
   y="0px"
   viewBox="0 0 283.5 283.5"
   style="enable-background:new 0 0 283.5 283.5;"
   xml:space="preserve"
   sodipodi:docname="tram_T13_couleur_RVB.svg"
   inkscape:version="1.2.2 (b0a8486541, 2022-12-01)"
   xmlns:inkscape="http://www.inkscape.org/namespaces/inkscape"
   xmlns:sodipodi="http://sodipodi.sourceforge.net/DTD/sodipodi-0.dtd"
   xmlns:xlink="http://www.w3.org/1999/xlink"
   xmlns="http://www.w3.org/2000/svg"
   xmlns:svg="http://www.w3.org/2000/svg"><defs
   id="defs2255" /><sodipodi:namedview
   id="namedview2253"
   pagecolor="#505050"
   bordercolor="#eeeeee"
   borderopacity="1"
   inkscape:showpageshadow="0"
   inkscape:pageopacity="0"
   inkscape:pagecheckerboard="0"
   inkscape:deskcolor="#505050"
   showgrid="false"
   inkscape:zoom="2.9417989"
   inkscape:cx="106.39748"
   inkscape:cy="141.75"
   inkscape:window-width="1920"
   inkscape:window-height="1008"
   inkscape:window-x="0"
   inkscape:window-y="0"
   inkscape:window-maximized="1"
   inkscape:current-layer="Layer_1" />
<style
   type="text/css"
   id="style2238">
	.st0{clip-path:url(#SVGID_00000097480364729866419580000014661454532146249117_);}
	.st1{clip-path:url(#SVGID_00000097480364729866419580000014661454532146249117_);fill:#6E491E;}
</style>
<g
   id="g4107"><rect
     style="fill:#ffffff;fill-opacity:1;stroke-width:4.5568"
     id="rect346"
     width="283.5"
     height="235.46899"
     x="0"
     y="24.246258"
     ry="0" /><g
     id="g2250">
	<defs
   id="defs2241">
		<rect
   id="SVGID_1_"
   width="283.5"
   height="283.5"
   x="0"
   y="0" />
	</defs>
	<clipPath
   id="SVGID_00000076575012964202097770000007851824799138045861_">
		<use
   xlink:href="#SVGID_1_"
   style="overflow:visible"
   id="use2243" />
	</clipPath>
	<path
   d="M 70.3,107.5 V 197 H 46.2 V 107.4 H 12.6 V 87.8 h 91.3 v 19.6 H 70.3 Z m 88,89.5 v -85.8 c -6.6,5.3 -17.2,10.4 -24.4,13.6 l -7.4,-16.7 c 11.4,-4.8 25.2,-12.1 36,-20.3 h 19 V 197 Z m 70,2.6 c -15.6,0 -24.3,-3.9 -31.6,-8.2 l 8.5,-16.9 c 4.6,3.2 12.2,7.1 21.5,7.1 12.7,0 20.6,-7.4 20.6,-16.7 0,-12.5 -9.6,-16.9 -20.7,-16.9 h -11.3 v -18 h 11.4 c 10.7,0 17.3,-5.6 17.3,-13.9 0,-7 -5.3,-13.3 -16.7,-13.3 -10.1,0 -16.7,4.8 -20.3,7.9 l -7.9,-16.1 c 9.3,-6.2 19.3,-9.7 33.1,-9.7 22.3,0 35,13.3 35,27.8 0,11.3 -6,20.3 -17.6,24.6 v 0.3 c 12.1,2.3 21.2,11.6 21.2,26.9 0.1,19.2 -17.1,35.1 -42.5,35.1"
   clip-path="url(#SVGID_00000076575012964202097770000007851824799138045861_)"
   id="path2246" />
	<path
   style="fill:#6e491e"
   d="M 269.3,42.5 H 14.2 C 6.3,42.5 0,36.2 0,28.3 V 14.2 C 0,6.3 6.3,0 14.2,0 h 255.1 c 7.8,0 14.2,6.3 14.2,14.2 v 14.2 c 0,7.8 -6.4,14.1 -14.2,14.1 m 14.2,226.8 v -14.2 c 0,-7.8 -6.3,-14.2 -14.2,-14.2 H 14.2 C 6.4,240.9 0,247.2 0,255.1 v 14.2 c 0,7.8 6.3,14.2 14.2,14.2 h 255.1 c 7.8,0 14.2,-6.4 14.2,-14.2"
   clip-path="url(#SVGID_00000076575012964202097770000007851824799138045861_)"
   id="path2248" />
</g></g>
</svg>
