<?xml version="1.0" encoding="UTF-8" standalone="no"?>
<!-- Generator: Adobe Illustrator 26.3.1, SVG Export Plug-In . SVG Version: 6.00 Build 0)  -->

<svg
   version="1.1"
   id="Layer_1"
   x="0px"
   y="0px"
   viewBox="0 0 283.5 283.5"
   style="enable-background:new 0 0 283.5 283.5;"
   xml:space="preserve"
   sodipodi:docname="tram_T5_couleur_RVB.svg"
   inkscape:version="1.2.2 (b0a8486541, 2022-12-01)"
   xmlns:inkscape="http://www.inkscape.org/namespaces/inkscape"
   xmlns:sodipodi="http://sodipodi.sourceforge.net/DTD/sodipodi-0.dtd"
   xmlns:xlink="http://www.w3.org/1999/xlink"
   xmlns="http://www.w3.org/2000/svg"
   xmlns:svg="http://www.w3.org/2000/svg"><defs
   id="defs19782" /><sodipodi:namedview
   id="namedview19780"
   pagecolor="#505050"
   bordercolor="#eeeeee"
   borderopacity="1"
   inkscape:showpageshadow="0"
   inkscape:pageopacity="0"
   inkscape:pagecheckerboard="0"
   inkscape:deskcolor="#505050"
   showgrid="false"
   inkscape:zoom="1.1862705"
   inkscape:cx="192.199"
   inkscape:cy="45.520816"
   inkscape:window-width="1920"
   inkscape:window-height="1008"
   inkscape:window-x="0"
   inkscape:window-y="0"
   inkscape:window-maximized="1"
   inkscape:current-layer="Layer_1" />
<style
   type="text/css"
   id="style19765">
	.st0{clip-path:url(#SVGID_00000025404496065702432990000006626170728600441738_);}
	.st1{clip-path:url(#SVGID_00000025404496065702432990000006626170728600441738_);fill:#640082;}
</style>
<g
   id="g25077"><rect
     style="fill:#ffffff;fill-opacity:1;stroke-width:4.5568"
     id="rect346"
     width="283.5"
     height="235.46899"
     x="0"
     y="24.015503"
     ry="0" /><g
     id="g19777">
	<defs
   id="defs19768">
		<rect
   id="SVGID_1_"
   width="283.5"
   height="283.5"
   x="0"
   y="0" />
	</defs>
	<clipPath
   id="SVGID_00000130629549220261289460000010813274376726921864_">
		<use
   xlink:href="#SVGID_1_"
   style="overflow:visible"
   id="use19770" />
	</clipPath>
	<path
   d="M 105.9,107.4 V 197 H 81.7 V 107.4 H 48.2 V 87.8 h 91.3 v 19.6 z m 87.9,92.2 c -12.7,0 -22.4,-2.8 -30.8,-7.9 l 8.8,-17 c 6,4.2 12.2,7 20.7,7 8.5,0 19.2,-5.1 19.2,-17.9 0,-7.9 -5.3,-18.7 -25.4,-19 -6.2,0 -13.5,-0.2 -17,-0.2 l 4.3,-56.8 H 231 V 106 h -39.3 l -1.6,20.7 c 0.6,0 2,0.2 3.1,0.2 29.8,1.4 41.9,18.3 41.9,34.6 0.2,20.9 -16.4,38.1 -41.3,38.1"
   clip-path="url(#SVGID_00000130629549220261289460000010813274376726921864_)"
   id="path19773" />
	<path
   style="fill:#640082"
   d="M 269.3,42.5 H 14.2 C 6.3,42.5 0,36.2 0,28.3 V 14.2 C 0,6.3 6.3,0 14.2,0 h 255.1 c 7.8,0 14.2,6.3 14.2,14.2 v 14.2 c 0,7.8 -6.4,14.1 -14.2,14.1 m 14.2,226.8 v -14.2 c 0,-7.8 -6.3,-14.2 -14.2,-14.2 H 14.2 C 6.4,240.9 0,247.2 0,255.1 v 14.2 c 0,7.8 6.3,14.2 14.2,14.2 h 255.1 c 7.8,0 14.2,-6.4 14.2,-14.2"
   clip-path="url(#SVGID_00000130629549220261289460000010813274376726921864_)"
   id="path19775" />
</g></g>
</svg>
