<?xml version="1.0" encoding="UTF-8" standalone="no"?>
<svg
   width="250px"
   height="250px"
   viewBox="0 0 283.46 283.46"
   version="1.1"
   id="svg70682"
   sodipodi:docname="tram_T10_couleur_RVB (1).svg"
   inkscape:version="1.2.2 (b0a8486541, 2022-12-01)"
   xmlns:inkscape="http://www.inkscape.org/namespaces/inkscape"
   xmlns:sodipodi="http://sodipodi.sourceforge.net/DTD/sodipodi-0.dtd"
   xmlns="http://www.w3.org/2000/svg"
   xmlns:svg="http://www.w3.org/2000/svg">
  <defs
     id="defs70686" />
  <sodipodi:namedview
     id="namedview70684"
     pagecolor="#505050"
     bordercolor="#eeeeee"
     borderopacity="1"
     inkscape:showpageshadow="0"
     inkscape:pageopacity="0"
     inkscape:pagecheckerboard="0"
     inkscape:deskcolor="#505050"
     showgrid="false"
     inkscape:zoom="1.9757791"
     inkscape:cx="70.351993"
     inkscape:cy="197.39048"
     inkscape:window-width="960"
     inkscape:window-height="1008"
     inkscape:window-x="960"
     inkscape:window-y="0"
     inkscape:window-maximized="0"
     inkscape:current-layer="svg70682" />
  <title
     id="title70672">Paris transit icons - Tram T10</title>
  <g
     id="g81745">
    <path
       fill="#FFF"
       d="M0,28.35h283.46v226.76H0z"
       id="path70674" />
    <rect
       fill="#9F9825"
       width="283.46"
       height="42.52"
       rx="14.17"
       id="rect70676"
       style="fill:#6e6e00;fill-opacity:1" />
    <rect
       fill="#9F9825"
       width="283.46"
       height="42.52"
       rx="14.17"
       y="240.94"
       id="rect70678"
       style="fill:#6e6e00;fill-opacity:1" />
    <path
       fill="#25303B"
       d="M67.45,107.45V197H43.32V107.45H9.75V87.81H101v19.64ZM155.42,197V111.16c-6.65,5.26-17.17,10.36-24.44,13.61l-7.43-16.71c11.45-4.79,25.22-12,36-20.25h19V197ZM233.65,199.94c-33,0-39.44-32.48-39.44-57.69s7.11-57.69,40.06-57.69,39.44,32.48,39.44,57.69S266.59,199.94,233.65,199.94Zm.31-97c-15.78,0-16.24,28.15-16.24,39.29s.77,39.44,16.24,39.44,16.09-28.61,16.09-39.44C250.05,130.8,249.58,103,234,103Z"
       id="path70680"
       style="fill:#000000;fill-opacity:1" />
  </g>
</svg>
