<?xml version="1.0" encoding="UTF-8" standalone="no"?>
<svg
   width="250px"
   height="250px"
   viewBox="0 0 283.46 283.46"
   version="1.1"
   id="svg51898"
   sodipodi:docname="tram_T5_couleur_RVB (1).svg"
   inkscape:version="1.2.2 (b0a8486541, 2022-12-01)"
   xmlns:inkscape="http://www.inkscape.org/namespaces/inkscape"
   xmlns:sodipodi="http://sodipodi.sourceforge.net/DTD/sodipodi-0.dtd"
   xmlns="http://www.w3.org/2000/svg"
   xmlns:svg="http://www.w3.org/2000/svg">
  <defs
     id="defs51902" />
  <sodipodi:namedview
     id="namedview51900"
     pagecolor="#505050"
     bordercolor="#eeeeee"
     borderopacity="1"
     inkscape:showpageshadow="0"
     inkscape:pageopacity="0"
     inkscape:pagecheckerboard="0"
     inkscape:deskcolor="#505050"
     showgrid="false"
     inkscape:zoom="1.3783185"
     inkscape:cx="156.34993"
     inkscape:cy="118.26004"
     inkscape:window-width="960"
     inkscape:window-height="1008"
     inkscape:window-x="960"
     inkscape:window-y="0"
     inkscape:window-maximized="0"
     inkscape:current-layer="svg51898" />
  <title
     id="title51888">Paris transit icons - Tram T5</title>
  <g
     id="g58039">
    <path
       fill="#FFF"
       d="M0,28.35h283.46v226.76H0z"
       id="path51890" />
    <rect
       fill="#662483"
       width="283.46"
       height="42.52"
       rx="14.17"
       id="rect51892"
       style="fill:#640082;fill-opacity:1" />
    <rect
       fill="#662483"
       width="283.46"
       height="42.52"
       rx="14.17"
       y="240.94"
       id="rect51894"
       style="fill:#640082;fill-opacity:1" />
    <path
       fill="#25303B"
       d="M105.87,107.41V197H81.74V107.41H48.17V87.77h91.26v19.64zM193.84,199.59c-12.69,0-22.42-2.78-30.78-7.88l8.82-17c6,4.18,12.22,7,20.73,7s19.17-5.1,19.17-17.94c0-7.89-5.25-18.72-25.36-19-6.19,0-13.46-.15-17-.15l4.33-56.76h57.39V106H191.83l-1.55,20.72c.62,0,2,.16,3.1.16,29.85,1.39,41.91,18.25,41.91,34.64C235.29,182.42,218.74,199.59,193.84,199.59z"
       id="path51896"
       style="fill:#000000;fill-opacity:1" />
  </g>
</svg>
