<?xml version="1.0" encoding="UTF-8" standalone="no"?>
<svg
   width="250px"
   height="250px"
   viewBox="0 0 283.46 283.46"
   version="1.1"
   id="svg38961"
   sodipodi:docname="tram_T2_couleur_RVB (1).svg"
   inkscape:version="1.2.2 (b0a8486541, 2022-12-01)"
   xmlns:inkscape="http://www.inkscape.org/namespaces/inkscape"
   xmlns:sodipodi="http://sodipodi.sourceforge.net/DTD/sodipodi-0.dtd"
   xmlns="http://www.w3.org/2000/svg"
   xmlns:svg="http://www.w3.org/2000/svg">
  <defs
     id="defs38965" />
  <sodipodi:namedview
     id="namedview38963"
     pagecolor="#505050"
     bordercolor="#eeeeee"
     borderopacity="1"
     inkscape:showpageshadow="0"
     inkscape:pageopacity="0"
     inkscape:pagecheckerboard="0"
     inkscape:deskcolor="#505050"
     showgrid="false"
     inkscape:zoom="2.2893441"
     inkscape:cx="116.19048"
     inkscape:cy="142.83567"
     inkscape:window-width="1085"
     inkscape:window-height="1008"
     inkscape:window-x="835"
     inkscape:window-y="0"
     inkscape:window-maximized="0"
     inkscape:current-layer="svg38961" />
  <title
     id="title38951">Paris transit icons - Tram T2</title>
  <g
     id="g39088">
    <path
       fill="#FFF"
       d="M0,28.35h283.46v226.76H0z"
       id="path38953" />
    <rect
       fill="#C04191"
       width="283.46"
       height="42.52"
       rx="14.17"
       id="rect38955"
       style="fill:#a0006e;fill-opacity:1" />
    <rect
       fill="#C04191"
       width="283.46"
       height="42.52"
       rx="14.17"
       y="240.94"
       id="rect38957"
       style="fill:#a0006e;fill-opacity:1" />
    <path
       fill="#25303B"
       d="M106,107.41V197H81.82V107.41H48.25V87.77H139.5v19.64zM164.38,197V182.58c2.78-12.68,15.31-24.28,29.85-37,7.27-6.34,15.15-14.24,15.15-24.76,0-9.42-6.19-17.32-18.09-17.32-9.59,0-16.24,7-18.88,9.9L161,98.29c10.52-9.13,20.26-13.46,35-13.46,19.18,0,37.27,11.14,37.27,33.41,0,18.71-11.9,27.53-25,39.44-5.57,5.1-16.55,14.69-17.94,21h45V197z"
       id="path38959"
       style="fill:#000000;fill-opacity:1" />
  </g>
</svg>
