<?xml version="1.0" encoding="UTF-8" standalone="no"?>
<svg
   width="250px"
   height="250px"
   viewBox="0 0 283.46 283.46"
   version="1.1"
   id="svg71471"
   sodipodi:docname="tram_T13_couleur_RVB (1).svg"
   inkscape:version="1.2.2 (b0a8486541, 2022-12-01)"
   xmlns:inkscape="http://www.inkscape.org/namespaces/inkscape"
   xmlns:sodipodi="http://sodipodi.sourceforge.net/DTD/sodipodi-0.dtd"
   xmlns="http://www.w3.org/2000/svg"
   xmlns:svg="http://www.w3.org/2000/svg">
  <defs
     id="defs71475" />
  <sodipodi:namedview
     id="namedview71473"
     pagecolor="#505050"
     bordercolor="#eeeeee"
     borderopacity="1"
     inkscape:showpageshadow="0"
     inkscape:pageopacity="0"
     inkscape:pagecheckerboard="0"
     inkscape:deskcolor="#505050"
     showgrid="false"
     inkscape:zoom="1.0333139"
     inkscape:cx="92.421094"
     inkscape:cy="130.64762"
     inkscape:window-width="960"
     inkscape:window-height="1008"
     inkscape:window-x="960"
     inkscape:window-y="0"
     inkscape:window-maximized="0"
     inkscape:current-layer="svg71471" />
  <title
     id="title71461">Paris transit icons - Tram T13 Express</title>
  <g
     id="g74761">
    <path
       fill="#FFF"
       d="M0,28.35h283.46v226.76H0z"
       id="path71463" />
    <rect
       fill="#8D5E2A"
       width="283.46"
       height="42.52"
       rx="14.17"
       id="rect71465"
       style="fill:#6e491e;fill-opacity:1" />
    <rect
       fill="#8D5E2A"
       width="283.46"
       height="42.52"
       rx="14.17"
       y="240.94"
       id="rect71467"
       style="fill:#6e491e;fill-opacity:1" />
    <path
       fill="#25303B"
       d="M70.31,107.46V197H46.18V107.46H12.61V87.81h91.26v19.65ZM158.28,197V111.17c-6.65,5.25-17.17,10.36-24.44,13.61l-7.42-16.71c11.44-4.79,25.21-12.06,36-20.26h19V197ZM228.32,199.64c-15.62,0-24.28-3.87-31.55-8.2l8.5-16.86a38.06,38.06,0,0,0,21.5,7.11c12.69,0,20.57-7.42,20.57-16.7,0-12.52-9.58-16.85-20.72-16.85H215.33V130h11.44c10.67,0,17.32-5.56,17.32-13.92,0-7-5.25-13.3-16.7-13.3a30.22,30.22,0,0,0-20.26,7.9l-7.89-16.09c9.28-6.19,19.34-9.75,33.1-9.75,22.27,0,35,13.3,35,27.84,0,11.3-6,20.26-17.63,24.59v.32c12.07,2.31,21.19,11.6,21.19,26.9C270.85,183.71,253.68,199.64,228.32,199.64Z"
       id="path71469"
       style="fill:#000000;fill-opacity:1" />
  </g>
</svg>
