<?xml version="1.0" encoding="UTF-8" standalone="no"?>
<svg
   width="250px"
   height="250px"
   viewBox="0 0 283.46 283.46"
   version="1.1"
   id="svg43870"
   sodipodi:docname="tram_T3a_couleur_RVB (1).svg"
   inkscape:version="1.2.2 (b0a8486541, 2022-12-01)"
   xmlns:inkscape="http://www.inkscape.org/namespaces/inkscape"
   xmlns:sodipodi="http://sodipodi.sourceforge.net/DTD/sodipodi-0.dtd"
   xmlns="http://www.w3.org/2000/svg"
   xmlns:svg="http://www.w3.org/2000/svg">
  <defs
     id="defs43874" />
  <sodipodi:namedview
     id="namedview43872"
     pagecolor="#505050"
     bordercolor="#eeeeee"
     borderopacity="1"
     inkscape:showpageshadow="0"
     inkscape:pageopacity="0"
     inkscape:pagecheckerboard="0"
     inkscape:deskcolor="#505050"
     showgrid="false"
     inkscape:zoom="3.336"
     inkscape:cx="93.82494"
     inkscape:cy="125"
     inkscape:window-width="1920"
     inkscape:window-height="1008"
     inkscape:window-x="0"
     inkscape:window-y="0"
     inkscape:window-maximized="1"
     inkscape:current-layer="svg43870" />
  <title
     id="title43860">Paris transit icons - Tram T3a</title>
  <g
     id="g45812">
    <path
       fill="#FFF"
       d="M0,28.35h283.46v226.76H0z"
       id="path43862" />
    <rect
       fill="#F28E42"
       width="283.46"
       height="42.52"
       rx="14.17"
       id="rect43864"
       style="fill:#ff5a00;fill-opacity:1" />
    <rect
       fill="#F28E42"
       width="283.46"
       height="42.52"
       rx="14.17"
       y="240.94"
       id="rect43866"
       style="fill:#ff5a00;fill-opacity:1" />
    <path
       fill="#25303B"
       d="M69.93,107.54v89.55H45.8V107.54H12.23V87.89h91.25v19.65zM156.82,199.73c-15.63,0-24.29-3.86-31.56-8.19l8.51-16.87a38,38,0,0,0,21.5,7.12c12.68,0,20.57-7.43,20.57-16.71,0-12.53-9.59-16.86-20.72-16.86h-11.3v-18.1h11.45c10.67,0,17.32-5.57,17.32-13.92,0-7-5.25-13.3-16.7-13.3a30.18,30.18,0,0,0-20.26,7.89L127.74,94.7C137,88.51,147.07,85,160.84,85c22.27,0,35,13.3,35,27.85,0,11.29-6,20.26-17.64,24.59v.31c12.07,2.32,21.19,11.6,21.19,26.92C199.35,183.8,182.19,199.73,156.82,199.73zM258.6,175.65c-5.83,0-8.74-3.61-9.68-8.51-5.12,6.06-9.91,9.09-18.42,9.09-11,0-18.42-7.93-18.42-18.53,0-16.91,17.72-20.17,31.48-20.17,2.56,0,4.08-.12,4.08-2.22v-4.08c0-4.42-2.79-8.62-11.42-8.62a24,24,0,0,0-15.4,5.71l-5.71-11.66c6.88-4.43,14.46-6.41,25.19-6.41,8.74,0,22.85,3.14,22.85,21.1V160c0,2.21.23,4.08,2.21,4.08a11.09,11.09,0,0,0,2.68-.58l.94,10.61A47,47,0,0,1,258.6,175.65Zm-11.07-28c-1.76-.11-3.5-.11-4.9-.11-5.71,0-14.35,1.4-14.35,8.86a7.54,7.54,0,0,0,7.82,7.81,11.7,11.7,0,0,0,8.75-3.39,10,10,0,0,0,2.68-7.34z"
       id="path43868"
       style="fill:#000000;fill-opacity:1" />
  </g>
</svg>
