<?xml version="1.0" encoding="UTF-8" standalone="no"?>
<!-- Generator: Adobe Illustrator 26.3.1, SVG Export Plug-In . SVG Version: 6.00 Build 0)  -->

<svg
   version="1.1"
   id="Layer_1"
   x="0px"
   y="0px"
   viewBox="0 0 283.5 283.5"
   style="enable-background:new 0 0 283.5 283.5;"
   xml:space="preserve"
   sodipodi:docname="tram_T1c_couleur_RVB.svg"
   inkscape:version="1.2.2 (b0a8486541, 2022-12-01)"
   xmlns:inkscape="http://www.inkscape.org/namespaces/inkscape"
   xmlns:sodipodi="http://sodipodi.sourceforge.net/DTD/sodipodi-0.dtd"
   xmlns:xlink="http://www.w3.org/1999/xlink"
   xmlns="http://www.w3.org/2000/svg"
   xmlns:svg="http://www.w3.org/2000/svg"><defs
   id="defs49107">
	<defs
   id="defs49093">
		<rect
   id="SVGID_1_"
   width="283.5"
   height="283.5" />
	</defs>
	<clipPath
   id="SVGID_00000131350927939289745970000003203673322947402127_">
		<use
   xlink:href="#SVGID_1_"
   style="overflow:visible;"
   id="use49095" />
	</clipPath>
	
	
<clipPath
   id="SVGID_00000085972433664928841230000013839026464737200560_">
		<use
   xlink:href="#SVGID_1_"
   style="overflow:visible;"
   id="use19100" />
	</clipPath><clipPath
   id="SVGID_00000131350927939289745970000003203673322947402127_-7">
		<use
   xlink:href="#SVGID_1_"
   style="overflow:visible;"
   id="use24827" />
	</clipPath></defs><sodipodi:namedview
   id="namedview49105"
   pagecolor="#505050"
   bordercolor="#eeeeee"
   borderopacity="1"
   inkscape:showpageshadow="0"
   inkscape:pageopacity="0"
   inkscape:pagecheckerboard="0"
   inkscape:deskcolor="#d1d1d1"
   showgrid="false"
   inkscape:zoom="2.2478752"
   inkscape:cx="105.4329"
   inkscape:cy="140.13233"
   inkscape:window-width="1920"
   inkscape:window-height="1008"
   inkscape:window-x="0"
   inkscape:window-y="0"
   inkscape:window-maximized="1"
   inkscape:current-layer="Layer_1" />
<style
   type="text/css"
   id="style49090">
	.st0{clip-path:url(#SVGID_00000163768187711672257180000008667317082056967563_);}
	.st1{clip-path:url(#SVGID_00000163768187711672257180000008667317082056967563_);fill:#FF5A00;}
</style>

<g
   id="g8750"><rect
     style="fill:#ffffff;fill-opacity:1;stroke-width:4.5568"
     id="rect346"
     width="283.5"
     height="235.46899"
     x="0"
     y="24.015503"
     ry="0" /><g
     id="g28116"><path
       style="fill:#6e491e;fill-opacity:1"
       d="M 269.3,42.5 H 14.2 C 6.3,42.5 0,36.2 0,28.3 V 14.2 C 0,6.3 6.3,0 14.2,0 h 255.1 c 7.8,0 14.2,6.3 14.2,14.2 v 14.2 c 0,7.8 -6.4,14.1 -14.2,14.1 m 14.2,226.8 v -14.2 c 0,-7.8 -6.3,-14.2 -14.2,-14.2 H 14.2 C 6.4,240.9 0,247.2 0,255.1 v 14.2 c 0,7.8 6.3,14.2 14.2,14.2 h 255.1 c 7.8,0 14.2,-6.4 14.2,-14.2"
       clip-path="url(#SVGID_00000131350927939289745970000003203673322947402127_)"
       id="path49100" /><path
       d="m 166.28766,197.1 v -85.8 c -6.6,5.3 -17.2,10.4 -24.4,13.6 l -7.4,-16.7 c 11.4,-4.8 25.2,-12.1 36,-20.3 h 19 v 109.2 z"
       id="path49485" /><g
       id="g27817"><path
         d="m 69.9,107.5 v 89.6 H 45.8 V 107.5 H 12.2 V 87.9 h 91.3 v 19.6 z"
         clip-path="url(#SVGID_00000131350927939289745970000003203673322947402127_)"
         id="path49408"
         sodipodi:nodetypes="ccccccccc" /><g
         aria-label="c"
         id="text23139"
         style="font-weight:bold;font-size:116px;font-family:'Parisine Std';-inkscape-font-specification:'Parisine Std Bold';stroke-width:9.44882"><path
           d="m 260.72215,171.26433 -4.64,-12.064 c -2.784,1.74 -7.54,3.712 -12.18,3.712 -7.308,0 -14.964,-7.076 -14.964,-19.024 0,-10.904 4.64,-19.604 14.036,-19.604 5.336,0 9.976,2.784 12.064,4.176 l 5.8,-13.572 c -4.06,-2.204 -10.556,-4.408 -18.908,-4.408 -20.996,0 -29.928,16.82 -29.928,33.756 0,18.096 10.904,32.132 29.928,32.132 7.54,0 15.544,-2.668 18.792,-5.104 z"
           id="path27811" /></g></g></g></g></svg>
