<?xml version="1.0" encoding="UTF-8" standalone="no"?>
<!-- Generator: Adobe Illustrator 26.3.1, SVG Export Plug-In . SVG Version: 6.00 Build 0)  -->

<svg
   version="1.1"
   id="Layer_1"
   x="0px"
   y="0px"
   viewBox="0 0 283.5 283.5"
   style="enable-background:new 0 0 283.5 283.5;"
   xml:space="preserve"
   sodipodi:docname="tram_T7_couleur_RVB.svg"
   inkscape:version="1.2.2 (b0a8486541, 2022-12-01)"
   xmlns:inkscape="http://www.inkscape.org/namespaces/inkscape"
   xmlns:sodipodi="http://sodipodi.sourceforge.net/DTD/sodipodi-0.dtd"
   xmlns:xlink="http://www.w3.org/1999/xlink"
   xmlns="http://www.w3.org/2000/svg"
   xmlns:svg="http://www.w3.org/2000/svg"><defs
   id="defs20054" /><sodipodi:namedview
   id="namedview20052"
   pagecolor="#505050"
   bordercolor="#eeeeee"
   borderopacity="1"
   inkscape:showpageshadow="0"
   inkscape:pageopacity="0"
   inkscape:pagecheckerboard="0"
   inkscape:deskcolor="#505050"
   showgrid="false"
   inkscape:zoom="2.9417989"
   inkscape:cx="106.39748"
   inkscape:cy="141.75"
   inkscape:window-width="1920"
   inkscape:window-height="1008"
   inkscape:window-x="0"
   inkscape:window-y="0"
   inkscape:window-maximized="1"
   inkscape:current-layer="Layer_1" />
<style
   type="text/css"
   id="style20037">
	.st0{clip-path:url(#SVGID_00000088814427968601579530000015504940859561209520_);}
	.st1{clip-path:url(#SVGID_00000088814427968601579530000015504940859561209520_);fill:#6E491E;}
</style>
<g
   id="g26269"><rect
     style="fill:#ffffff;fill-opacity:1;stroke-width:4.5568"
     id="rect346"
     width="283.5"
     height="235.46899"
     x="0"
     y="24.015503"
     ry="0" /><g
     id="g20049">
	<defs
   id="defs20040">
		<rect
   id="SVGID_1_"
   width="283.5"
   height="283.5"
   x="0"
   y="0" />
	</defs>
	<clipPath
   id="SVGID_00000178917300958986754620000004070265057212445316_">
		<use
   xlink:href="#SVGID_1_"
   style="overflow:visible"
   id="use20042" />
	</clipPath>
	<path
   d="M 104.5,107.4 V 197 H 80.3 V 107.4 H 46.8 V 87.8 H 138 v 19.6 z m 93.7,89.6 h -24.9 c 0,-14.4 3.9,-23.7 13.4,-41.4 l 26.6,-49.5 H 160.2 V 87.8 h 76.4 v 17.8 c -23.9,41.6 -38.4,74.2 -38.4,91.4"
   clip-path="url(#SVGID_00000178917300958986754620000004070265057212445316_)"
   id="path20045" />
	<path
   style="fill:#6e491e"
   d="M 269.3,42.5 H 14.2 C 6.3,42.5 0,36.2 0,28.3 V 14.2 C 0,6.3 6.3,0 14.2,0 h 255.1 c 7.8,0 14.2,6.3 14.2,14.2 v 14.2 c 0,7.8 -6.4,14.1 -14.2,14.1 m 14.2,226.8 v -14.2 c 0,-7.8 -6.3,-14.2 -14.2,-14.2 H 14.2 C 6.4,240.9 0,247.2 0,255.1 v 14.2 c 0,7.8 6.3,14.2 14.2,14.2 h 255.1 c 7.8,0 14.2,-6.4 14.2,-14.2"
   clip-path="url(#SVGID_00000178917300958986754620000004070265057212445316_)"
   id="path20047" />
</g></g>
</svg>
