<?xml version="1.0" encoding="UTF-8" standalone="no"?>
<svg
   width="250px"
   height="250px"
   viewBox="0 0 283.46 283.46"
   version="1.1"
   id="svg70945"
   sodipodi:docname="tram_T11_couleur_RVB (1).svg"
   inkscape:version="1.2.2 (b0a8486541, 2022-12-01)"
   xmlns:inkscape="http://www.inkscape.org/namespaces/inkscape"
   xmlns:sodipodi="http://sodipodi.sourceforge.net/DTD/sodipodi-0.dtd"
   xmlns="http://www.w3.org/2000/svg"
   xmlns:svg="http://www.w3.org/2000/svg">
  <defs
     id="defs70949" />
  <sodipodi:namedview
     id="namedview70947"
     pagecolor="#505050"
     bordercolor="#eeeeee"
     borderopacity="1"
     inkscape:showpageshadow="0"
     inkscape:pageopacity="0"
     inkscape:pagecheckerboard="0"
     inkscape:deskcolor="#505050"
     showgrid="false"
     inkscape:zoom="1.4962278"
     inkscape:cx="88.890205"
     inkscape:cy="58.146224"
     inkscape:window-width="960"
     inkscape:window-height="1008"
     inkscape:window-x="960"
     inkscape:window-y="0"
     inkscape:window-maximized="0"
     inkscape:current-layer="svg70945" />
  <title
     id="title70935">Paris transit icons - Tram T11 Express</title>
  <g
     id="g79653">
    <path
       fill="#FFF"
       d="M0,28.35h283.46v226.76H0z"
       id="path70937" />
    <rect
       fill="#F28E42"
       width="283.46"
       height="42.52"
       rx="14.17"
       id="rect70939"
       style="fill:#ff5a00;fill-opacity:1" />
    <rect
       fill="#F28E42"
       width="283.46"
       height="42.52"
       rx="14.17"
       y="240.94"
       id="rect70941"
       style="fill:#ff5a00;fill-opacity:1" />
    <path
       fill="#25303B"
       d="M80.981,107.457v89.551h-24.13v-89.551h-33.567v-19.646h91.256v19.646zM168.952,197.008v-85.84c-6.65,5.256-17.17,10.361-24.441,13.61l-7.422-16.708c11.443-4.794,25.213-12.056,36.035-20.259h19.025v109.197H168.952zM236.982,197.008v-85.84c-6.649,5.256-17.17,10.361-24.44,13.61l-7.422-16.708c11.443-4.794,25.213-12.056,36.035-20.259h19.025v109.197H236.982z"
       id="path70943"
       style="fill:#000000;fill-opacity:1" />
  </g>
</svg>
