<?xml version="1.0" encoding="UTF-8" standalone="no"?>
<svg
   width="250px"
   height="250px"
   viewBox="0 0 283.46 283.46"
   version="1.1"
   id="svg71208"
   sodipodi:docname="tram_T12_couleur_RVB (1).svg"
   inkscape:version="1.2.2 (b0a8486541, 2022-12-01)"
   xmlns:inkscape="http://www.inkscape.org/namespaces/inkscape"
   xmlns:sodipodi="http://sodipodi.sourceforge.net/DTD/sodipodi-0.dtd"
   xmlns="http://www.w3.org/2000/svg"
   xmlns:svg="http://www.w3.org/2000/svg">
  <defs
     id="defs71212" />
  <sodipodi:namedview
     id="namedview71210"
     pagecolor="#505050"
     bordercolor="#eeeeee"
     borderopacity="1"
     inkscape:showpageshadow="0"
     inkscape:pageopacity="0"
     inkscape:pagecheckerboard="0"
     inkscape:deskcolor="#505050"
     showgrid="false"
     inkscape:zoom="1.287008"
     inkscape:cx="125.09635"
     inkscape:cy="128.98133"
     inkscape:window-width="960"
     inkscape:window-height="1008"
     inkscape:window-x="960"
     inkscape:window-y="0"
     inkscape:window-maximized="0"
     inkscape:current-layer="svg71208" />
  <title
     id="title71198">Paris transit icons - Tram T12 Express</title>
  <g
     id="g77567">
    <path
       fill="#FFF"
       d="M0,28.35h283.46v226.76H0z"
       id="path71200" />
    <rect
       fill="#B90845"
       width="283.46"
       height="42.52"
       rx="14.17"
       id="rect71202"
       style="fill:#a50034;fill-opacity:1" />
    <rect
       fill="#B90845"
       width="283.46"
       height="42.52"
       rx="14.17"
       y="240.94"
       id="rect71204"
       style="fill:#a50034;fill-opacity:1" />
    <path
       fill="#25303B"
       d="M70.39,107.46V197H46.26V107.46H12.69V87.81h91.25v19.65ZM158.36,197V111.17c-6.65,5.26-17.17,10.36-24.44,13.61l-7.43-16.71c11.45-4.79,25.22-12,36-20.26h19V197ZM199.94,197V182.63c2.78-12.69,15.31-24.28,29.85-37,7.27-6.34,15.15-14.23,15.15-24.75,0-9.43-6.19-17.32-18.09-17.32-9.59,0-16.24,7-18.88,9.9L196.53,98.33c10.52-9.12,20.26-13.46,35-13.46,19.18,0,37.27,11.15,37.27,33.41,0,18.72-11.9,27.53-25,39.45-5.57,5.1-16.55,14.69-17.94,21h45V197Z"
       id="path71206"
       style="fill:#000000;fill-opacity:1" />
  </g>
</svg>
