<?xml version="1.0" encoding="UTF-8" standalone="no"?>
<!-- Generator: Adobe Illustrator 26.3.1, SVG Export Plug-In . SVG Version: 6.00 Build 0)  -->

<svg
   version="1.1"
   id="Layer_1"
   x="0px"
   y="0px"
   viewBox="0 0 283.5 283.5"
   xml:space="preserve"
   sodipodi:docname="tram_T1b_couleur_RVB.svg"
   inkscape:version="1.2.2 (b0a8486541, 2022-12-01)"
   width="283.5"
   height="283.5"
   xmlns:inkscape="http://www.inkscape.org/namespaces/inkscape"
   xmlns:sodipodi="http://sodipodi.sourceforge.net/DTD/sodipodi-0.dtd"
   xmlns:xlink="http://www.w3.org/1999/xlink"
   xmlns="http://www.w3.org/2000/svg"
   xmlns:svg="http://www.w3.org/2000/svg"><defs
   id="defs49107">
	<defs
   id="defs49093">
		<rect
   id="SVGID_1_"
   width="283.5"
   height="283.5"
   x="0"
   y="0" />
	</defs>
	<clipPath
   id="SVGID_00000131350927939289745970000003203673322947402127_">
		<use
   xlink:href="#SVGID_1_"
   style="overflow:visible"
   id="use49095" />
	</clipPath>
	
	
<clipPath
   id="SVGID_00000085972433664928841230000013839026464737200560_">
		<use
   xlink:href="#SVGID_1_-5"
   style="overflow:visible"
   id="use19100" />
	</clipPath><clipPath
   id="clipPath19769">
		<use
   xlink:href="#SVGID_1_-5"
   style="overflow:visible"
   id="use19767" />
	</clipPath><rect
   id="SVGID_1_-5"
   width="283.5"
   height="283.5"
   x="0"
   y="0" />
	<defs
   id="defs19098">
		<rect
   id="rect19832"
   width="283.5"
   height="283.5"
   x="0"
   y="0" />
	</defs>
	<clipPath
   id="clipPath19777">
		<use
   xlink:href="#SVGID_1_-5"
   style="overflow:visible"
   id="use19775" />
	</clipPath>
	
	
</defs><sodipodi:namedview
   id="namedview49105"
   pagecolor="#505050"
   bordercolor="#eeeeee"
   borderopacity="1"
   inkscape:showpageshadow="0"
   inkscape:pageopacity="0"
   inkscape:pagecheckerboard="0"
   inkscape:deskcolor="#d1d1d1"
   showgrid="false"
   inkscape:zoom="2.3174133"
   inkscape:cx="143.6947"
   inkscape:cy="132.90681"
   inkscape:window-width="1920"
   inkscape:window-height="1008"
   inkscape:window-x="0"
   inkscape:window-y="0"
   inkscape:window-maximized="1"
   inkscape:current-layer="Layer_1" />
<style
   type="text/css"
   id="style49090">
	.st0{clip-path:url(#SVGID_00000163768187711672257180000008667317082056967563_);}
	.st1{clip-path:url(#SVGID_00000163768187711672257180000008667317082056967563_);fill:#FF5A00;}
</style>

<g
   id="g8896"><rect
     style="fill:#ffffff;fill-opacity:1;stroke-width:4.5568"
     id="rect346"
     width="283.5"
     height="235.46899"
     x="0"
     y="24.015503"
     ry="0" /><g
     id="g28313"><path
       d="m 243.3,176.5 c -4.7,0 -10.1,-1.9 -13.3,-4.8 v 2.8 H 214.1 V 88.2 h 16.4 v 32.2 c 4.2,-6.1 9,-10.1 16.9,-10.1 16.3,0 23.1,17.4 23.1,32.4 0.1,14 -7.2,33.8 -27.2,33.8 m -2.1,-52 c -3.3,0 -5.8,1.4 -7.6,3.1 -2.8,2.7 -3.1,4.4 -3.1,8 v 21.1 c 0,4.3 2.6,8.2 10,8.2 10.5,0 13.1,-11.3 13.1,-19.8 0,-8.4 -2,-20.6 -12.4,-20.6 m -171.3,-17 v 89.6 H 45.8 V 107.5 H 12.2 V 87.9 h 91.3 v 19.6 z"
       clip-path="url(#SVGID_00000085972433664928841230000013839026464737200560_)"
       id="path19103"
       sodipodi:nodetypes="cccccccsccccsssscccccccccc" /><path
       style="fill:#0055c8;fill-opacity:1"
       d="M 269.3,42.5 H 14.2 C 6.3,42.5 0,36.2 0,28.3 V 14.2 C 0,6.3 6.3,0 14.2,0 h 255.1 c 7.8,0 14.2,6.3 14.2,14.2 v 14.2 c 0,7.8 -6.4,14.1 -14.2,14.1 m 14.2,226.8 v -14.2 c 0,-7.8 -6.3,-14.2 -14.2,-14.2 H 14.2 C 6.4,240.9 0,247.2 0,255.1 v 14.2 c 0,7.8 6.3,14.2 14.2,14.2 h 255.1 c 7.8,0 14.2,-6.4 14.2,-14.2"
       clip-path="url(#SVGID_00000085972433664928841230000013839026464737200560_)"
       id="path19105" /><path
       d="m 166.28766,197.1 v -85.8 c -6.6,5.3 -17.2,10.4 -24.4,13.6 l -7.4,-16.7 c 11.4,-4.8 25.2,-12.1 36,-20.3 h 19 v 109.2 z"
       id="path49485" /></g></g></svg>
