<?xml version="1.0" encoding="UTF-8" standalone="no"?>
<svg
   width="250px"
   height="250px"
   viewBox="0 0 283.46 283.46"
   version="1.1"
   id="svg62616"
   sodipodi:docname="tram_T9_couleur_RVB (1).svg"
   inkscape:version="1.2.2 (b0a8486541, 2022-12-01)"
   xmlns:inkscape="http://www.inkscape.org/namespaces/inkscape"
   xmlns:sodipodi="http://sodipodi.sourceforge.net/DTD/sodipodi-0.dtd"
   xmlns="http://www.w3.org/2000/svg"
   xmlns:svg="http://www.w3.org/2000/svg">
  <defs
     id="defs62620" />
  <sodipodi:namedview
     id="namedview62618"
     pagecolor="#505050"
     bordercolor="#eeeeee"
     borderopacity="1"
     inkscape:showpageshadow="0"
     inkscape:pageopacity="0"
     inkscape:pagecheckerboard="0"
     inkscape:deskcolor="#505050"
     showgrid="false"
     inkscape:zoom="1.3075882"
     inkscape:cx="57.739892"
     inkscape:cy="111.65595"
     inkscape:window-width="960"
     inkscape:window-height="1008"
     inkscape:window-x="960"
     inkscape:window-y="0"
     inkscape:window-maximized="0"
     inkscape:current-layer="svg62616" />
  <title
     id="title62606">Paris transit icons - Tram T9</title>
  <g
     id="g69481">
    <path
       fill="#FFF"
       d="M0,28.35h283.46v226.76H0z"
       id="path62608" />
    <rect
       fill="#5291CE"
       width="283.46"
       height="42.52"
       rx="14.17"
       id="rect62610"
       style="fill:#3c91dc;fill-opacity:1" />
    <rect
       fill="#5291CE"
       width="283.46"
       height="42.52"
       rx="14.17"
       y="240.94"
       id="rect62612"
       style="fill:#3c91dc;fill-opacity:1" />
    <path
       fill="#25303B"
       d="M104.63,107.45V197H80.5V107.45H46.93V87.8h91.26v19.65ZM183.79,199.94a72.71,72.71,0,0,1-16.4-1.86l3.41-18.56a42.07,42.07,0,0,0,15,2.62c15.31,0,26.45-12.21,28-34.17-3.71,3.24-10.83,7.43-22.58,7.43-18.09,0-32.64-11.92-32.64-32.34,0-21.8,14.55-37.89,37.43-37.89,29.86,0,40.53,20.73,40.53,49.65C236.53,172.72,218.74,199.94,183.79,199.94Zm13.14-97.6c-10.83,0-16.39,8.82-16.39,18.25,0,10.21,6.81,17.64,17.63,17.64,7,0,12.53-2.63,14.69-6,1.24-1.86,1.24-6.19,1.24-9.44C214.1,112.39,208.07,102.34,196.93,102.34Z"
       id="path62614"
       style="fill:#00000b;fill-opacity:1" />
  </g>
</svg>
